<svg width="1920" height="992" viewBox="0 0 1920 992" fill="none" xmlns="http://www.w3.org/2000/svg">
<g clip-path="url(#clip0)">
<rect width="1920" height="992" fill="#471784"/>
<path d="M316.805 1098.54L380.717 1031.01C381.454 1030.23 381.851 1029.19 381.821 1028.11C381.792 1027.04 381.338 1026.03 380.559 1025.29L315.96 964.157C312.066 960.472 306.868 958.485 301.509 958.632C296.15 958.78 291.069 961.051 287.385 964.944L226.251 1029.54C222.566 1033.44 220.579 1038.64 220.727 1043.99C220.875 1049.35 223.145 1054.43 227.039 1058.12L291.638 1119.25C292.417 1119.99 293.456 1120.39 294.528 1120.36C295.6 1120.33 296.616 1119.87 297.353 1119.09L300.132 1116.16C300.776 1115.48 301.163 1114.6 301.229 1113.66C301.294 1112.73 301.034 1111.8 300.491 1111.04C301.978 1107.92 308.682 1100.84 311.71 1099.18C312.502 1099.68 313.443 1099.89 314.372 1099.77C315.301 1099.66 316.161 1099.22 316.805 1098.54V1098.54ZM293.001 1103.84L235.375 1049.31C233.818 1047.84 232.91 1045.8 232.851 1043.66C232.791 1041.52 233.586 1039.44 235.06 1037.88C236.534 1036.32 238.567 1035.41 240.71 1035.35C242.854 1035.3 244.933 1036.09 246.49 1037.56L304.116 1092.1C300.616 1094.8 295.51 1100.2 293.001 1103.84ZM313.553 1084.33L254.827 1028.76C252.807 1026.84 250.411 1025.37 247.791 1024.43L296.193 973.281C297.667 971.723 299.7 970.815 301.843 970.756C303.987 970.697 306.066 971.492 307.624 972.966L366.35 1028.54L313.553 1084.33ZM287.334 1014.99L297.611 1024.72L287.886 1034.99C287.517 1035.38 287.318 1035.9 287.333 1036.44C287.348 1036.97 287.575 1037.48 287.964 1037.85L296.773 1046.19C297.163 1046.56 297.682 1046.75 298.218 1046.74C298.754 1046.73 299.262 1046.5 299.631 1046.11L309.357 1035.83L319.634 1045.56C320.023 1045.93 320.543 1046.12 321.079 1046.11C321.615 1046.1 322.123 1045.87 322.491 1045.48L330.828 1036.67C331.196 1036.28 331.395 1035.76 331.38 1035.22C331.365 1034.69 331.138 1034.18 330.749 1033.81L320.472 1024.09L330.197 1013.81C330.566 1013.42 330.765 1012.9 330.75 1012.36C330.735 1011.83 330.508 1011.32 330.119 1010.95L321.31 1002.62C320.92 1002.25 320.401 1002.05 319.865 1002.06C319.329 1002.08 318.821 1002.3 318.452 1002.69L308.726 1012.97L298.449 1003.25C298.06 1002.88 297.54 1002.68 297.004 1002.69C296.468 1002.71 295.96 1002.94 295.592 1003.32L287.255 1012.13C286.887 1012.52 286.688 1013.04 286.703 1013.58C286.718 1014.11 286.945 1014.62 287.334 1014.99Z" fill="#521E95"/>
<path d="M99.2991 864.751L97.2696 868.48C96.7099 869.508 97.0548 870.736 98.0387 871.222L121.202 882.667L133.904 905.163C134.443 906.118 135.688 906.395 136.684 905.779L140.296 903.548C141.292 902.932 141.664 901.656 141.123 900.699L134.71 889.342L146.403 895.12C147.389 895.608 148.64 895.167 149.202 894.137L151.231 890.408C151.791 889.379 151.446 888.152 150.462 887.666L127.301 876.222L114.599 853.727C114.059 852.771 112.815 852.494 111.818 853.11L108.207 855.341C107.21 855.957 106.838 857.233 107.379 858.19L113.792 869.547L102.1 863.769C101.114 863.281 99.8605 863.72 99.2991 864.751V864.751ZM128.831 856.961L126.557 859.363C125.022 860.985 125.093 863.543 126.715 865.078L138.46 876.193C140.083 877.728 142.64 877.658 144.175 876.036L146.449 873.633C152.023 874.845 157.539 873.678 161.163 869.848C167.302 863.361 165.705 851.882 157.597 844.209C149.489 836.536 137.939 835.573 131.8 842.06C128.175 845.89 127.314 851.462 128.831 856.961ZM155.133 858.575C156.755 860.111 156.826 862.668 155.29 864.29C153.755 865.913 151.198 865.983 149.575 864.448C147.953 862.913 147.883 860.355 149.418 858.733C150.953 857.111 153.511 857.04 155.133 858.575ZM143.388 847.46C145.01 848.995 145.08 851.553 143.545 853.175C142.01 854.798 139.452 854.868 137.83 853.333C136.208 851.798 136.137 849.24 137.673 847.618C139.208 845.995 141.765 845.925 143.388 847.46ZM142.972 936.123L206.884 868.588C208.412 866.973 208.341 864.401 206.726 862.873L142.127 801.739C134.016 794.063 121.228 794.415 113.552 802.527L52.4187 867.126C44.7423 875.238 45.0948 888.025 53.2064 895.702L117.805 956.835C119.42 958.363 121.992 958.292 123.52 956.677L126.299 953.741C127.654 952.309 127.755 950.144 126.658 948.619C128.145 945.504 134.849 938.42 137.878 936.764C139.496 937.774 141.617 937.554 142.972 936.123V936.123ZM119.168 941.426L61.5427 886.893C58.2944 883.819 58.1536 878.711 61.2276 875.462C64.2843 872.232 69.4279 872.091 72.6578 875.147L130.283 929.681C126.783 932.387 121.677 937.782 119.168 941.426ZM139.721 921.914L80.9942 866.338C78.9021 864.358 76.5032 862.923 73.9579 862.01L122.361 810.863C125.435 807.615 130.543 807.474 133.791 810.548L192.517 866.124L139.721 921.914Z" fill="#521E95"/>
<path d="M-29.8173 772.603L34.0947 705.068C35.623 703.453 35.5521 700.881 33.9372 699.353L-30.6618 638.22C-38.7734 630.543 -51.5609 630.896 -59.2373 639.008L-120.37 703.606C-128.047 711.718 -127.694 724.506 -119.583 732.182L-54.9838 793.315C-53.3689 794.844 -50.7971 794.773 -49.2687 793.158L-46.49 790.221C-45.1353 788.79 -45.0341 786.624 -46.1307 785.1C-44.6437 781.984 -37.9399 774.901 -34.9114 773.244C-33.2928 774.254 -31.1719 774.035 -29.8173 772.603V772.603ZM-53.6213 777.907L-111.246 723.373C-114.495 720.299 -114.636 715.191 -111.562 711.943C-108.505 708.713 -103.361 708.571 -100.131 711.628L-42.5061 766.161C-46.0062 768.867 -51.1122 774.263 -53.6213 777.907ZM-33.0687 758.394L-91.795 702.819C-93.8871 700.839 -96.286 699.404 -98.8312 698.491L-50.4283 647.344C-47.3543 644.096 -42.2464 643.955 -38.9981 647.029L19.7282 702.604L-33.0687 758.394ZM-55.2051 713.964C-55.1414 715.624 -53.7467 716.944 -52.0852 716.916L-26.3788 716.44C-18.9114 716.306 -13.1756 709.767 -14.1712 702.18C-15.1667 694.594 -22.2954 690.805 -27.8512 690.904L-30.4771 690.959L-30.5673 688.334C-30.7527 682.905 -34.8604 675.887 -42.58 675.296C-50.2283 674.702 -56.4229 680.807 -56.1457 688.27L-55.2051 713.964V713.964Z" fill="#521E95"/>
<path d="M364.727 874.846L428.639 807.311C429.376 806.532 429.773 805.493 429.744 804.421C429.714 803.349 429.26 802.333 428.481 801.596L363.882 740.463C359.988 736.778 354.79 734.791 349.431 734.938C344.072 735.086 338.992 737.357 335.307 741.25L274.174 805.849C270.489 809.743 268.502 814.941 268.649 820.3C268.797 825.659 271.067 830.74 274.961 834.425L339.56 895.558C340.339 896.295 341.379 896.693 342.45 896.663C343.522 896.633 344.538 896.179 345.275 895.401L348.054 892.464C348.698 891.784 349.086 890.902 349.151 889.968C349.217 889.034 348.956 888.106 348.413 887.343C349.9 884.227 356.604 877.144 359.633 875.487C360.425 875.987 361.365 876.196 362.295 876.079C363.224 875.962 364.083 875.527 364.727 874.846V874.846ZM340.923 880.15L283.298 825.616C281.74 824.142 280.832 822.11 280.773 819.966C280.714 817.823 281.509 815.743 282.983 814.186C284.456 812.628 286.489 811.72 288.632 811.661C290.776 811.602 292.855 812.397 294.413 813.871L352.038 868.404C348.538 871.11 343.432 876.506 340.923 880.15ZM361.475 860.637L302.749 805.062C300.729 803.146 298.333 801.672 295.713 800.734L344.116 749.587C345.59 748.029 347.622 747.121 349.766 747.062C351.909 747.003 353.988 747.798 355.546 749.272L414.272 804.847L361.475 860.637ZM335.256 791.297L345.534 801.023L335.808 811.3C335.439 811.689 335.241 812.209 335.255 812.745C335.27 813.281 335.497 813.789 335.887 814.157L344.696 822.494C345.085 822.862 345.605 823.061 346.141 823.046C346.677 823.031 347.185 822.804 347.553 822.415L357.279 812.138L367.556 821.864C367.945 822.232 368.465 822.431 369.001 822.416C369.537 822.401 370.045 822.174 370.413 821.785L378.75 812.976C379.118 812.586 379.317 812.067 379.302 811.531C379.287 810.995 379.06 810.487 378.671 810.118L368.394 800.393L378.12 790.115C378.488 789.726 378.687 789.206 378.672 788.67C378.657 788.134 378.43 787.626 378.041 787.258L369.232 778.922C368.843 778.553 368.323 778.354 367.787 778.369C367.251 778.384 366.743 778.611 366.374 779L356.649 789.277L346.372 779.552C345.982 779.183 345.462 778.984 344.926 778.999C344.391 779.014 343.882 779.241 343.514 779.63L335.178 788.439C334.809 788.829 334.61 789.349 334.625 789.884C334.64 790.42 334.867 790.928 335.256 791.297Z" fill="#521E95"/>
<path d="M147.222 641.056L145.192 644.784C144.632 645.813 144.977 647.041 145.961 647.526L169.124 658.972L181.826 681.468C182.366 682.423 183.61 682.7 184.607 682.084L188.218 679.853C189.215 679.237 189.587 677.961 189.046 677.004L182.633 665.647L194.325 671.425C195.311 671.913 196.563 671.472 197.124 670.442L199.154 666.713C199.713 665.684 199.368 664.457 198.385 663.971L175.223 652.527L162.521 630.031C161.982 629.076 160.737 628.799 159.741 629.415L156.129 631.646C155.133 632.262 154.761 633.538 155.302 634.495L161.715 645.852L150.022 640.074C149.036 639.586 147.783 640.025 147.222 641.056V641.056ZM176.753 633.266L174.48 635.668C172.945 637.29 173.015 639.848 174.637 641.383L186.383 652.498C188.005 654.033 190.563 653.963 192.098 652.341L194.371 649.938C199.945 651.15 205.461 649.983 209.086 646.153C215.225 639.665 213.627 628.187 205.519 620.514C197.411 612.841 185.862 611.878 179.722 618.365C176.098 622.195 175.236 627.767 176.753 633.266ZM203.055 634.88C204.678 636.415 204.748 638.973 203.213 640.595C201.678 642.218 199.12 642.288 197.498 640.753C195.876 639.218 195.805 636.66 197.34 635.038C198.876 633.415 201.433 633.345 203.055 634.88ZM191.31 623.765C192.932 625.3 193.003 627.858 191.468 629.48C189.932 631.103 187.375 631.173 185.753 629.638C184.13 628.102 184.06 625.545 185.595 623.923C187.13 622.3 189.688 622.23 191.31 623.765ZM190.894 712.428L254.806 644.893C256.335 643.278 256.264 640.706 254.649 639.177L190.05 578.044C181.938 570.368 169.151 570.72 161.474 578.832L100.341 643.431C92.6648 651.543 93.0173 664.33 101.129 672.006L165.728 733.14C167.343 734.668 169.915 734.597 171.443 732.982L174.222 730.046C175.576 728.614 175.678 726.449 174.581 724.924C176.068 721.809 182.772 714.725 185.8 713.069C187.419 714.079 189.54 713.859 190.894 712.428V712.428ZM167.09 717.731L109.465 663.197C106.217 660.123 106.076 655.016 109.15 651.767C112.207 648.537 117.35 648.396 120.58 651.452L178.206 705.986C174.705 708.692 169.599 714.087 167.09 717.731ZM187.643 698.219L128.917 642.643C126.825 640.663 124.426 639.228 121.88 638.315L170.283 587.168C173.357 583.92 178.465 583.779 181.714 586.853L240.44 642.429L187.643 698.219Z" fill="#521E95"/>
<path d="M18.1047 548.909L82.0167 481.374C83.545 479.759 83.4741 477.187 81.8592 475.659L17.2602 414.526C9.14862 406.849 -3.63891 407.202 -11.3153 415.313L-72.4485 479.912C-80.1249 488.024 -79.7724 500.811 -71.6608 508.488L-7.06185 569.621C-5.44687 571.149 -2.87508 571.079 -1.34675 569.464L1.43203 566.527C2.78669 565.096 2.88786 562.93 1.79131 561.406C3.27829 558.29 9.98209 551.207 13.0106 549.55C14.6292 550.56 16.7501 550.341 18.1047 548.909V548.909ZM-5.69925 554.213L-63.3245 499.679C-66.5728 496.605 -66.7136 491.497 -63.6395 488.249C-60.5829 485.019 -55.4393 484.877 -52.2093 487.934L5.41587 542.467C1.91581 545.173 -3.1902 550.569 -5.69925 554.213ZM14.8533 534.7L-43.873 479.125C-45.9651 477.145 -48.364 475.71 -50.9093 474.797L-2.50634 423.65C0.567683 420.401 5.67555 420.261 8.92385 423.335L67.6502 478.91L14.8533 534.7ZM-7.28308 490.27C-7.21944 491.93 -5.82469 493.25 -4.16324 493.222L21.5432 492.746C29.0106 492.612 34.7464 486.073 33.7508 478.486C32.7553 470.9 25.6266 467.111 20.0708 467.21L17.4449 467.265L17.3547 464.64C17.1693 459.211 13.0616 452.193 5.34195 451.602C-2.30629 451.008 -8.50089 457.113 -8.22367 464.576L-7.28308 490.27V490.27Z" fill="#521E95"/>
<path d="M760.321 975.985L824.233 908.449C825.762 906.835 825.691 904.263 824.076 902.734L759.477 841.601C751.365 833.925 738.578 834.277 730.901 842.389L669.768 906.988C662.092 915.099 662.444 927.887 670.556 935.563L735.155 996.697C736.77 998.225 739.341 998.154 740.87 996.539L743.649 993.603C745.003 992.171 745.104 990.006 744.008 988.481C745.495 985.366 752.199 978.282 755.227 976.626C756.846 977.636 758.967 977.416 760.321 975.985V975.985ZM736.517 981.288L678.892 926.754C675.644 923.68 675.503 918.572 678.577 915.324C681.634 912.094 686.777 911.952 690.007 915.009L747.632 969.543C744.132 972.249 739.026 977.644 736.517 981.288ZM757.07 961.776L698.344 906.2C696.251 904.22 693.853 902.785 691.307 901.872L739.71 850.725C742.784 847.477 747.892 847.336 751.14 850.41L809.867 905.986L757.07 961.776ZM743.506 919.256L739.137 933.673L753.292 928.516L767.712 932.885L762.555 918.727L766.925 904.31L752.77 909.467L738.349 905.097L743.506 919.256ZM739.424 892.199L749.331 888.589L759.426 891.648L755.816 881.736L758.875 871.645L748.965 875.253L738.872 872.196L742.48 882.106L739.424 892.199Z" fill="#521E95"/>
<path d="M586.489 813.567L650.401 746.032C651.138 745.253 651.535 744.214 651.506 743.142C651.476 742.07 651.022 741.054 650.243 740.317L585.644 679.184C581.75 675.499 576.552 673.512 571.193 673.659C565.834 673.807 560.754 676.078 557.069 679.971L495.936 744.57C492.251 748.464 490.263 753.662 490.411 759.021C490.559 764.38 492.829 769.461 496.723 773.146L561.322 834.279C562.101 835.016 563.141 835.413 564.212 835.384C565.284 835.354 566.3 834.9 567.037 834.122L569.816 831.185C570.46 830.505 570.848 829.623 570.913 828.689C570.979 827.755 570.718 826.827 570.175 826.064C571.662 822.948 578.366 815.864 581.395 814.208C582.187 814.708 583.127 814.917 584.057 814.8C584.986 814.683 585.845 814.248 586.489 813.567V813.567ZM562.685 818.87L505.06 764.337C503.502 762.863 502.594 760.831 502.535 758.687C502.476 756.543 503.271 754.464 504.744 752.907C506.218 751.349 508.251 750.441 510.394 750.382C512.538 750.323 514.617 751.118 516.175 752.592L573.8 807.125C570.3 809.831 565.194 815.227 562.685 818.87ZM583.237 799.358L524.511 743.783C522.491 741.867 520.095 740.393 517.475 739.455L565.878 688.308C567.352 686.75 569.384 685.842 571.528 685.783C573.671 685.724 575.75 686.519 577.308 687.993L636.034 743.568L583.237 799.358ZM557.018 730.018L567.296 739.744L557.57 750.021C557.201 750.41 557.003 750.93 557.017 751.466C557.032 752.002 557.259 752.51 557.649 752.878L566.457 761.215C566.847 761.583 567.367 761.782 567.903 761.767C568.438 761.752 568.947 761.525 569.315 761.136L579.041 750.859L589.318 760.584C589.707 760.953 590.227 761.152 590.763 761.137C591.299 761.122 591.807 760.895 592.175 760.506L600.512 751.697C600.88 751.307 601.079 750.788 601.064 750.252C601.049 749.716 600.822 749.208 600.433 748.839L590.156 739.113L599.882 728.836C600.25 728.447 600.449 727.927 600.434 727.391C600.419 726.855 600.192 726.347 599.803 725.979L590.994 717.642C590.605 717.274 590.085 717.075 589.549 717.09C589.013 717.105 588.505 717.332 588.136 717.721L578.411 727.998L568.134 718.273C567.744 717.904 567.224 717.705 566.688 717.72C566.153 717.735 565.644 717.962 565.276 718.351L556.94 727.16C556.571 727.55 556.372 728.07 556.387 728.605C556.402 729.141 556.629 729.649 557.018 730.018Z" fill="#521E95"/>
<path d="M368.984 579.777L366.955 583.505C366.395 584.534 366.74 585.762 367.724 586.247L390.886 597.693L403.589 620.189C404.128 621.144 405.373 621.421 406.369 620.805L409.981 618.574C410.977 617.958 411.349 616.682 410.808 615.725L404.395 604.368L416.088 610.146C417.074 610.634 418.325 610.193 418.887 609.163L420.916 605.434C421.476 604.405 421.131 603.178 420.147 602.692L396.986 591.248L384.284 568.752C383.744 567.797 382.5 567.52 381.503 568.136L377.892 570.367C376.895 570.983 376.523 572.259 377.064 573.216L383.477 584.573L371.785 578.795C370.799 578.307 369.545 578.746 368.984 579.777V579.777ZM398.516 571.987L396.242 574.389C394.707 576.011 394.778 578.569 396.4 580.104L408.145 591.219C409.767 592.754 412.325 592.684 413.86 591.062L416.134 588.659C421.708 589.871 427.223 588.704 430.848 584.874C436.987 578.386 435.389 566.908 427.282 559.235C419.174 551.562 407.624 550.599 401.485 557.086C397.86 560.916 396.999 566.488 398.516 571.987ZM424.818 573.601C426.44 575.136 426.511 577.694 424.975 579.316C423.44 580.939 420.883 581.009 419.26 579.474C417.638 577.939 417.567 575.381 419.103 573.759C420.638 572.136 423.196 572.066 424.818 573.601ZM413.073 562.486C414.695 564.021 414.765 566.579 413.23 568.201C411.695 569.823 409.137 569.894 407.515 568.359C405.893 566.823 405.822 564.266 407.358 562.644C408.893 561.021 411.45 560.951 413.073 562.486ZM412.657 651.149L476.569 583.614C478.097 581.999 478.026 579.427 476.411 577.898L411.812 516.765C403.701 509.089 390.913 509.441 383.237 517.553L322.104 582.152C314.427 590.263 314.78 603.051 322.891 610.727L387.49 671.861C389.105 673.389 391.677 673.318 393.205 671.703L395.984 668.767C397.339 667.335 397.44 665.17 396.343 663.645C397.83 660.53 404.534 653.446 407.563 651.79C409.181 652.8 411.302 652.58 412.657 651.149V651.149ZM388.853 656.452L331.228 601.918C327.979 598.844 327.839 593.737 330.913 590.488C333.969 587.258 339.113 587.117 342.343 590.173L399.968 644.707C396.468 647.413 391.362 652.808 388.853 656.452ZM409.405 636.94L350.679 581.364C348.587 579.384 346.188 577.949 343.643 577.036L392.046 525.889C395.12 522.641 400.228 522.5 403.476 525.574L462.202 581.15L409.405 636.94Z" fill="#521E95"/>
<path d="M239.864 487.631L303.776 420.095C305.304 418.48 305.233 415.908 303.618 414.38L239.019 353.247C230.908 345.571 218.12 345.923 210.444 354.035L149.31 418.634C141.634 426.745 141.987 439.533 150.098 447.209L214.697 508.342C216.312 509.871 218.884 509.8 220.412 508.185L223.191 505.248C224.546 503.817 224.647 501.652 223.55 500.127C225.037 497.012 231.741 489.928 234.77 488.271C236.388 489.281 238.509 489.062 239.864 487.631V487.631ZM216.06 492.934L158.434 438.4C155.186 435.326 155.045 430.218 158.119 426.97C161.176 423.74 166.32 423.598 169.55 426.655L227.175 481.188C223.675 483.894 218.569 489.29 216.06 492.934ZM236.612 473.422L177.886 417.846C175.794 415.866 173.395 414.431 170.85 413.518L219.253 362.371C222.327 359.123 227.434 358.982 230.683 362.056L289.409 417.632L236.612 473.422ZM214.476 428.991C214.539 430.652 215.934 431.972 217.596 431.944L243.302 431.467C250.769 431.333 256.505 424.794 255.51 417.208C254.514 409.621 247.386 405.832 241.83 405.931L239.204 405.986L239.114 403.361C238.928 397.933 234.821 390.914 227.101 390.323C219.453 389.729 213.258 395.834 213.535 403.297L214.476 428.991V428.991Z" fill="#521E95"/>
<path d="M68.1199 323.008L132.032 255.473C133.56 253.858 133.489 251.286 131.874 249.758L67.2753 188.625C59.1638 180.948 46.3762 181.301 38.6998 189.413L-22.4334 254.012C-30.1097 262.123 -29.7573 274.911 -21.6457 282.587L42.9533 343.72C44.5683 345.249 47.1401 345.178 48.6684 343.563L51.4472 340.626C52.8018 339.195 52.903 337.029 51.8064 335.505C53.2934 332.39 59.9972 325.306 63.0258 323.649C64.6443 324.659 66.7652 324.44 68.1199 323.008V323.008ZM44.3159 328.312L-13.3093 273.778C-16.5576 270.704 -16.6984 265.596 -13.6244 262.348C-10.5677 259.118 -5.42416 258.976 -2.19421 262.033L55.431 316.566C51.9309 319.272 46.8249 324.668 44.3159 328.312ZM64.8685 308.799L6.14214 253.224C4.05001 251.244 1.65118 249.809 -0.894114 248.896L47.5088 197.749C50.5828 194.501 55.6907 194.36 58.939 197.434L117.665 253.009L64.8685 308.799ZM51.3049 266.279L46.9355 280.697L61.0902 275.54L75.511 279.909L70.3539 265.751L74.7233 251.333L60.5687 256.49L46.1478 252.121L51.3049 266.279ZM47.2221 239.223L57.1299 235.613L67.225 238.671L63.6149 228.76L66.6736 218.669L56.7641 222.277L46.6708 219.22L50.2791 229.129L47.2221 239.223Z" fill="#521E95"/>
<path d="M537.52 1038.36L601.432 970.83C602.961 969.215 602.89 966.643 601.275 965.115L536.676 903.981C528.564 896.305 515.777 896.657 508.1 904.769L446.967 969.368C439.291 977.48 439.643 990.267 447.755 997.943L512.354 1059.08C513.969 1060.6 516.54 1060.53 518.069 1058.92L520.848 1055.98C522.202 1054.55 522.303 1052.39 521.207 1050.86C522.694 1047.75 529.398 1040.66 532.426 1039.01C534.045 1040.02 536.166 1039.8 537.52 1038.36V1038.36ZM513.716 1043.67L456.091 989.134C452.843 986.06 452.702 980.953 455.776 977.704C458.833 974.474 463.976 974.333 467.206 977.389L524.831 1031.92C521.331 1034.63 516.225 1040.02 513.716 1043.67ZM534.269 1024.16L475.543 968.58C473.45 966.6 471.052 965.165 468.506 964.252L516.909 913.105C519.983 909.857 525.091 909.716 528.339 912.79L587.066 968.366L534.269 1024.16ZM520.705 981.636L516.336 996.053L530.491 990.896L544.911 995.265L539.754 981.107L544.124 966.69L529.969 971.847L515.548 967.478L520.705 981.636ZM516.623 954.579L526.53 950.969L536.625 954.028L533.015 944.117L536.074 934.025L526.164 937.633L516.071 934.576L519.679 944.486L516.623 954.579Z" fill="#521E95"/>
<path d="M636.5 587.668L700.412 520.132C701.149 519.354 701.546 518.314 701.517 517.242C701.487 516.17 701.033 515.154 700.254 514.417L635.655 453.284C631.762 449.599 626.564 447.612 621.205 447.76C615.846 447.907 610.765 450.178 607.08 454.072L545.947 518.671C542.262 522.564 540.275 527.763 540.422 533.122C540.57 538.481 542.841 543.561 546.734 547.246L611.333 608.379C612.112 609.116 613.152 609.514 614.224 609.484C615.295 609.455 616.312 609.001 617.049 608.222L619.827 605.286C620.471 604.606 620.859 603.723 620.924 602.789C620.99 601.855 620.729 600.927 620.187 600.164C621.674 597.049 628.377 589.965 631.406 588.308C632.198 588.808 633.139 589.017 634.068 588.901C634.997 588.784 635.856 588.348 636.5 587.668V587.668ZM612.696 592.971L555.071 538.437C553.513 536.963 552.605 534.931 552.546 532.787C552.487 530.644 553.282 528.565 554.756 527.007C556.23 525.45 558.262 524.541 560.406 524.482C562.549 524.423 564.628 525.218 566.186 526.692L623.811 581.226C620.311 583.932 615.205 589.327 612.696 592.971ZM633.249 573.459L574.522 517.883C572.503 515.968 570.106 514.494 567.486 513.555L615.889 462.408C617.363 460.851 619.395 459.942 621.539 459.883C623.682 459.824 625.762 460.619 627.319 462.093L686.045 517.669L633.249 573.459ZM607.03 504.118L617.307 513.844L607.581 524.121C607.213 524.51 607.014 525.03 607.029 525.566C607.043 526.102 607.27 526.61 607.66 526.979L616.469 535.315C616.858 535.683 617.378 535.882 617.914 535.867C618.45 535.853 618.958 535.626 619.326 535.236L629.052 524.959L639.329 534.685C639.718 535.053 640.238 535.252 640.774 535.237C641.31 535.222 641.818 534.995 642.187 534.606L650.523 525.797C650.891 525.408 651.09 524.888 651.075 524.352C651.061 523.816 650.834 523.308 650.444 522.94L640.167 513.214L649.893 502.937C650.261 502.547 650.46 502.028 650.445 501.492C650.431 500.956 650.203 500.448 649.814 500.079L641.005 491.743C640.616 491.374 640.096 491.176 639.56 491.19C639.024 491.205 638.516 491.432 638.148 491.822L628.422 502.099L618.145 492.373C617.755 492.004 617.236 491.806 616.7 491.821C616.164 491.835 615.656 492.062 615.287 492.452L606.951 501.261C606.582 501.65 606.384 502.17 606.398 502.706C606.413 503.242 606.64 503.75 607.03 504.118Z" fill="#521E95"/>
<path d="M418.991 353.878L416.961 357.607C416.402 358.636 416.747 359.863 417.73 360.349L440.893 371.795L453.596 394.29C454.135 395.246 455.379 395.522 456.376 394.907L459.987 392.675C460.984 392.06 461.356 390.784 460.815 389.827L454.402 378.47L466.095 384.248C467.08 384.735 468.332 384.295 468.893 383.264L470.923 379.535C471.483 378.506 471.138 377.279 470.154 376.793L446.993 365.349L434.29 342.854C433.751 341.898 432.507 341.622 431.51 342.237L427.899 344.469C426.902 345.084 426.53 346.36 427.071 347.318L433.484 358.674L421.791 352.897C420.806 352.409 419.552 352.847 418.991 353.878V353.878ZM448.523 346.088L446.249 348.49C444.714 350.113 444.784 352.67 446.407 354.205L458.152 365.321C459.774 366.856 462.332 366.785 463.867 365.163L466.141 362.761C471.715 363.973 477.23 362.805 480.855 358.975C486.994 352.488 485.396 341.009 477.288 333.336C469.181 325.663 457.631 324.7 451.492 331.188C447.867 335.018 447.006 340.589 448.523 346.088ZM474.825 347.703C476.447 349.238 476.518 351.796 474.982 353.418C473.447 355.04 470.889 355.111 469.267 353.575C467.645 352.04 467.574 349.483 469.11 347.86C470.645 346.238 473.202 346.167 474.825 347.703ZM463.079 336.588C464.702 338.123 464.772 340.68 463.237 342.303C461.702 343.925 459.144 343.996 457.522 342.46C455.9 340.925 455.829 338.367 457.364 336.745C458.9 335.123 461.457 335.052 463.079 336.588ZM462.664 425.25L526.576 357.715C528.104 356.1 528.033 353.528 526.418 352L461.819 290.867C453.708 283.19 440.92 283.543 433.244 291.654L372.11 356.253C364.434 364.365 364.787 377.153 372.898 384.829L437.497 445.962C439.112 447.49 441.684 447.42 443.212 445.805L445.991 442.868C447.346 441.437 447.447 439.271 446.35 437.747C447.837 434.631 454.541 427.548 457.57 425.891C459.188 426.901 461.309 426.682 462.664 425.25V425.25ZM438.86 430.554L381.234 376.02C377.986 372.946 377.845 367.838 380.919 364.59C383.976 361.36 389.12 361.218 392.35 364.275L449.975 418.808C446.475 421.514 441.369 426.91 438.86 430.554ZM459.412 411.041L400.686 355.466C398.594 353.486 396.195 352.051 393.65 351.138L442.053 299.991C445.127 296.743 450.235 296.602 453.483 299.676L512.209 355.251L459.412 411.041Z" fill="#521E95"/>
<path d="M289.878 261.731L353.79 194.195C355.319 192.58 355.248 190.009 353.633 188.48L289.034 127.347C280.922 119.671 268.135 120.023 260.458 128.135L199.325 192.734C191.649 200.845 192.001 213.633 200.113 221.309L264.712 282.442C266.327 283.971 268.898 283.9 270.427 282.285L273.206 279.349C274.56 277.917 274.661 275.752 273.565 274.227C275.052 271.112 281.756 264.028 284.784 262.371C286.403 263.381 288.524 263.162 289.878 261.731V261.731ZM266.074 267.034L208.449 212.5C205.201 209.426 205.06 204.318 208.134 201.07C211.191 197.84 216.334 197.698 219.564 200.755L277.189 255.289C273.689 257.995 268.583 263.39 266.074 267.034ZM286.627 247.522L227.901 191.946C225.808 189.966 223.41 188.531 220.864 187.618L269.267 136.471C272.341 133.223 277.449 133.082 280.697 136.156L339.424 191.732L286.627 247.522ZM264.49 203.091C264.554 204.752 265.949 206.072 267.61 206.044L293.317 205.567C300.784 205.433 306.52 198.894 305.524 191.308C304.529 183.721 297.4 179.932 291.844 180.031L289.218 180.086L289.128 177.461C288.943 172.033 284.835 165.014 277.116 164.423C269.467 163.829 263.273 169.934 263.55 177.398L264.49 203.091V203.091Z" fill="#521E95"/>
<path d="M118.131 97.1098L182.043 29.5745C183.571 27.9595 183.5 25.3877 181.885 23.8594L117.286 -37.2738C109.175 -44.9502 96.387 -44.5977 88.7106 -36.4861L27.5774 28.1128C19.901 36.2244 20.2535 49.0119 28.3651 56.6883L92.964 117.822C94.579 119.35 97.1508 119.279 98.6791 117.664L101.458 114.728C102.813 113.296 102.914 111.131 101.817 109.606C103.304 106.491 110.008 99.407 113.037 97.7506C114.655 98.7605 116.776 98.5412 118.131 97.1098V97.1098ZM94.3266 102.413L36.7014 47.8794C33.4531 44.8053 33.3123 39.6975 36.3863 36.4492C39.443 33.2192 44.5866 33.0774 47.8165 36.1341L105.442 90.6677C101.942 93.3737 96.8357 98.7692 94.3266 102.413ZM114.879 82.9008L56.1529 27.3252C54.0608 25.3453 51.6619 23.91 49.1166 22.9972L97.5195 -28.1498C100.594 -31.3981 105.701 -31.5389 108.95 -28.4649L167.676 27.1108L114.879 82.9008ZM101.316 40.3806L96.9462 54.7979L111.101 49.6409L125.522 54.0102L120.365 39.852L124.734 25.4347L110.579 30.5917L96.1586 26.2224L101.316 40.3806ZM97.2329 13.3241L107.141 9.71401L117.236 12.7727L113.626 2.86138L116.684 -7.23017L106.775 -3.62186L96.6815 -6.67879L100.29 3.23077L97.2329 13.3241Z" fill="#521E95"/>
<path d="M1332.95 945.576L1330.92 949.304C1330.37 950.333 1330.71 951.561 1331.69 952.047L1354.86 963.492L1367.56 985.988C1368.1 986.943 1369.34 987.22 1370.34 986.604L1373.95 984.373C1374.95 983.757 1375.32 982.481 1374.78 981.524L1368.37 970.167L1380.06 975.945C1381.04 976.433 1382.3 975.992 1382.86 974.962L1384.89 971.233C1385.45 970.204 1385.1 968.977 1384.12 968.491L1360.96 957.047L1348.25 934.551C1347.71 933.596 1346.47 933.319 1345.47 933.935L1341.86 936.166C1340.87 936.782 1340.49 938.058 1341.03 939.015L1347.45 950.372L1335.75 944.594C1334.77 944.106 1333.52 944.545 1332.95 945.576V945.576ZM1362.49 937.786L1360.21 940.188C1358.68 941.81 1358.75 944.368 1360.37 945.903L1372.12 957.018C1373.74 958.553 1376.3 958.483 1377.83 956.861L1380.1 954.458C1385.68 955.67 1391.19 954.503 1394.82 950.673C1400.96 944.185 1399.36 932.707 1391.25 925.034C1383.14 917.361 1371.59 916.398 1365.46 922.885C1361.83 926.715 1360.97 932.287 1362.49 937.786ZM1388.79 939.4C1390.41 940.936 1390.48 943.493 1388.95 945.115C1387.41 946.738 1384.85 946.808 1383.23 945.273C1381.61 943.738 1381.54 941.18 1383.07 939.558C1384.61 937.935 1387.17 937.865 1388.79 939.4ZM1377.04 928.285C1378.67 929.82 1378.74 932.378 1377.2 934C1375.67 935.623 1373.11 935.693 1371.49 934.158C1369.86 932.622 1369.79 930.065 1371.33 928.443C1372.86 926.82 1375.42 926.75 1377.04 928.285ZM1376.63 1016.95L1440.54 949.413C1442.07 947.798 1442 945.226 1440.38 943.698L1375.78 882.564C1367.67 874.888 1354.88 875.24 1347.21 883.352L1286.07 947.951C1278.4 956.063 1278.75 968.85 1286.86 976.526L1351.46 1037.66C1353.08 1039.19 1355.65 1039.12 1357.18 1037.5L1359.95 1034.57C1361.31 1033.13 1361.41 1030.97 1360.31 1029.44C1361.8 1026.33 1368.5 1019.25 1371.53 1017.59C1373.15 1018.6 1375.27 1018.38 1376.63 1016.95V1016.95ZM1352.82 1022.25L1295.2 967.718C1291.95 964.643 1291.81 959.536 1294.88 956.287C1297.94 953.057 1303.08 952.916 1306.31 955.972L1363.94 1010.51C1360.44 1013.21 1355.33 1018.61 1352.82 1022.25ZM1373.38 1002.74L1314.65 947.163C1312.56 945.183 1310.16 943.748 1307.61 942.835L1356.02 891.688C1359.09 888.44 1364.2 888.299 1367.45 891.373L1426.17 946.949L1373.38 1002.74Z" fill="#521E95"/>
<path d="M1203.84 853.429L1267.75 785.894C1269.28 784.279 1269.21 781.707 1267.59 780.179L1202.99 719.046C1194.88 711.369 1182.09 711.722 1174.42 719.833L1113.28 784.432C1105.61 792.544 1105.96 805.331 1114.07 813.008L1178.67 874.141C1180.29 875.669 1182.86 875.598 1184.39 873.983L1187.16 871.047C1188.52 869.616 1188.62 867.45 1187.52 865.925C1189.01 862.81 1195.72 855.726 1198.74 854.07C1200.36 855.08 1202.48 854.861 1203.84 853.429V853.429ZM1180.03 858.732L1122.41 804.199C1119.16 801.125 1119.02 796.017 1122.09 792.769C1125.15 789.539 1130.29 789.397 1133.52 792.453L1191.15 846.987C1187.65 849.693 1182.54 855.088 1180.03 858.732ZM1200.59 839.22L1141.86 783.644C1139.77 781.665 1137.37 780.229 1134.82 779.317L1183.23 728.17C1186.3 724.921 1191.41 724.78 1194.66 727.854L1253.38 783.43L1200.59 839.22ZM1178.45 794.79C1178.51 796.45 1179.91 797.77 1181.57 797.742L1207.28 797.266C1214.74 797.132 1220.48 790.593 1219.48 783.006C1218.49 775.42 1211.36 771.63 1205.8 771.73L1203.18 771.784L1203.09 769.16C1202.9 763.731 1198.79 756.713 1191.07 756.121C1183.43 755.528 1177.23 761.633 1177.51 769.096L1178.45 794.79V794.79Z" fill="#521E95"/>
<path d="M1032.09 688.807L1096 621.272C1097.53 619.657 1097.46 617.085 1095.84 615.557L1031.25 554.424C1023.13 546.747 1010.35 547.1 1002.67 555.211L941.537 619.81C933.86 627.922 934.213 640.709 942.325 648.386L1006.92 709.519C1008.54 711.047 1011.11 710.976 1012.64 709.361L1015.42 706.425C1016.77 704.994 1016.87 702.828 1015.78 701.304C1017.26 698.188 1023.97 691.104 1027 689.448C1028.61 690.458 1030.74 690.239 1032.09 688.807V688.807ZM1008.29 694.11L950.661 639.577C947.413 636.503 947.272 631.395 950.346 628.147C953.402 624.917 958.546 624.775 961.776 627.832L1019.4 682.365C1015.9 685.071 1010.8 690.467 1008.29 694.11ZM1028.84 674.598L970.112 619.023C968.02 617.043 965.621 615.608 963.076 614.695L1011.48 563.548C1014.55 560.299 1019.66 560.159 1022.91 563.233L1081.64 618.808L1028.84 674.598ZM1015.28 632.078L1010.91 646.495L1025.06 641.338L1039.48 645.708L1034.32 631.549L1038.69 617.132L1024.54 622.289L1010.12 617.92L1015.28 632.078ZM1011.19 605.022L1021.1 601.412L1031.2 604.47L1027.59 594.559L1030.64 584.467L1020.73 588.076L1010.64 585.019L1014.25 594.928L1011.19 605.022Z" fill="#521E95"/>
<path d="M858.259 526.39L922.171 458.855C922.907 458.076 923.305 457.036 923.275 455.965C923.246 454.893 922.792 453.877 922.013 453.14L857.414 392.006C853.52 388.322 848.322 386.334 842.963 386.482C837.604 386.63 832.523 388.9 828.839 392.794L767.705 457.393C764.02 461.287 762.033 466.485 762.181 471.844C762.329 477.203 764.599 482.284 768.493 485.969L833.092 547.102C833.871 547.839 834.91 548.236 835.982 548.207C837.054 548.177 838.07 547.723 838.807 546.944L841.586 544.008C842.23 543.328 842.617 542.446 842.683 541.511C842.748 540.577 842.488 539.649 841.945 538.886C843.432 535.771 850.136 528.687 853.164 527.031C853.956 527.531 854.897 527.74 855.826 527.623C856.755 527.506 857.615 527.07 858.259 526.39V526.39ZM834.455 531.693L776.829 477.16C775.272 475.686 774.364 473.653 774.305 471.51C774.245 469.366 775.04 467.287 776.514 465.729C777.988 464.172 780.021 463.264 782.164 463.205C784.308 463.146 786.387 463.94 787.944 465.414L845.57 519.948C842.07 522.654 836.964 528.049 834.455 531.693ZM855.007 512.181L796.281 456.605C794.261 454.69 791.865 453.216 789.245 452.277L837.647 401.13C839.121 399.573 841.154 398.665 843.297 398.606C845.441 398.547 847.52 399.341 849.078 400.815L907.804 456.391L855.007 512.181ZM828.788 442.841L839.065 452.566L829.34 462.843C828.971 463.233 828.772 463.753 828.787 464.289C828.802 464.824 829.029 465.333 829.418 465.701L838.227 474.037C838.617 474.406 839.136 474.605 839.672 474.59C840.208 474.575 840.716 474.348 841.085 473.959L850.811 463.681L861.088 473.407C861.477 473.776 861.997 473.974 862.533 473.96C863.069 473.945 863.577 473.718 863.945 473.328L872.282 464.52C872.65 464.13 872.849 463.61 872.834 463.074C872.819 462.539 872.592 462.03 872.203 461.662L861.926 451.936L871.651 441.659C872.02 441.27 872.219 440.75 872.204 440.214C872.189 439.678 871.962 439.17 871.573 438.802L862.764 430.465C862.374 430.097 861.854 429.898 861.319 429.913C860.783 429.928 860.275 430.155 859.906 430.544L850.18 440.821L839.903 431.095C839.514 430.727 838.994 430.528 838.458 430.543C837.922 430.558 837.414 430.785 837.046 431.174L828.709 439.983C828.341 440.372 828.142 440.892 828.157 441.428C828.172 441.964 828.399 442.472 828.788 442.841Z" fill="#521E95"/>
<path d="M640.753 292.599L638.723 296.328C638.164 297.357 638.509 298.584 639.493 299.07L662.655 310.516L675.358 333.011C675.897 333.967 677.142 334.244 678.138 333.628L681.749 331.396C682.746 330.781 683.118 329.505 682.577 328.548L676.164 317.191L687.857 322.969C688.843 323.456 690.094 323.016 690.655 321.985L692.685 318.256C693.245 317.228 692.9 316 691.916 315.514L668.755 304.071L656.052 281.575C655.513 280.619 654.269 280.343 653.272 280.958L649.661 283.19C648.664 283.806 648.292 285.081 648.833 286.039L655.246 297.396L643.553 291.618C642.568 291.13 641.314 291.569 640.753 292.599V292.599ZM670.285 284.809L668.011 287.212C666.476 288.834 666.547 291.391 668.169 292.927L679.914 304.042C681.536 305.577 684.094 305.507 685.629 303.884L687.903 301.482C693.477 302.694 698.992 301.527 702.617 297.697C708.756 291.209 707.158 279.73 699.051 272.057C690.943 264.384 679.393 263.421 673.254 269.909C669.629 273.739 668.768 279.31 670.285 284.809ZM696.587 286.424C698.209 287.959 698.28 290.517 696.744 292.139C695.209 293.761 692.652 293.832 691.029 292.297C689.407 290.761 689.336 288.204 690.872 286.581C692.407 284.959 694.964 284.889 696.587 286.424ZM684.842 275.309C686.464 276.844 686.534 279.402 684.999 281.024C683.464 282.646 680.906 282.717 679.284 281.181C677.662 279.646 677.591 277.089 679.126 275.466C680.662 273.844 683.219 273.774 684.842 275.309ZM684.426 363.972L748.338 296.436C749.866 294.821 749.795 292.25 748.18 290.721L683.581 229.588C675.47 221.912 662.682 222.264 655.006 230.376L593.873 294.975C586.196 303.086 586.549 315.874 594.66 323.55L659.259 384.683C660.874 386.212 663.446 386.141 664.974 384.526L667.753 381.589C669.108 380.158 669.209 377.993 668.112 376.468C669.599 373.353 676.303 366.269 679.332 364.612C680.95 365.622 683.071 365.403 684.426 363.972V363.972ZM660.622 369.275L602.997 314.741C599.748 311.667 599.607 306.559 602.682 303.311C605.738 300.081 610.882 299.939 614.112 302.996L671.737 357.53C668.237 360.235 663.131 365.631 660.622 369.275ZM681.174 349.763L622.448 294.187C620.356 292.207 617.957 290.772 615.412 289.859L663.815 238.712C666.889 235.464 671.997 235.323 675.245 238.397L733.971 293.973L681.174 349.763Z" fill="#521E95"/>
<path d="M511.636 200.453L575.548 132.918C577.077 131.303 577.006 128.731 575.391 127.203L510.792 66.0694C502.68 58.3931 489.893 58.7455 482.216 66.8571L421.083 131.456C413.407 139.568 413.759 152.355 421.871 160.032L486.47 221.165C488.085 222.693 490.656 222.622 492.185 221.007L494.964 218.071C496.318 216.639 496.419 214.474 495.323 212.949C496.81 209.834 503.514 202.75 506.542 201.094C508.161 202.104 510.282 201.884 511.636 200.453V200.453ZM487.832 205.756L430.207 151.223C426.959 148.149 426.818 143.041 429.892 139.792C432.949 136.562 438.092 136.421 441.322 139.477L498.947 194.011C495.447 196.717 490.341 202.112 487.832 205.756ZM508.385 186.244L449.658 130.668C447.566 128.689 445.168 127.253 442.622 126.34L491.025 75.1935C494.099 71.9452 499.207 71.8044 502.455 74.8784L561.182 130.454L508.385 186.244ZM486.248 141.814C486.312 143.474 487.707 144.794 489.368 144.766L515.075 144.29C522.542 144.156 528.278 137.617 527.282 130.03C526.287 122.444 519.158 118.654 513.602 118.754L510.976 118.808L510.886 116.183C510.701 110.755 506.593 103.737 498.873 103.145C491.225 102.552 485.031 108.657 485.308 116.12L486.248 141.814V141.814Z" fill="#521E95"/>
<path d="M339.889 35.8322L403.801 -31.7031C405.329 -33.3181 405.258 -35.8899 403.643 -37.4182L339.044 -98.5514C330.933 -106.228 318.145 -105.875 310.469 -97.7637L249.336 -33.1648C241.659 -25.0532 242.012 -12.2657 250.123 -4.58927L314.722 56.5439C316.337 58.0723 318.909 58.0014 320.438 56.3864L323.216 53.4501C324.571 52.0186 324.672 49.8532 323.576 48.3284C325.063 45.2132 331.766 38.1294 334.795 36.4731C336.413 37.483 338.534 37.2636 339.889 35.8322V35.8322ZM316.085 41.1354L258.46 -13.3982C255.212 -16.4722 255.071 -21.5801 258.145 -24.8284C261.201 -28.0584 266.345 -28.2001 269.575 -25.1435L327.2 29.3901C323.7 32.0961 318.594 37.4916 316.085 41.1354ZM336.638 21.6232L277.911 -33.9524C275.819 -35.9323 273.42 -37.3675 270.875 -38.2804L319.278 -89.4274C322.352 -92.6757 327.46 -92.8165 330.708 -89.7425L389.434 -34.1668L336.638 21.6232ZM323.074 -20.8969L318.705 -6.47969L332.859 -11.6367L347.28 -7.26736L342.123 -21.4256L346.492 -35.8429L332.338 -30.6859L317.917 -35.0552L323.074 -20.8969ZM318.991 -47.9535L328.899 -51.5636L338.994 -48.5049L335.384 -58.4162L338.443 -68.5078L328.533 -64.8994L318.44 -67.9564L322.048 -58.0468L318.991 -47.9535Z" fill="#521E95"/>
<path d="M1110.15 1007.96L1108.12 1011.68C1107.56 1012.71 1107.91 1013.94 1108.89 1014.43L1132.06 1025.87L1144.76 1048.37C1145.3 1049.32 1146.54 1049.6 1147.54 1048.98L1151.15 1046.75C1152.15 1046.14 1152.52 1044.86 1151.98 1043.9L1145.56 1032.55L1157.26 1038.33C1158.24 1038.81 1159.49 1038.37 1160.06 1037.34L1162.09 1033.61C1162.65 1032.58 1162.3 1031.36 1161.32 1030.87L1138.16 1019.43L1125.45 996.932C1124.91 995.976 1123.67 995.699 1122.67 996.315L1119.06 998.547C1118.06 999.162 1117.69 1000.44 1118.23 1001.4L1124.65 1012.75L1112.95 1006.97C1111.97 1006.49 1110.72 1006.93 1110.15 1007.96V1007.96ZM1139.69 1000.17L1137.41 1002.57C1135.88 1004.19 1135.95 1006.75 1137.57 1008.28L1149.31 1019.4C1150.94 1020.93 1153.49 1020.86 1155.03 1019.24L1157.3 1016.84C1162.88 1018.05 1168.39 1016.88 1172.02 1013.05C1178.16 1006.57 1176.56 995.087 1168.45 987.414C1160.34 979.741 1148.79 978.778 1142.65 985.265C1139.03 989.095 1138.17 994.667 1139.69 1000.17ZM1165.99 1001.78C1167.61 1003.32 1167.68 1005.87 1166.14 1007.5C1164.61 1009.12 1162.05 1009.19 1160.43 1007.65C1158.81 1006.12 1158.74 1003.56 1160.27 1001.94C1161.81 1000.32 1164.37 1000.25 1165.99 1001.78ZM1154.24 990.665C1155.86 992.201 1155.93 994.758 1154.4 996.38C1152.86 998.003 1150.31 998.073 1148.68 996.538C1147.06 995.003 1146.99 992.445 1148.53 990.823C1150.06 989.2 1152.62 989.13 1154.24 990.665ZM1153.83 1079.33L1217.74 1011.79C1219.27 1010.18 1219.2 1007.61 1217.58 1006.08L1152.98 944.944C1144.87 937.268 1132.08 937.621 1124.41 945.732L1063.27 1010.33C1055.6 1018.44 1055.95 1031.23 1064.06 1038.91L1128.66 1100.04C1130.27 1101.57 1132.85 1101.5 1134.37 1099.88L1137.15 1096.95C1138.51 1095.51 1138.61 1093.35 1137.51 1091.82C1139 1088.71 1145.7 1081.63 1148.73 1079.97C1150.35 1080.98 1152.47 1080.76 1153.83 1079.33V1079.33ZM1130.02 1084.63L1072.4 1030.1C1069.15 1027.02 1069.01 1021.92 1072.08 1018.67C1075.14 1015.44 1080.28 1015.3 1083.51 1018.35L1141.14 1072.89C1137.64 1075.59 1132.53 1080.99 1130.02 1084.63ZM1150.58 1065.12L1091.85 1009.54C1089.76 1007.56 1087.36 1006.13 1084.81 1005.22L1133.22 954.068C1136.29 950.82 1141.4 950.679 1144.65 953.753L1203.37 1009.33L1150.58 1065.12Z" fill="#521E95"/>
<path d="M981.037 915.809L1044.95 848.274C1046.48 846.659 1046.41 844.087 1044.79 842.559L980.193 781.426C972.081 773.749 959.293 774.102 951.617 782.213L890.484 846.812C882.807 854.924 883.16 867.711 891.272 875.388L955.871 936.521C957.486 938.049 960.057 937.978 961.586 936.363L964.364 933.427C965.719 931.996 965.82 929.83 964.724 928.305C966.211 925.19 972.914 918.106 975.943 916.45C977.562 917.46 979.682 917.241 981.037 915.809V915.809ZM957.233 921.112L899.608 866.579C896.36 863.505 896.219 858.397 899.293 855.149C902.349 851.919 907.493 851.777 910.723 854.834L968.348 909.367C964.848 912.073 959.742 917.469 957.233 921.112ZM977.786 901.6L919.059 846.025C916.967 844.045 914.568 842.61 912.023 841.697L960.426 790.55C963.5 787.301 968.608 787.161 971.856 790.235L1030.58 845.81L977.786 901.6ZM955.649 857.17C955.713 858.83 957.108 860.15 958.769 860.122L984.476 859.646C991.943 859.512 997.679 852.973 996.683 845.386C995.688 837.8 988.559 834.01 983.003 834.11L980.377 834.165L980.287 831.54C980.102 826.111 975.994 819.093 968.274 818.502C960.626 817.908 954.431 824.013 954.709 831.476L955.649 857.17V857.17Z" fill="#521E95"/>
<path d="M809.29 751.187L873.202 683.652C874.73 682.037 874.659 679.465 873.044 677.937L808.445 616.804C800.334 609.127 787.546 609.48 779.87 617.591L718.737 682.19C711.06 690.302 711.413 703.09 719.524 710.766L784.123 771.899C785.738 773.427 788.31 773.357 789.838 771.742L792.617 768.805C793.972 767.374 794.073 765.208 792.976 763.684C794.463 760.568 801.167 753.485 804.196 751.828C805.814 752.838 807.935 752.619 809.29 751.187V751.187ZM785.486 756.491L727.861 701.957C724.612 698.883 724.471 693.775 727.546 690.527C730.602 687.297 735.746 687.155 738.976 690.212L796.601 744.745C793.101 747.451 787.995 752.847 785.486 756.491ZM806.038 736.978L747.312 681.403C745.22 679.423 742.821 677.988 740.276 677.075L788.679 625.928C791.753 622.68 796.861 622.539 800.109 625.613L858.835 681.188L806.038 736.978ZM792.475 694.458L788.105 708.876L802.26 703.719L816.681 708.088L811.524 693.93L815.893 679.512L801.739 684.669L787.318 680.3L792.475 694.458ZM788.392 667.402L798.3 663.792L808.395 666.85L804.785 656.939L807.844 646.847L797.934 650.456L787.841 647.399L791.449 657.308L788.392 667.402Z" fill="#521E95"/>
<path d="M906.184 302.694L970.096 235.158C970.833 234.38 971.23 233.34 971.201 232.268C971.171 231.197 970.717 230.18 969.939 229.443L905.34 168.31C901.446 164.625 896.248 162.638 890.889 162.786C885.53 162.934 880.449 165.204 876.764 169.098L815.631 233.697C811.946 237.591 809.959 242.789 810.107 248.148C810.254 253.507 812.525 258.587 816.419 262.272L881.017 323.406C881.796 324.142 882.836 324.54 883.908 324.51C884.979 324.481 885.996 324.027 886.733 323.248L889.511 320.312C890.155 319.632 890.543 318.749 890.608 317.815C890.674 316.881 890.413 315.953 889.871 315.19C891.358 312.075 898.061 304.991 901.09 303.335C901.882 303.834 902.823 304.044 903.752 303.927C904.681 303.81 905.541 303.374 906.184 302.694V302.694ZM882.38 307.997L824.755 253.463C823.197 251.989 822.289 249.957 822.23 247.814C822.171 245.67 822.966 243.591 824.44 242.033C825.914 240.476 827.946 239.567 830.09 239.508C832.233 239.449 834.312 240.244 835.87 241.718L893.495 296.252C889.995 298.958 884.889 304.353 882.38 307.997ZM902.933 288.485L844.206 232.909C842.187 230.994 839.79 229.52 837.17 228.581L885.573 177.434C887.047 175.877 889.079 174.968 891.223 174.909C893.366 174.85 895.446 175.645 897.003 177.119L955.73 232.695L902.933 288.485ZM876.714 219.144L886.991 228.87L877.265 239.147C876.897 239.537 876.698 240.056 876.713 240.592C876.727 241.128 876.954 241.636 877.344 242.005L886.153 250.341C886.542 250.71 887.062 250.908 887.598 250.894C888.134 250.879 888.642 250.652 889.01 250.262L898.736 239.985L909.013 249.711C909.403 250.079 909.922 250.278 910.458 250.263C910.994 250.249 911.502 250.022 911.871 249.632L920.207 240.823C920.576 240.434 920.774 239.914 920.76 239.378C920.745 238.842 920.518 238.334 920.128 237.966L909.851 228.24L919.577 217.963C919.945 217.573 920.144 217.054 920.129 216.518C920.115 215.982 919.888 215.474 919.498 215.105L910.689 206.769C910.3 206.4 909.78 206.202 909.244 206.216C908.708 206.231 908.2 206.458 907.832 206.848L898.106 217.125L887.829 207.399C887.439 207.031 886.92 206.832 886.384 206.847C885.848 206.861 885.34 207.088 884.971 207.478L876.635 216.287C876.266 216.676 876.068 217.196 876.083 217.732C876.097 218.268 876.324 218.776 876.714 219.144Z" fill="#521E95"/>
<path d="M688.679 68.904L686.65 72.6329C686.09 73.6617 686.435 74.889 687.419 75.3749L710.582 86.8205L723.284 109.316C723.824 110.272 725.068 110.548 726.065 109.933L729.676 107.701C730.672 107.085 731.045 105.81 730.504 104.852L724.09 93.4956L735.783 99.2734C736.769 99.761 738.021 99.3208 738.582 98.2901L740.611 94.5612C741.171 93.5323 740.826 92.305 739.842 91.8192L716.681 80.3753L703.979 57.8798C703.44 56.9242 702.195 56.6475 701.199 57.263L697.587 59.4948C696.591 60.1103 696.219 61.386 696.76 62.3434L703.173 73.7002L691.48 67.9224C690.494 67.4348 689.241 67.8733 688.679 68.904V68.904ZM718.211 61.114L715.938 63.5163C714.403 65.1386 714.473 67.6961 716.095 69.2314L727.841 80.3465C729.463 81.8818 732.02 81.8113 733.556 80.189L735.829 77.7867C741.403 78.9986 746.919 77.8313 750.543 74.0013C756.683 67.5138 755.085 56.035 746.977 48.3621C738.869 40.6892 727.32 39.726 721.18 46.2134C717.556 50.0435 716.694 55.6151 718.211 61.114ZM744.513 62.7286C746.136 64.2639 746.206 66.8214 744.671 68.4437C743.136 70.066 740.578 70.1365 738.956 68.6012C737.333 67.066 737.263 64.5085 738.798 62.8861C740.333 61.2638 742.891 61.1933 744.513 62.7286ZM732.768 51.6135C734.39 53.1488 734.461 55.7063 732.926 57.3286C731.39 58.9509 728.833 59.0214 727.21 57.4861C725.588 55.9508 725.518 53.3933 727.053 51.771C728.588 50.1487 731.146 50.0782 732.768 51.6135ZM732.352 140.276L796.264 72.741C797.793 71.126 797.722 68.5542 796.107 67.0259L731.508 5.89269C723.396 -1.7837 710.609 -1.43121 702.932 6.68036L641.799 71.2793C634.123 79.3909 634.475 92.1784 642.587 99.8548L707.186 160.988C708.801 162.516 711.372 162.445 712.901 160.83L715.68 157.894C717.034 156.463 717.135 154.297 716.039 152.773C717.526 149.657 724.23 142.573 727.258 140.917C728.877 141.927 730.998 141.708 732.352 140.276V140.276ZM708.548 145.579L650.923 91.0459C647.675 87.9718 647.534 82.864 650.608 79.6157C653.665 76.3857 658.808 76.2439 662.038 79.3006L719.663 133.834C716.163 136.54 711.057 141.936 708.548 145.579ZM729.101 126.067L670.375 70.4917C668.282 68.5118 665.884 67.0765 663.338 66.1637L711.741 15.0167C714.815 11.7684 719.923 11.6276 723.171 14.7016L781.898 70.2773L729.101 126.067Z" fill="#521E95"/>
<path d="M559.562 -23.2433L623.474 -90.7785C625.003 -92.3935 624.932 -94.9653 623.317 -96.4936L558.718 -157.627C550.606 -165.303 537.819 -164.951 530.142 -156.839L469.009 -92.2402C461.333 -84.1286 461.685 -71.3411 469.797 -63.6647L534.396 -2.53151C536.011 -1.00318 538.582 -1.07407 540.111 -2.68904L542.89 -5.62536C544.244 -7.05681 544.345 -9.22227 543.249 -10.747C544.736 -13.8622 551.44 -20.9461 554.468 -22.6024C556.087 -21.5925 558.208 -21.8118 559.562 -23.2433V-23.2433ZM535.758 -17.9401L478.133 -72.4737C474.885 -75.5477 474.744 -80.6556 477.818 -83.9039C480.875 -87.1338 486.018 -87.2756 489.248 -84.2189L546.873 -29.6853C543.373 -26.9794 538.267 -21.5839 535.758 -17.9401ZM556.311 -37.4522L497.585 -93.0279C495.492 -95.0078 493.094 -96.443 490.548 -97.3559L538.951 -148.503C542.025 -151.751 547.133 -151.892 550.381 -148.818L609.108 -93.2423L556.311 -37.4522ZM534.174 -81.8827C534.238 -80.2222 535.633 -78.9023 537.294 -78.9302L563.001 -79.4064C570.468 -79.5408 576.204 -86.0796 575.208 -93.6662C574.213 -101.253 567.084 -105.042 561.528 -104.942L558.902 -104.888L558.812 -107.513C558.627 -112.941 554.519 -119.959 546.799 -120.551C539.151 -121.144 532.957 -115.04 533.234 -107.576L534.174 -81.8827V-81.8827Z" fill="#521E95"/>
<path d="M1820.14 894.392L1884.06 826.857C1884.79 826.078 1885.19 825.039 1885.16 823.967C1885.13 822.895 1884.68 821.879 1883.9 821.142L1819.3 760.009C1815.41 756.324 1810.21 754.337 1804.85 754.485C1799.49 754.632 1794.41 756.903 1790.72 760.797L1729.59 825.396C1725.91 829.289 1723.92 834.487 1724.07 839.846C1724.21 845.205 1726.48 850.286 1730.38 853.971L1794.98 915.104C1795.76 915.841 1796.8 916.239 1797.87 916.209C1798.94 916.18 1799.96 915.725 1800.69 914.947L1803.47 912.01C1804.12 911.33 1804.5 910.448 1804.57 909.514C1804.63 908.58 1804.37 907.652 1803.83 906.889C1805.32 903.774 1812.02 896.69 1815.05 895.033C1815.84 895.533 1816.78 895.742 1817.71 895.625C1818.64 895.509 1819.5 895.073 1820.14 894.392V894.392ZM1796.34 899.696L1738.71 845.162C1737.16 843.688 1736.25 841.656 1736.19 839.512C1736.13 837.369 1736.93 835.289 1738.4 833.732C1739.87 832.174 1741.91 831.266 1744.05 831.207C1746.19 831.148 1748.27 831.943 1749.83 833.417L1807.46 887.95C1803.96 890.656 1798.85 896.052 1796.34 899.696ZM1816.89 880.184L1758.17 824.608C1756.15 822.693 1753.75 821.219 1751.13 820.28L1799.53 769.133C1801.01 767.575 1803.04 766.667 1805.18 766.608C1807.33 766.549 1809.41 767.344 1810.96 768.818L1869.69 824.393L1816.89 880.184ZM1790.67 810.843L1800.95 820.569L1791.23 830.846C1790.86 831.235 1790.66 831.755 1790.67 832.291C1790.69 832.827 1790.91 833.335 1791.3 833.703L1800.11 842.04C1800.5 842.408 1801.02 842.607 1801.56 842.592C1802.09 842.577 1802.6 842.35 1802.97 841.961L1812.7 831.684L1822.97 841.41C1823.36 841.778 1823.88 841.977 1824.42 841.962C1824.95 841.947 1825.46 841.72 1825.83 841.331L1834.17 832.522C1834.54 832.133 1834.73 831.613 1834.72 831.077C1834.7 830.541 1834.48 830.033 1834.09 829.664L1823.81 819.939L1833.54 809.662C1833.91 809.272 1834.1 808.752 1834.09 808.216C1834.07 807.681 1833.85 807.172 1833.46 806.804L1824.65 798.468C1824.26 798.099 1823.74 797.9 1823.2 797.915C1822.67 797.93 1822.16 798.157 1821.79 798.546L1812.07 808.824L1801.79 799.098C1801.4 798.729 1800.88 798.531 1800.34 798.545C1799.81 798.56 1799.3 798.787 1798.93 799.177L1790.59 807.986C1790.23 808.375 1790.03 808.895 1790.04 809.431C1790.06 809.967 1790.28 810.475 1790.67 810.843Z" fill="#521E95"/>
<path d="M1602.64 660.602L1600.61 664.331C1600.05 665.359 1600.39 666.587 1601.38 667.073L1624.54 678.518L1637.24 701.014C1637.78 701.969 1639.03 702.246 1640.02 701.631L1643.64 699.399C1644.63 698.783 1645 697.508 1644.46 696.55L1638.05 685.193L1649.74 690.971C1650.73 691.459 1651.98 691.019 1652.54 689.988L1654.57 686.259C1655.13 685.23 1654.79 684.003 1653.8 683.517L1630.64 672.073L1617.94 649.578C1617.4 648.622 1616.15 648.345 1615.16 648.961L1611.55 651.193C1610.55 651.808 1610.18 653.084 1610.72 654.041L1617.13 665.398L1605.44 659.62C1604.45 659.133 1603.2 659.571 1602.64 660.602V660.602ZM1632.17 652.812L1629.9 655.214C1628.36 656.836 1628.43 659.394 1630.05 660.929L1641.8 672.044C1643.42 673.58 1645.98 673.509 1647.52 671.887L1649.79 669.484C1655.36 670.696 1660.88 669.529 1664.5 665.699C1670.64 659.212 1669.04 647.733 1660.94 640.06C1652.83 632.387 1641.28 631.424 1635.14 637.911C1631.52 641.741 1630.65 647.313 1632.17 652.812ZM1658.47 654.426C1660.1 655.962 1660.17 658.519 1658.63 660.141C1657.1 661.764 1654.54 661.834 1652.92 660.299C1651.29 658.764 1651.22 656.206 1652.76 654.584C1654.29 652.962 1656.85 652.891 1658.47 654.426ZM1646.73 643.311C1648.35 644.847 1648.42 647.404 1646.89 649.026C1645.35 650.649 1642.79 650.719 1641.17 649.184C1639.55 647.649 1639.48 645.091 1641.01 643.469C1642.55 641.846 1645.11 641.776 1646.73 643.311ZM1646.31 731.974L1710.22 664.439C1711.75 662.824 1711.68 660.252 1710.07 658.724L1645.47 597.59C1637.36 589.914 1624.57 590.267 1616.89 598.378L1555.76 662.977C1548.08 671.089 1548.43 683.876 1556.55 691.553L1621.15 752.686C1622.76 754.214 1625.33 754.143 1626.86 752.528L1629.64 749.592C1630.99 748.16 1631.09 745.995 1630 744.47C1631.49 741.355 1638.19 734.271 1641.22 732.615C1642.84 733.625 1644.96 733.405 1646.31 731.974V731.974ZM1622.51 737.277L1564.88 682.744C1561.63 679.67 1561.49 674.562 1564.57 671.313C1567.62 668.083 1572.77 667.942 1576 670.998L1633.62 725.532C1630.12 728.238 1625.02 733.633 1622.51 737.277ZM1643.06 717.765L1584.33 662.189C1582.24 660.21 1579.84 658.774 1577.3 657.861L1625.7 606.714C1628.77 603.466 1633.88 603.325 1637.13 606.399L1695.86 661.975L1643.06 717.765Z" fill="#521E95"/>
<path d="M1473.52 568.455L1537.43 500.92C1538.96 499.305 1538.89 496.733 1537.28 495.205L1472.68 434.072C1464.57 426.395 1451.78 426.748 1444.1 434.859L1382.97 499.458C1375.29 507.57 1375.65 520.357 1383.76 528.034L1448.36 589.167C1449.97 590.695 1452.54 590.624 1454.07 589.009L1456.85 586.073C1458.2 584.642 1458.31 582.476 1457.21 580.951C1458.7 577.836 1465.4 570.752 1468.43 569.096C1470.05 570.106 1472.17 569.887 1473.52 568.455V568.455ZM1449.72 573.758L1392.09 519.225C1388.84 516.151 1388.7 511.043 1391.78 507.795C1394.83 504.565 1399.98 504.423 1403.21 507.48L1460.83 562.013C1457.33 564.719 1452.23 570.115 1449.72 573.758ZM1470.27 554.246L1411.54 498.671C1409.45 496.691 1407.05 495.256 1404.51 494.343L1452.91 443.196C1455.99 439.947 1461.09 439.807 1464.34 442.881L1523.07 498.456L1470.27 554.246ZM1448.13 509.816C1448.2 511.476 1449.59 512.796 1451.25 512.768L1476.96 512.292C1484.43 512.158 1490.16 505.619 1489.17 498.032C1488.17 490.446 1481.04 486.656 1475.49 486.756L1472.86 486.811L1472.77 484.186C1472.59 478.757 1468.48 471.739 1460.76 471.148C1453.11 470.554 1446.92 476.659 1447.19 484.122L1448.13 509.816V509.816Z" fill="#521E95"/>
<path d="M1301.77 403.834L1365.69 336.299C1367.21 334.684 1367.14 332.112 1365.53 330.584L1300.93 269.451C1292.82 261.774 1280.03 262.127 1272.35 270.238L1211.22 334.837C1203.54 342.949 1203.9 355.736 1212.01 363.413L1276.61 424.546C1278.22 426.074 1280.79 426.003 1282.32 424.388L1285.1 421.452C1286.46 420.021 1286.56 417.855 1285.46 416.33C1286.95 413.215 1293.65 406.131 1296.68 404.475C1298.3 405.485 1300.42 405.266 1301.77 403.834V403.834ZM1277.97 409.137L1220.35 354.604C1217.1 351.53 1216.96 346.422 1220.03 343.174C1223.09 339.944 1228.23 339.802 1231.46 342.858L1289.09 397.392C1285.59 400.098 1280.48 405.494 1277.97 409.137ZM1298.52 389.625L1239.8 334.05C1237.7 332.07 1235.31 330.634 1232.76 329.722L1281.16 278.575C1284.24 275.326 1289.35 275.185 1292.59 278.259L1351.32 333.835L1298.52 389.625ZM1284.96 347.105L1280.59 361.522L1294.74 356.365L1309.17 360.735L1304.01 346.576L1308.38 332.159L1294.22 337.316L1279.8 332.947L1284.96 347.105ZM1280.88 320.048L1290.78 316.438L1300.88 319.497L1297.27 309.586L1300.33 299.494L1290.42 303.103L1280.33 300.046L1283.93 309.955L1280.88 320.048Z" fill="#521E95"/>
<path d="M1127.94 241.416L1191.85 173.881C1192.59 173.102 1192.99 172.062 1192.96 170.99C1192.93 169.919 1192.48 168.903 1191.7 168.166L1127.1 107.032C1123.2 103.347 1118.01 101.36 1112.65 101.508C1107.29 101.656 1102.21 103.926 1098.52 107.82L1037.39 172.419C1033.7 176.313 1031.72 181.511 1031.86 186.87C1032.01 192.229 1034.28 197.31 1038.18 200.994L1102.78 262.128C1103.55 262.865 1104.59 263.262 1105.67 263.233C1106.74 263.203 1107.75 262.749 1108.49 261.97L1111.27 259.034C1111.91 258.354 1112.3 257.471 1112.37 256.537C1112.43 255.603 1112.17 254.675 1111.63 253.912C1113.12 250.797 1119.82 243.713 1122.85 242.057C1123.64 242.556 1124.58 242.766 1125.51 242.649C1126.44 242.532 1127.3 242.096 1127.94 241.416V241.416ZM1104.14 246.719L1046.51 192.186C1044.96 190.712 1044.05 188.679 1043.99 186.536C1043.93 184.392 1044.72 182.313 1046.2 180.755C1047.67 179.198 1049.7 178.29 1051.85 178.231C1053.99 178.171 1056.07 178.966 1057.63 180.44L1115.25 234.974C1111.75 237.68 1106.65 243.075 1104.14 246.719ZM1124.69 227.207L1065.96 171.631C1063.94 169.716 1061.55 168.242 1058.93 167.303L1107.33 116.156C1108.81 114.599 1110.84 113.691 1112.98 113.632C1115.12 113.572 1117.2 114.367 1118.76 115.841L1177.49 171.417L1124.69 227.207ZM1098.47 157.867L1108.75 167.592L1099.02 177.869C1098.65 178.259 1098.46 178.779 1098.47 179.314C1098.49 179.85 1098.71 180.358 1099.1 180.727L1107.91 189.063C1108.3 189.432 1108.82 189.63 1109.36 189.616C1109.89 189.601 1110.4 189.374 1110.77 188.984L1120.49 178.707L1130.77 188.433C1131.16 188.802 1131.68 189 1132.22 188.986C1132.75 188.971 1133.26 188.744 1133.63 188.354L1141.97 179.545C1142.33 179.156 1142.53 178.636 1142.52 178.1C1142.5 177.564 1142.28 177.056 1141.89 176.688L1131.61 166.962L1141.34 156.685C1141.7 156.296 1141.9 155.776 1141.89 155.24C1141.87 154.704 1141.65 154.196 1141.26 153.827L1132.45 145.491C1132.06 145.123 1131.54 144.924 1131 144.939C1130.47 144.953 1129.96 145.18 1129.59 145.57L1119.86 155.847L1109.59 146.121C1109.2 145.753 1108.68 145.554 1108.14 145.569C1107.61 145.584 1107.1 145.811 1106.73 146.2L1098.39 155.009C1098.02 155.398 1097.83 155.918 1097.84 156.454C1097.86 156.99 1098.08 157.498 1098.47 157.867Z" fill="#521E95"/>
<path d="M910.438 7.62516L908.408 11.3541C907.848 12.3829 908.193 13.6102 909.177 14.0961L932.34 25.5417L945.042 48.0371C945.582 48.9928 946.826 49.2695 947.823 48.654L951.434 46.4222C952.43 45.8067 952.803 44.531 952.262 43.5736L945.848 32.2168L957.541 37.9946C958.527 38.4822 959.779 38.0419 960.34 37.0113L962.37 33.2824C962.929 32.2535 962.584 31.0262 961.6 30.5404L938.439 19.0965L925.737 -3.39898C925.198 -4.35463 923.953 -4.63132 922.957 -4.01583L919.345 -1.784C918.349 -1.1685 917.977 0.107185 918.518 1.06457L924.931 12.4214L913.238 6.64358C912.252 6.156 910.999 6.59449 910.438 7.62516V7.62516ZM939.969 -0.164804L937.696 2.23747C936.161 3.85978 936.231 6.41729 937.853 7.95257L949.599 19.0677C951.221 20.603 953.778 20.5325 955.314 18.9102L957.587 16.5079C963.161 17.7198 968.677 16.5525 972.302 12.7225C978.441 6.23503 976.843 -5.24381 968.735 -12.9167C960.627 -20.5896 949.078 -21.5528 942.938 -15.0654C939.314 -11.2353 938.452 -5.66369 939.969 -0.164804ZM966.271 1.44979C967.894 2.98507 967.964 5.54258 966.429 7.16489C964.894 8.78721 962.336 8.8577 960.714 7.32243C959.091 5.78715 959.021 3.22964 960.556 1.60733C962.092 -0.0149858 964.649 -0.0854828 966.271 1.44979ZM954.526 -9.66533C956.148 -8.13006 956.219 -5.57255 954.684 -3.95023C953.148 -2.32792 950.591 -2.25742 948.969 -3.7927C947.346 -5.32798 947.276 -7.88548 948.811 -9.5078C950.346 -11.1301 952.904 -11.2006 954.526 -9.66533ZM954.11 78.9975L1018.02 11.4622C1019.55 9.8472 1019.48 7.27541 1017.86 5.74708L953.266 -55.3861C945.154 -63.0625 932.367 -62.71 924.69 -54.5984L863.557 10.0005C855.881 18.1121 856.233 30.8996 864.345 38.576L928.944 99.7092C930.559 101.238 933.131 101.167 934.659 99.5517L937.438 96.6154C938.792 95.1839 938.893 93.0185 937.797 91.4937C939.284 88.3785 945.988 81.2947 949.016 79.6383C950.635 80.6482 952.756 80.4289 954.11 78.9975V78.9975ZM930.306 84.3007L872.681 29.7671C869.433 26.693 869.292 21.5852 872.366 18.3369C875.423 15.1069 880.566 14.9651 883.796 18.0218L941.421 72.5554C937.921 75.2614 932.815 80.6568 930.306 84.3007ZM950.859 64.7885L892.133 9.21285C890.04 7.23297 887.642 5.79774 885.096 4.88487L933.499 -46.2621C936.573 -49.5104 941.681 -49.6512 944.929 -46.5772L1003.66 8.99846L950.859 64.7885Z" fill="#521E95"/>
<path d="M1597.34 956.771L1661.26 889.236C1661.99 888.457 1662.39 887.418 1662.36 886.346C1662.33 885.274 1661.88 884.258 1661.1 883.521L1596.5 822.388C1592.6 818.703 1587.41 816.716 1582.05 816.863C1576.69 817.011 1571.61 819.282 1567.92 823.175L1506.79 887.774C1503.11 891.668 1501.12 896.866 1501.27 902.225C1501.41 907.584 1503.68 912.665 1507.58 916.35L1572.18 977.483C1572.96 978.22 1574 978.618 1575.07 978.588C1576.14 978.558 1577.15 978.104 1577.89 977.326L1580.67 974.389C1581.31 973.709 1581.7 972.827 1581.77 971.893C1581.83 970.959 1581.57 970.031 1581.03 969.268C1582.52 966.152 1589.22 959.069 1592.25 957.412C1593.04 957.912 1593.98 958.121 1594.91 958.004C1595.84 957.887 1596.7 957.452 1597.34 956.771V956.771ZM1573.54 962.075L1515.91 907.541C1514.36 906.067 1513.45 904.035 1513.39 901.891C1513.33 899.748 1514.13 897.668 1515.6 896.111C1517.07 894.553 1519.11 893.645 1521.25 893.586C1523.39 893.527 1525.47 894.322 1527.03 895.796L1584.65 950.329C1581.15 953.035 1576.05 958.431 1573.54 962.075ZM1594.09 942.562L1535.37 886.987C1533.35 885.071 1530.95 883.598 1528.33 882.659L1576.73 831.512C1578.21 829.954 1580.24 829.046 1582.38 828.987C1584.53 828.928 1586.6 829.723 1588.16 831.197L1646.89 886.772L1594.09 942.562ZM1567.87 873.222L1578.15 882.948L1568.42 893.225C1568.06 893.614 1567.86 894.134 1567.87 894.67C1567.89 895.206 1568.11 895.714 1568.5 896.082L1577.31 904.419C1577.7 904.787 1578.22 904.986 1578.76 904.971C1579.29 904.956 1579.8 904.729 1580.17 904.34L1589.9 894.063L1600.17 903.789C1600.56 904.157 1601.08 904.356 1601.62 904.341C1602.15 904.326 1602.66 904.099 1603.03 903.71L1611.37 894.901C1611.73 894.511 1611.93 893.992 1611.92 893.456C1611.9 892.92 1611.68 892.412 1611.29 892.043L1601.01 882.318L1610.74 872.04C1611.1 871.651 1611.3 871.131 1611.29 870.595C1611.27 870.059 1611.05 869.551 1610.66 869.183L1601.85 860.847C1601.46 860.478 1600.94 860.279 1600.4 860.294C1599.87 860.309 1599.36 860.536 1598.99 860.925L1589.27 871.202L1578.99 861.477C1578.6 861.108 1578.08 860.91 1577.54 860.924C1577.01 860.939 1576.5 861.166 1576.13 861.555L1567.79 870.364C1567.43 870.754 1567.23 871.274 1567.24 871.81C1567.26 872.345 1567.48 872.853 1567.87 873.222Z" fill="#521E95"/>
<path d="M1379.84 722.982L1377.81 726.711C1377.25 727.739 1377.59 728.967 1378.58 729.453L1401.74 740.898L1414.44 763.394C1414.98 764.349 1416.23 764.626 1417.22 764.01L1420.83 761.779C1421.83 761.163 1422.2 759.887 1421.66 758.93L1415.25 747.573L1426.94 753.351C1427.93 753.839 1429.18 753.398 1429.74 752.368L1431.77 748.639C1432.33 747.61 1431.98 746.383 1431 745.897L1407.84 734.453L1395.14 711.957C1394.6 711.002 1393.35 710.725 1392.36 711.341L1388.75 713.572C1387.75 714.188 1387.38 715.464 1387.92 716.421L1394.33 727.778L1382.64 722C1381.65 721.512 1380.4 721.951 1379.84 722.982V722.982ZM1409.37 715.192L1407.1 717.594C1405.56 719.216 1405.63 721.774 1407.25 723.309L1419 734.424C1420.62 735.959 1423.18 735.889 1424.71 734.267L1426.99 731.864C1432.56 733.076 1438.08 731.909 1441.7 728.079C1447.84 721.591 1446.24 710.113 1438.14 702.44C1430.03 694.767 1418.48 693.804 1412.34 700.291C1408.71 704.121 1407.85 709.693 1409.37 715.192ZM1435.67 716.806C1437.29 718.342 1437.36 720.899 1435.83 722.521C1434.29 724.144 1431.74 724.214 1430.11 722.679C1428.49 721.144 1428.42 718.586 1429.96 716.964C1431.49 715.341 1434.05 715.271 1435.67 716.806ZM1423.93 705.691C1425.55 707.226 1425.62 709.784 1424.08 711.406C1422.55 713.029 1419.99 713.099 1418.37 711.564C1416.75 710.028 1416.68 707.471 1418.21 705.849C1419.75 704.226 1422.3 704.156 1423.93 705.691ZM1423.51 794.354L1487.42 726.819C1488.95 725.204 1488.88 722.632 1487.27 721.104L1422.67 659.97C1414.55 652.294 1401.77 652.646 1394.09 660.758L1332.96 725.357C1325.28 733.469 1325.63 746.256 1333.75 753.932L1398.34 815.066C1399.96 816.594 1402.53 816.523 1404.06 814.908L1406.84 811.972C1408.19 810.54 1408.29 808.375 1407.2 806.85C1408.68 803.735 1415.39 796.651 1418.42 794.995C1420.04 796.005 1422.16 795.785 1423.51 794.354V794.354ZM1399.71 799.657L1342.08 745.124C1338.83 742.049 1338.69 736.942 1341.77 733.693C1344.82 730.463 1349.97 730.322 1353.2 733.378L1410.82 787.912C1407.32 790.618 1402.22 796.013 1399.71 799.657ZM1420.26 780.145L1361.53 724.569C1359.44 722.589 1357.04 721.154 1354.5 720.241L1402.9 669.094C1405.97 665.846 1411.08 665.705 1414.33 668.779L1473.06 724.355L1420.26 780.145Z" fill="#521E95"/>
<path d="M1250.72 630.835L1314.63 563.3C1316.16 561.685 1316.09 559.113 1314.48 557.585L1249.88 496.452C1241.77 488.775 1228.98 489.128 1221.3 497.239L1160.17 561.838C1152.49 569.95 1152.84 582.737 1160.96 590.414L1225.55 651.547C1227.17 653.075 1229.74 653.004 1231.27 651.389L1234.05 648.453C1235.4 647.022 1235.5 644.856 1234.41 643.331C1235.89 640.216 1242.6 633.132 1245.63 631.476C1247.25 632.486 1249.37 632.267 1250.72 630.835V630.835ZM1226.92 636.138L1169.29 581.605C1166.04 578.531 1165.9 573.423 1168.98 570.175C1172.03 566.945 1177.18 566.803 1180.41 569.859L1238.03 624.393C1234.53 627.099 1229.43 632.494 1226.92 636.138ZM1247.47 616.626L1188.74 561.05C1186.65 559.071 1184.25 557.635 1181.71 556.723L1230.11 505.576C1233.18 502.327 1238.29 502.186 1241.54 505.26L1300.27 560.836L1247.47 616.626ZM1225.33 572.196C1225.4 573.856 1226.79 575.176 1228.45 575.148L1254.16 574.672C1261.63 574.538 1267.36 567.999 1266.37 560.412C1265.37 552.826 1258.24 549.036 1252.69 549.136L1250.06 549.19L1249.97 546.566C1249.79 541.137 1245.68 534.119 1237.96 533.527C1230.31 532.934 1224.12 539.039 1224.39 546.502L1225.33 572.196V572.196Z" fill="#521E95"/>
<path d="M1078.97 466.213L1142.89 398.678C1144.41 397.063 1144.34 394.491 1142.73 392.963L1078.13 331.83C1070.02 324.153 1057.23 324.506 1049.55 332.617L988.42 397.216C980.744 405.328 981.097 418.115 989.208 425.792L1053.81 486.925C1055.42 488.453 1057.99 488.382 1059.52 486.768L1062.3 483.831C1063.66 482.4 1063.76 480.234 1062.66 478.71C1064.15 475.594 1070.85 468.51 1073.88 466.854C1075.5 467.864 1077.62 467.645 1078.97 466.213V466.213ZM1055.17 471.516L997.544 416.983C994.296 413.909 994.155 408.801 997.229 405.553C1000.29 402.323 1005.43 402.181 1008.66 405.238L1066.28 459.771C1062.78 462.477 1057.68 467.873 1055.17 471.516ZM1075.72 452.004L1017 396.429C1014.9 394.449 1012.5 393.014 1009.96 392.101L1058.36 340.954C1061.44 337.705 1066.54 337.565 1069.79 340.639L1128.52 396.214L1075.72 452.004ZM1062.16 409.484L1057.79 423.901L1071.94 418.744L1086.36 423.114L1081.21 408.956L1085.58 394.538L1071.42 399.695L1057 395.326L1062.16 409.484ZM1058.08 382.428L1067.98 378.818L1078.08 381.876L1074.47 371.965L1077.53 361.873L1067.62 365.482L1057.52 362.425L1061.13 372.334L1058.08 382.428Z" fill="#521E95"/>
<path d="M1173.78 19.9232L1237.7 -47.612C1238.43 -48.3908 1238.83 -49.4304 1238.8 -50.5022C1238.77 -51.574 1238.32 -52.5902 1237.54 -53.3271L1172.94 -114.46C1169.05 -118.145 1163.85 -120.132 1158.49 -119.985C1153.13 -119.837 1148.05 -117.566 1144.36 -113.673L1083.23 -49.0737C1079.55 -45.1799 1077.56 -39.9818 1077.71 -34.6228C1077.85 -29.2639 1080.12 -24.1831 1084.02 -20.4982L1148.62 40.635C1149.4 41.372 1150.44 41.7694 1151.51 41.7399C1152.58 41.7103 1153.6 41.2562 1154.33 40.4775L1157.11 37.5411C1157.75 36.8612 1158.14 35.9788 1158.21 35.0447C1158.27 34.1106 1158.01 33.1827 1157.47 32.4195C1158.96 29.3043 1165.66 22.2204 1168.69 20.5641C1169.48 21.0638 1170.42 21.273 1171.35 21.1562C1172.28 21.0393 1173.14 20.6035 1173.78 19.9232V19.9232ZM1149.98 25.2264L1092.35 -29.3072C1090.8 -30.7811 1089.89 -32.8134 1089.83 -34.957C1089.77 -37.1006 1090.57 -39.1798 1092.04 -40.7373C1093.51 -42.2949 1095.55 -43.2031 1097.69 -43.2622C1099.83 -43.3212 1101.91 -42.5264 1103.47 -41.0524L1161.09 13.4812C1157.59 16.1871 1152.49 21.5826 1149.98 25.2264ZM1170.53 5.71426L1111.81 -49.8614C1109.79 -51.7767 1107.39 -53.2506 1104.77 -54.1893L1153.17 -105.336C1154.65 -106.894 1156.68 -107.802 1158.82 -107.861C1160.97 -107.92 1163.05 -107.125 1164.6 -105.651L1223.33 -50.0758L1170.53 5.71426ZM1144.31 -63.6262L1154.59 -53.9004L1144.86 -43.6233C1144.5 -43.2339 1144.3 -42.7141 1144.31 -42.1782C1144.33 -41.6423 1144.55 -41.1343 1144.94 -40.7658L1153.75 -32.4294C1154.14 -32.0609 1154.66 -31.8622 1155.2 -31.877C1155.73 -31.8918 1156.24 -32.1188 1156.61 -32.5082L1166.34 -42.7853L1176.61 -33.0596C1177 -32.6911 1177.52 -32.4924 1178.06 -32.5071C1178.59 -32.5219 1179.1 -32.749 1179.47 -33.1383L1187.81 -41.9473C1188.18 -42.3367 1188.37 -42.8565 1188.36 -43.3924C1188.34 -43.9283 1188.12 -44.4363 1187.73 -44.8048L1177.45 -54.5306L1187.18 -64.8077C1187.55 -65.1971 1187.74 -65.7169 1187.73 -66.2528C1187.71 -66.7887 1187.49 -67.2967 1187.1 -67.6652L1178.29 -76.0016C1177.9 -76.3701 1177.38 -76.5688 1176.84 -76.554C1176.31 -76.5392 1175.8 -76.3122 1175.43 -75.9228L1165.71 -65.6457L1155.43 -75.3714C1155.04 -75.7399 1154.52 -75.9386 1153.98 -75.9239C1153.45 -75.9091 1152.94 -75.682 1152.57 -75.2927L1144.23 -66.4837C1143.87 -66.0943 1143.67 -65.5745 1143.68 -65.0386C1143.7 -64.5027 1143.92 -63.9947 1144.31 -63.6262Z" fill="#521E95"/>
<path d="M1870.24 377.832L1868.21 381.561C1867.65 382.59 1867.99 383.817 1868.98 384.303L1892.14 395.749L1904.84 418.244C1905.38 419.2 1906.63 419.477 1907.62 418.861L1911.24 416.629C1912.23 416.014 1912.6 414.738 1912.06 413.781L1905.65 402.424L1917.34 408.202C1918.33 408.689 1919.58 408.249 1920.14 407.218L1922.17 403.489C1922.73 402.461 1922.39 401.233 1921.4 400.747L1898.24 389.304L1885.54 366.808C1885 365.852 1883.75 365.576 1882.76 366.191L1879.15 368.423C1878.15 369.039 1877.78 370.314 1878.32 371.272L1884.73 382.628L1873.04 376.851C1872.05 376.363 1870.8 376.802 1870.24 377.832V377.832ZM1899.77 370.042L1897.5 372.445C1895.96 374.067 1896.03 376.624 1897.65 378.16L1909.4 389.275C1911.02 390.81 1913.58 390.74 1915.12 389.117L1917.39 386.715C1922.96 387.927 1928.48 386.76 1932.1 382.929C1938.24 376.442 1936.64 364.963 1928.54 357.29C1920.43 349.617 1908.88 348.654 1902.74 355.142C1899.12 358.972 1898.25 364.543 1899.77 370.042ZM1926.07 371.657C1927.7 373.192 1927.77 375.75 1926.23 377.372C1924.7 378.994 1922.14 379.065 1920.52 377.529C1918.89 375.994 1918.82 373.437 1920.36 371.814C1921.89 370.192 1924.45 370.122 1926.07 371.657ZM1914.33 360.542C1915.95 362.077 1916.02 364.634 1914.49 366.257C1912.95 367.879 1910.39 367.95 1908.77 366.414C1907.15 364.879 1907.08 362.322 1908.61 360.699C1910.15 359.077 1912.71 359.006 1914.33 360.542ZM1913.91 449.204L1977.82 381.669C1979.35 380.054 1979.28 377.482 1977.67 375.954L1913.07 314.821C1904.96 307.145 1892.17 307.497 1884.49 315.609L1823.36 380.208C1815.68 388.319 1816.03 401.107 1824.15 408.783L1888.75 469.916C1890.36 471.445 1892.93 471.374 1894.46 469.759L1897.24 466.822C1898.59 465.391 1898.69 463.225 1897.6 461.701C1899.09 458.586 1905.79 451.502 1908.82 449.845C1910.44 450.855 1912.56 450.636 1913.91 449.204V449.204ZM1890.11 454.508L1832.48 399.974C1829.23 396.9 1829.09 391.792 1832.17 388.544C1835.22 385.314 1840.37 385.172 1843.6 388.229L1901.22 442.762C1897.72 445.468 1892.62 450.864 1890.11 454.508ZM1910.66 434.996L1851.93 379.42C1849.84 377.44 1847.44 376.005 1844.9 375.092L1893.3 323.945C1896.37 320.697 1901.48 320.556 1904.73 323.63L1963.46 379.205L1910.66 434.996Z" fill="#521E95"/>
<path d="M1741.12 285.685L1805.03 218.149C1806.56 216.534 1806.49 213.963 1804.88 212.434L1740.28 151.301C1732.17 143.625 1719.38 143.977 1711.7 152.089L1650.57 216.688C1642.89 224.799 1643.24 237.587 1651.36 245.263L1715.96 306.396C1717.57 307.925 1720.14 307.854 1721.67 306.239L1724.45 303.303C1725.8 301.871 1725.9 299.706 1724.81 298.181C1726.3 295.066 1733 287.982 1736.03 286.326C1737.65 287.335 1739.77 287.116 1741.12 285.685V285.685ZM1717.32 290.988L1659.69 236.454C1656.44 233.38 1656.3 228.272 1659.38 225.024C1662.43 221.794 1667.58 221.652 1670.81 224.709L1728.43 279.243C1724.93 281.949 1719.83 287.344 1717.32 290.988ZM1737.87 271.476L1679.14 215.9C1677.05 213.92 1674.65 212.485 1672.11 211.572L1720.51 160.425C1723.58 157.177 1728.69 157.036 1731.94 160.11L1790.67 215.686L1737.87 271.476ZM1715.73 227.045C1715.8 228.706 1717.19 230.026 1718.85 229.998L1744.56 229.522C1752.03 229.387 1757.76 222.848 1756.77 215.262C1755.77 207.675 1748.64 203.886 1743.09 203.986L1740.46 204.04L1740.37 201.415C1740.19 195.987 1736.08 188.969 1728.36 188.377C1720.71 187.784 1714.52 193.888 1714.79 201.352L1715.73 227.045V227.045Z" fill="#521E95"/>
<path d="M1569.37 121.064L1633.29 53.5286C1634.81 51.9136 1634.74 49.3418 1633.13 47.8135L1568.53 -13.3197C1560.42 -20.9961 1547.63 -20.6436 1539.95 -12.532L1478.82 52.0669C1471.14 60.1785 1471.5 72.966 1479.61 80.6424L1544.21 141.776C1545.82 143.304 1548.39 143.233 1549.92 141.618L1552.7 138.682C1554.06 137.25 1554.16 135.085 1553.06 133.56C1554.55 130.445 1561.25 123.361 1564.28 121.705C1565.9 122.715 1568.02 122.495 1569.37 121.064V121.064ZM1545.57 126.367L1487.94 71.8335C1484.7 68.7594 1484.56 63.6516 1487.63 60.4033C1490.69 57.1733 1495.83 57.0315 1499.06 60.0882L1556.69 114.622C1553.19 117.328 1548.08 122.723 1545.57 126.367ZM1566.12 106.855L1507.4 51.2793C1505.3 49.2994 1502.91 47.8641 1500.36 46.9513L1548.76 -4.19569C1551.84 -7.44399 1556.94 -7.58479 1560.19 -4.51076L1618.92 51.0649L1566.12 106.855ZM1552.56 64.3347L1548.19 78.752L1562.34 73.595L1576.77 77.9643L1571.61 63.8061L1575.98 49.3888L1561.82 54.5458L1547.4 50.1765L1552.56 64.3347ZM1548.48 37.2782L1558.38 33.6681L1568.48 36.7268L1564.87 26.8155L1567.93 16.7239L1558.02 20.3322L1547.92 17.2753L1551.53 27.1849L1548.48 37.2782Z" fill="#521E95"/>
<path d="M1864.94 674.002L1928.86 606.467C1929.59 605.688 1929.99 604.648 1929.96 603.576C1929.93 602.505 1929.48 601.488 1928.7 600.751L1864.1 539.618C1860.21 535.933 1855.01 533.946 1849.65 534.094C1844.29 534.242 1839.21 536.512 1835.52 540.406L1774.39 605.005C1770.71 608.899 1768.72 614.097 1768.87 619.456C1769.01 624.815 1771.28 629.896 1775.18 633.58L1839.78 694.714C1840.56 695.451 1841.6 695.848 1842.67 695.818C1843.74 695.789 1844.75 695.335 1845.49 694.556L1848.27 691.62C1848.91 690.94 1849.3 690.057 1849.37 689.123C1849.43 688.189 1849.17 687.261 1848.63 686.498C1850.12 683.383 1856.82 676.299 1859.85 674.643C1860.64 675.142 1861.58 675.352 1862.51 675.235C1863.44 675.118 1864.3 674.682 1864.94 674.002V674.002ZM1841.14 679.305L1783.51 624.771C1781.96 623.298 1781.05 621.265 1780.99 619.122C1780.93 616.978 1781.73 614.899 1783.2 613.341C1784.67 611.784 1786.71 610.876 1788.85 610.816C1790.99 610.757 1793.07 611.552 1794.63 613.026L1852.25 667.56C1848.75 670.266 1843.65 675.661 1841.14 679.305ZM1861.69 659.793L1802.97 604.217C1800.95 602.302 1798.55 600.828 1795.93 599.889L1844.33 548.742C1845.81 547.185 1847.84 546.277 1849.98 546.217C1852.13 546.158 1854.2 546.953 1855.76 548.427L1914.49 604.003L1861.69 659.793ZM1835.47 590.452L1845.75 600.178L1836.02 610.455C1835.66 610.845 1835.46 611.364 1835.47 611.9C1835.49 612.436 1835.71 612.944 1836.1 613.313L1844.91 621.649C1845.3 622.018 1845.82 622.216 1846.36 622.202C1846.89 622.187 1847.4 621.96 1847.77 621.57L1857.5 611.293L1867.77 621.019C1868.16 621.388 1868.68 621.586 1869.22 621.571C1869.75 621.557 1870.26 621.33 1870.63 620.94L1878.97 612.131C1879.33 611.742 1879.53 611.222 1879.52 610.686C1879.5 610.15 1879.28 609.642 1878.89 609.274L1868.61 599.548L1878.34 589.271C1878.7 588.882 1878.9 588.362 1878.89 587.826C1878.87 587.29 1878.65 586.782 1878.26 586.413L1869.45 578.077C1869.06 577.709 1868.54 577.51 1868 577.525C1867.47 577.539 1866.96 577.766 1866.59 578.156L1856.87 588.433L1846.59 578.707C1846.2 578.339 1845.68 578.14 1845.14 578.155C1844.61 578.17 1844.1 578.397 1843.73 578.786L1835.39 587.595C1835.03 587.984 1834.83 588.504 1834.84 589.04C1834.86 589.576 1835.08 590.084 1835.47 590.452Z" fill="#521E95"/>
<path d="M1647.44 440.211L1645.41 443.94C1644.85 444.969 1645.19 446.196 1646.18 446.682L1669.34 458.128L1682.04 480.623C1682.58 481.579 1683.83 481.856 1684.82 481.24L1688.43 479.008C1689.43 478.393 1689.8 477.117 1689.26 476.16L1682.85 464.803L1694.54 470.581C1695.53 471.068 1696.78 470.628 1697.34 469.597L1699.37 465.869C1699.93 464.84 1699.58 463.612 1698.6 463.127L1675.44 451.683L1662.74 429.187C1662.2 428.232 1660.95 427.955 1659.96 428.57L1656.35 430.802C1655.35 431.418 1654.98 432.693 1655.52 433.651L1661.93 445.008L1650.24 439.23C1649.25 438.742 1648 439.181 1647.44 440.211V440.211ZM1676.97 432.421L1674.7 434.824C1673.16 436.446 1673.23 439.003 1674.85 440.539L1686.6 451.654C1688.22 453.189 1690.78 453.119 1692.31 451.496L1694.59 449.094C1700.16 450.306 1705.68 449.139 1709.3 445.309C1715.44 438.821 1713.84 427.342 1705.74 419.669C1697.63 411.997 1686.08 411.033 1679.94 417.521C1676.31 421.351 1675.45 426.922 1676.97 432.421ZM1703.27 434.036C1704.89 435.571 1704.96 438.129 1703.43 439.751C1701.89 441.373 1699.34 441.444 1697.71 439.909C1696.09 438.373 1696.02 435.816 1697.56 434.194C1699.09 432.571 1701.65 432.501 1703.27 434.036ZM1691.53 422.921C1693.15 424.456 1693.22 427.014 1691.68 428.636C1690.15 430.258 1687.59 430.329 1685.97 428.793C1684.35 427.258 1684.28 424.701 1685.81 423.078C1687.35 421.456 1689.9 421.386 1691.53 422.921ZM1691.11 511.584L1755.02 444.048C1756.55 442.433 1756.48 439.862 1754.87 438.333L1690.27 377.2C1682.15 369.524 1669.37 369.876 1661.69 377.988L1600.56 442.587C1592.88 450.698 1593.23 463.486 1601.35 471.162L1665.94 532.295C1667.56 533.824 1670.13 533.753 1671.66 532.138L1674.44 529.202C1675.79 527.77 1675.89 525.605 1674.8 524.08C1676.28 520.965 1682.99 513.881 1686.02 512.225C1687.64 513.234 1689.76 513.015 1691.11 511.584V511.584ZM1667.31 516.887L1609.68 462.353C1606.43 459.279 1606.29 454.171 1609.37 450.923C1612.42 447.693 1617.57 447.551 1620.8 450.608L1678.42 505.142C1674.92 507.848 1669.82 513.243 1667.31 516.887ZM1687.86 497.375L1629.13 441.799C1627.04 439.819 1624.64 438.384 1622.1 437.471L1670.5 386.324C1673.57 383.076 1678.68 382.935 1681.93 386.009L1740.66 441.585L1687.86 497.375Z" fill="#521E95"/>
<path d="M1518.32 348.064L1582.23 280.529C1583.76 278.914 1583.69 276.342 1582.07 274.813L1517.48 213.68C1509.36 206.004 1496.58 206.356 1488.9 214.468L1427.77 279.067C1420.09 287.179 1420.44 299.966 1428.56 307.642L1493.15 368.776C1494.77 370.304 1497.34 370.233 1498.87 368.618L1501.65 365.682C1503 364.25 1503.1 362.085 1502.01 360.56C1503.49 357.445 1510.2 350.361 1513.23 348.705C1514.85 349.715 1516.97 349.495 1518.32 348.064V348.064ZM1494.52 353.367L1436.89 298.833C1433.64 295.759 1433.5 290.652 1436.58 287.403C1439.63 284.173 1444.78 284.032 1448.01 287.088L1505.63 341.622C1502.13 344.328 1497.03 349.723 1494.52 353.367ZM1515.07 333.855L1456.34 278.279C1454.25 276.299 1451.85 274.864 1449.31 273.951L1497.71 222.804C1500.78 219.556 1505.89 219.415 1509.14 222.489L1567.87 278.065L1515.07 333.855ZM1492.93 289.424C1493 291.085 1494.39 292.405 1496.05 292.377L1521.76 291.901C1529.23 291.766 1534.96 285.227 1533.97 277.641C1532.97 270.054 1525.84 266.265 1520.29 266.365L1517.66 266.419L1517.57 263.794C1517.39 258.366 1513.28 251.348 1505.56 250.756C1497.91 250.163 1491.71 256.267 1491.99 263.731L1492.93 289.424V289.424Z" fill="#521E95"/>
<path d="M1346.57 183.444L1410.49 115.908C1412.01 114.293 1411.94 111.722 1410.33 110.193L1345.73 49.0602C1337.62 41.3838 1324.83 41.7363 1317.15 49.8478L1256.02 114.447C1248.34 122.558 1248.7 135.346 1256.81 143.022L1321.41 204.156C1323.02 205.684 1325.59 205.613 1327.12 203.998L1329.9 201.062C1331.26 199.63 1331.36 197.465 1330.26 195.94C1331.75 192.825 1338.45 185.741 1341.48 184.085C1343.1 185.095 1345.22 184.875 1346.57 183.444V183.444ZM1322.77 188.747L1265.14 134.213C1261.9 131.139 1261.76 126.031 1264.83 122.783C1267.89 119.553 1273.03 119.411 1276.26 122.468L1333.89 177.002C1330.39 179.708 1325.28 185.103 1322.77 188.747ZM1343.32 169.235L1284.6 113.659C1282.5 111.679 1280.11 110.244 1277.56 109.331L1325.96 58.1842C1329.04 54.9359 1334.14 54.7951 1337.39 57.8691L1396.12 113.445L1343.32 169.235ZM1329.76 126.715L1325.39 141.132L1339.54 135.975L1353.97 140.344L1348.81 126.186L1353.18 111.769L1339.02 116.926L1324.6 112.556L1329.76 126.715ZM1325.68 99.658L1335.58 96.048L1345.68 99.1067L1342.07 89.1954L1345.13 79.1038L1335.22 82.7121L1325.12 79.6552L1328.73 89.5648L1325.68 99.658Z" fill="#521E95"/>
<path d="M1917.12 155.238L1915.09 158.967C1914.53 159.996 1914.88 161.223 1915.86 161.709L1939.02 173.155L1951.73 195.65C1952.27 196.606 1953.51 196.883 1954.51 196.267L1958.12 194.035C1959.12 193.42 1959.49 192.144 1958.95 191.187L1952.53 179.83L1964.23 185.608C1965.21 186.095 1966.46 185.655 1967.02 184.624L1969.05 180.895C1969.61 179.867 1969.27 178.639 1968.29 178.153L1945.12 166.71L1932.42 144.214C1931.88 143.258 1930.64 142.982 1929.64 143.597L1926.03 145.829C1925.03 146.445 1924.66 147.72 1925.2 148.678L1931.62 160.034L1919.92 154.257C1918.94 153.769 1917.68 154.208 1917.12 155.238V155.238ZM1946.65 147.448L1944.38 149.851C1942.85 151.473 1942.92 154.03 1944.54 155.566L1956.28 166.681C1957.91 168.216 1960.46 168.146 1962 166.523L1964.27 164.121C1969.85 165.333 1975.36 164.166 1978.99 160.335C1985.13 153.848 1983.53 142.369 1975.42 134.696C1967.31 127.023 1955.76 126.06 1949.62 132.548C1946 136.378 1945.14 141.949 1946.65 147.448ZM1972.96 149.063C1974.58 150.598 1974.65 153.156 1973.11 154.778C1971.58 156.4 1969.02 156.471 1967.4 154.935C1965.78 153.4 1965.71 150.843 1967.24 149.22C1968.78 147.598 1971.33 147.528 1972.96 149.063ZM1961.21 137.948C1962.83 139.483 1962.9 142.04 1961.37 143.663C1959.83 145.285 1957.28 145.356 1955.65 143.82C1954.03 142.285 1953.96 139.728 1955.5 138.105C1957.03 136.483 1959.59 136.412 1961.21 137.948ZM1960.8 226.61L2024.71 159.075C2026.24 157.46 2026.16 154.888 2024.55 153.36L1959.95 92.2269C1951.84 84.5505 1939.05 84.903 1931.38 93.0146L1870.24 157.614C1862.57 165.725 1862.92 178.513 1871.03 186.189L1935.63 247.322C1937.24 248.851 1939.82 248.78 1941.34 247.165L1944.12 244.228C1945.48 242.797 1945.58 240.631 1944.48 239.107C1945.97 235.992 1952.67 228.908 1955.7 227.251C1957.32 228.261 1959.44 228.042 1960.8 226.61V226.61ZM1936.99 231.914L1879.37 177.38C1876.12 174.306 1875.98 169.198 1879.05 165.95C1882.11 162.72 1887.25 162.578 1890.48 165.635L1948.11 220.168C1944.61 222.874 1939.5 228.27 1936.99 231.914ZM1957.54 212.402L1898.82 156.826C1896.73 154.846 1894.33 153.411 1891.78 152.498L1940.18 101.351C1943.26 98.1026 1948.37 97.9618 1951.61 101.036L2010.34 156.612L1957.54 212.402Z" fill="#521E95"/>
<path d="M1788.01 63.091L1851.92 -4.44432C1853.45 -6.05929 1853.38 -8.63109 1851.76 -10.1594L1787.16 -71.2926C1779.05 -78.969 1766.26 -78.6165 1758.59 -70.5049L1697.45 -5.90597C1689.78 2.20561 1690.13 14.9931 1698.24 22.6695L1762.84 83.8027C1764.45 85.3311 1767.03 85.2602 1768.55 83.6452L1771.33 80.7089C1772.69 79.2774 1772.79 77.112 1771.69 75.5872C1773.18 72.472 1779.88 65.3882 1782.91 63.7318C1784.53 64.7417 1786.65 64.5224 1788.01 63.091V63.091ZM1764.2 68.3942L1706.58 13.8606C1703.33 10.7865 1703.19 5.67868 1706.26 2.43038C1709.32 -0.799573 1714.46 -0.941354 1717.69 2.11531L1775.32 56.6489C1771.82 59.3549 1766.71 64.7504 1764.2 68.3942ZM1784.75 48.882L1726.03 -6.69364C1723.94 -8.67353 1721.54 -10.1088 1718.99 -11.0216L1767.39 -62.1686C1770.47 -65.4169 1775.58 -65.5577 1778.82 -62.4837L1837.55 -6.90803L1784.75 48.882ZM1762.62 4.45158C1762.68 6.11203 1764.08 7.43196 1765.74 7.40403L1791.44 6.92779C1798.91 6.79345 1804.65 0.254592 1803.65 -7.33197C1802.66 -14.9185 1795.53 -18.7078 1789.97 -18.6082L1787.35 -18.5537L1787.26 -21.1786C1787.07 -26.607 1782.96 -33.6252 1775.24 -34.2167C1767.59 -34.8102 1761.4 -28.7055 1761.68 -21.2421L1762.62 4.45158V4.45158Z" fill="#521E95"/>
</g>
<defs>
<clipPath id="clip0">
<rect width="1920" height="992" fill="white"/>
</clipPath>
</defs>
</svg>
