<svg width="1050" height="728" viewBox="0 0 1050 728" fill="none" xmlns="http://www.w3.org/2000/svg">
<g clip-path="url(#clip0)">
<rect width="1050" height="728" transform="matrix(1 0 0 -1 0 728)" fill="#0C0134"/>
<path d="M807 5.27167C932.278 5.27183 975.299 74.2598 1129.08 16.316C1133 14.8381 1135.92 11.3335 1136.64 7.20403L1162.13 -139.107C1163.5 -146.988 1156.92 -153.981 1148.97 -153.092L-61.5111 -17.7459C-67.7678 -17.0464 -72.4178 -11.6093 -72.1931 -5.31757C-70.7175 36.0001 -70.9024 52.7963 -64 47.2719C19.5145 -19.5704 93.0125 27.2719 215 27.2719C261.421 27.2719 317 5.27162 402 3.0219C476.25 1.27191 516 42.2716 586 42.2716C656 42.2716 704.999 5.27154 807 5.27167Z" fill="white"/>
</g>
<defs>
<clipPath id="clip0">
<rect width="1050" height="728" fill="white" transform="matrix(1 0 0 -1 0 728)"/>
</clipPath>
</defs>
</svg>
