<svg width="17" height="23" viewBox="0 0 17 23" fill="none" xmlns="http://www.w3.org/2000/svg">
<path d="M7.62644 22.2098C1.19398 12.8847 0 11.9276 0 8.50048C0 3.80605 3.80556 0.000488281 8.5 0.000488281C13.1944 0.000488281 17 3.80605 17 8.50048C17 11.9276 15.806 12.8847 9.37355 22.2098C8.95143 22.8196 8.04852 22.8196 7.62644 22.2098ZM8.5 12.0421C10.456 12.0421 12.0417 10.4565 12.0417 8.50048C12.0417 6.54447 10.456 4.95882 8.5 4.95882C6.54398 4.95882 4.95833 6.54447 4.95833 8.50048C4.95833 10.4565 6.54398 12.0421 8.5 12.0421Z" fill="#B66FFE"/>
</svg>
