<svg width="1050" height="676" viewBox="0 0 1050 676" fill="none" xmlns="http://www.w3.org/2000/svg">
<g clip-path="url(#clip0)">
<rect width="1050" height="676" transform="matrix(-1 -8.74228e-08 -8.74228e-08 1 1050 0)" fill="#0C0134"/>
<rect x="509.158" y="313.819" width="10.0609" height="10.0609" transform="rotate(135 509.158 313.819)" fill="#281B61"/>
<rect x="167.08" y="574.901" width="10.0609" height="10.0609" transform="rotate(135 167.08 574.901)" fill="#281B61"/>
<path opacity="0.6" d="M604.784 -91.7223C617.526 -125.67 628.427 -160.19 640.694 -194.293C638.66 -207.756 631.667 -210.006 621.437 -217.732C615.974 -221.858 610.789 -226.027 608.111 -232.45C605.596 -238.484 602.949 -248.056 597.506 -251.41C565.339 -271.234 525.035 -275.076 488.022 -281.075C444.912 -288.063 401.053 -276.255 363.301 -255.82C320.627 -232.721 285.018 -200.25 251.173 -165.854C233.686 -148.083 220.263 -127.374 204.669 -108.047C190.207 -90.1226 173.589 -73.3927 157.367 -57.0775C91.4111 9.25901 18.7283 74.6594 -64.0535 119.377C-86.4342 131.467 -107.273 146.378 -129.545 158.63C-151.955 170.959 -174.569 180.552 -194.827 196.679C-223.601 219.586 -242.971 251.969 -257.592 285.286C-273.013 320.425 -274.242 372.195 -246.592 402.074C-229.617 420.417 -210.014 437.033 -187.434 447.943C-150.362 465.856 -103.017 463.971 -62.859 465.712C30.3294 469.752 124.098 461.551 209.57 421.424C274.431 390.973 330.771 340.284 378.418 287.705C444.321 214.979 491.411 126.704 539.451 41.7202C563.601 -1.00204 587.527 -45.7422 604.784 -91.7223Z" fill="url(#paint0_linear)"/>
<path d="M997.052 -140.038C1005.12 -164.231 1016.25 -189.786 1029.13 -211.928C1031.23 -216.138 1049.08 -218.027 1054.44 -220.284C1063.87 -224.256 1076.75 -220.306 1084.43 -215.86C1097.18 -208.478 1102.22 -189.089 1108.27 -176.536C1121.2 -149.674 1134.96 -122.027 1140.71 -92.4807C1153.95 -24.3862 1154.13 53.4059 1135.3 120.361C1123.36 162.825 1105.16 203.981 1088.85 244.969C1074.29 281.555 1055.61 310.993 1030.23 341.067C1007.28 368.265 980.813 392.015 958.342 419.592C949.757 430.129 939.481 439.179 930.816 449.577C924.975 456.585 915.875 472.271 907.467 475.875C900.258 478.964 886.516 491.138 882.029 498.118C876.76 506.315 867.913 511.511 861.015 518.025C801.591 574.149 743.21 630.22 668.573 667.948C586.759 709.305 502.101 742.284 410.755 754.707C381.67 758.662 347.175 759.062 318.098 754.215C292.738 749.989 264.905 738.339 246.208 720.421C228.95 703.882 215.481 688.341 200.863 669.546C192.254 658.478 195.21 642.292 195.21 629.116C195.21 609.651 204.143 595.036 212.906 577.749C221.51 560.773 234.859 547.848 246.577 533.018C262.718 512.59 280.318 492.708 298.19 473.786C437.988 325.764 672.554 312.321 824.72 181C857.679 152.556 889.06 122.314 917.623 89.3258C941.873 61.319 962.878 26.7408 982.876 -4.56041C1001.49 -33.6909 986.162 -107.366 997.052 -140.038Z" fill="url(#paint1_linear)"/>
<path d="M453.831 26.4078C472.77 -7.30381 494.057 -39.3766 514.72 -72.0366C511.802 -77.8727 493.414 -84.2035 487.609 -86.0366C468.229 -92.1565 448.688 -95.4423 428.72 -99.0366C405.022 -103.302 381.101 -106.013 357.164 -108.481C333.421 -110.929 310.147 -117.534 286.275 -119.592C259.778 -121.876 234.706 -128.037 207.942 -128.037C172.199 -128.037 137.773 -127.066 103.053 -117.703C42.9091 -101.485 -24.1182 -75.8349 -74.3914 -38.4811C-110.894 -11.3591 -137.834 28.746 -158.169 68.8522C-194.169 139.853 -210.402 223.652 -176.169 298.963C-166.896 319.364 -155.253 341.317 -134.836 352.408C-113.192 364.165 -88.9327 366.146 -64.8359 365.963C27.1445 365.267 124.017 338.983 204.942 295.63C280.206 255.31 349.336 194.037 396.72 123.074C417.451 92.027 435.555 58.939 453.831 26.4078Z" fill="url(#paint2_linear)"/>
<path d="M999.855 216.576C1039.76 142.499 1084.79 69.7866 1115.63 -8.58845C1120.32 -7.49147 1113.29 0.343444 1117.13 2.87716C1120.12 4.84547 1128.14 1.80007 1131.57 2.10114C1139.24 2.77604 1147.59 9.65 1155.23 11.8538C1171.82 16.6387 1174.04 20.754 1180.15 38.7862C1189.33 65.8897 1199.89 92.8879 1207.88 120.358C1226.03 182.716 1226.32 251.34 1229.96 315.822C1233.3 374.885 1235.47 435.274 1232.4 494.355C1228.42 571.152 1200.96 643 1164.15 709.661C1145.7 743.072 1125.87 768.558 1096.86 792.984C1068.72 816.691 1038.84 838.493 1008.22 858.865C974.336 881.405 937.725 899.431 903.147 920.908C857.862 949.035 813.017 969.045 760.633 981.055C719.606 990.462 677.402 1000.02 635.426 1003.9C599.381 1007.23 560.146 1008.4 525.785 995.952C479.149 979.05 459.175 937.067 462.531 888.651C464.267 863.616 471.027 831.417 486.357 810.794C495.686 798.245 500.514 782.689 510.741 770.379C519.562 759.763 528.956 749.568 536.788 738.291C546.18 724.767 561.513 713.112 573.733 702.182C586.305 690.938 597.017 676.864 609.007 664.889C631.052 642.87 652.282 619.179 677.355 600.325C685.114 594.492 690.714 585.896 697.956 579.341C705.543 572.473 713.321 565.798 720.096 558.102C735.814 540.246 752.405 524.281 768.718 507.078C807.936 465.72 845.925 424.476 882.443 380.52C902.133 356.821 923.481 334.195 942.061 309.622C964.313 280.194 982.39 248.994 999.855 216.576Z" fill="url(#paint3_linear)"/>
<rect width="20.1878" height="20.1878" transform="matrix(-0.707107 0.707107 0.707107 0.707107 851.995 450.45)" fill="#8974DD"/>
<g style="mix-blend-mode:soft-light">
<rect width="69.2508" height="69.2508" transform="matrix(-1 -1.74846e-07 -1.74846e-07 1 970.26 208.969)" fill="url(#paint4_diamond)"/>
</g>
<g style="mix-blend-mode:soft-light">
<rect width="48.6503" height="48.6503" transform="matrix(-1 -1.74846e-07 -1.74846e-07 1 959.959 219.27)" fill="url(#paint5_diamond)" fill-opacity="0.6"/>
</g>
<rect width="19.5392" height="19.5392" transform="matrix(-0.707107 0.707107 0.707107 0.707107 933.788 229.778)" fill="#8974DD"/>
<rect width="18.801" height="18.801" transform="matrix(-0.707107 0.707107 0.707107 0.707107 597.745 140.975)" fill="#281B61"/>
<rect width="18.801" height="18.801" transform="matrix(-0.707107 0.707107 0.707107 0.707107 845.714 275.034)" fill="#492FAD"/>
<rect width="13.9252" height="13.9252" transform="matrix(-0.707107 0.707107 0.707107 0.707107 646.653 180.153)" fill="#281B61"/>
<rect width="18.801" height="18.801" transform="matrix(-0.707107 0.707107 0.707107 0.707107 374.784 474.559)" fill="#6136DB"/>
<rect width="18.801" height="18.801" transform="matrix(-0.707107 0.707107 0.707107 0.707107 772.191 395.706)" fill="#492FAD"/>
<rect width="18.801" height="18.801" transform="matrix(-0.707107 0.707107 0.707107 0.707107 516.609 447.97)" fill="#492FAD"/>
<rect width="18.801" height="18.801" transform="matrix(-0.707107 0.707107 0.707107 0.707107 265.191 315)" fill="#492FAD"/>
<rect width="10.0609" height="10.0609" transform="matrix(-0.707107 -0.707107 -0.707107 0.707107 705.154 151.179)" fill="#281B61"/>
<rect width="10.0609" height="10.0609" transform="matrix(-0.707107 -0.707107 -0.707107 0.707107 574.401 242.971)" fill="#281B61"/>
<rect width="10.0609" height="10.0609" transform="matrix(-0.707107 -0.707107 -0.707107 0.707107 735.974 77.0088)" fill="#281B61"/>
<rect width="10.0609" height="10.0609" transform="matrix(-0.707107 -0.707107 -0.707107 0.707107 236.771 443.382)" fill="#281B61"/>
<rect width="10.0609" height="10.0609" transform="matrix(-0.707107 -0.707107 -0.707107 0.707107 98.9043 603.382)" fill="#281B61"/>
<rect width="10.0609" height="10.0609" transform="matrix(-0.707107 -0.707107 -0.707107 0.707107 728.859 130.771)" fill="#281B61"/>
<rect width="10.0609" height="10.0609" transform="matrix(-0.707107 -0.707107 -0.707107 0.707107 667.062 91.2373)" fill="#281B61"/>
<rect width="10.0609" height="10.0609" transform="matrix(-0.707107 -0.707107 -0.707107 0.707107 388.079 345.237)" fill="#281B61"/>
<rect width="10.0609" height="10.0609" transform="matrix(-0.707107 -0.707107 -0.707107 0.707107 167.859 457.611)" fill="#281B61"/>
<rect x="845.714" y="346.101" width="10.0609" height="10.0609" transform="rotate(135 845.714 346.101)" fill="#492FAD"/>
<rect x="954.719" y="126.083" width="10.0609" height="10.0609" transform="rotate(135 954.719 126.083)" fill="#492FAD"/>
<rect x="799.714" y="260.806" width="10.0609" height="10.0609" transform="rotate(135 799.714 260.806)" fill="#492FAD"/>
<rect x="459.714" y="275.034" width="10.0609" height="10.0609" transform="rotate(135 459.714 275.034)" fill="#281B61"/>
<rect x="117.636" y="536.115" width="10.0609" height="10.0609" transform="rotate(135 117.636 536.115)" fill="#281B61"/>
<rect x="36.501" y="529.001" width="7.04193" height="7.04193" transform="rotate(135 36.501 529.001)" fill="#281B61"/>
<rect x="115.978" y="572.766" width="7.04193" height="7.04193" transform="rotate(135 115.978 572.766)" fill="#281B61"/>
<rect x="195.478" y="509.793" width="7.04193" height="7.04193" transform="rotate(135 195.478 509.793)" fill="#281B61"/>
<rect x="464.693" y="343.965" width="7.04193" height="7.04193" transform="rotate(135 464.693 343.965)" fill="#281B61"/>
<rect x="514.138" y="153.314" width="7.04193" height="7.04193" transform="rotate(135 514.138 153.314)" fill="#281B61"/>
<rect x="876.229" y="84.123" width="7.04193" height="7.04193" transform="rotate(135 876.229 84.123)" fill="#281B61"/>
<rect x="831.485" y="25.123" width="7.04193" height="7.04193" transform="rotate(135 831.485 25.123)" fill="#281B61"/>
<rect x="997.022" y="444.245" width="10.0609" height="10.0609" transform="rotate(135 997.022 444.245)" fill="#492FAD"/>
<rect x="776.803" y="331.872" width="10.0609" height="10.0609" transform="rotate(135 776.803 331.872)" fill="#492FAD"/>
<rect x="445.485" y="584.859" width="10.0609" height="10.0609" transform="rotate(135 445.485 584.859)" fill="#492FAD" fill-opacity="0.8"/>
<rect x="307.485" y="634.859" width="10.0609" height="10.0609" transform="rotate(135 307.485 634.859)" fill="#492FAD" fill-opacity="0.8"/>
<rect x="574.401" y="521.887" width="10.0609" height="10.0609" transform="rotate(135 574.401 521.887)" fill="#492FAD"/>
<rect x="106.019" y="229.684" width="10.0609" height="10.0609" transform="rotate(135 106.019 229.684)" fill="#492FAD"/>
<rect width="10.0609" height="10.0609" transform="matrix(-0.707107 -0.707107 -0.707107 0.707107 328.962 398.032)" fill="#281B61"/>
<rect width="10.0609" height="10.0609" transform="matrix(-0.707107 -0.707107 -0.707107 0.707107 866.27 228.821)" fill="#492FAD"/>
<rect width="10.0609" height="10.0609" transform="matrix(-0.707107 -0.707107 -0.707107 0.707107 191.747 131.36)" fill="#492FAD"/>
<rect width="10.0609" height="10.0609" transform="matrix(-0.707107 -0.707107 -0.707107 0.707107 103.407 98.3511)" fill="#492FAD"/>
<rect width="10.0609" height="10.0609" transform="matrix(-0.707107 -0.707107 -0.707107 0.707107 292.715 130.771)" fill="#492FAD"/>
<rect x="334.479" y="312.097" width="10.0609" height="10.0609" transform="rotate(135 334.479 312.097)" fill="#492FAD"/>
<rect x="279.492" y="228.743" width="10.0609" height="10.0609" transform="rotate(135 279.492 228.743)" fill="#492FAD"/>
<rect x="243.885" y="77.0088" width="10.0609" height="10.0609" transform="rotate(135 243.885 77.0088)" fill="#492FAD"/>
<rect width="10.0609" height="10.0609" transform="matrix(-0.707107 -0.707107 -0.707107 0.707107 352.863 209.002)" fill="#492FAD"/>
<rect width="10.0609" height="10.0609" transform="matrix(-0.707107 -0.707107 -0.707107 0.707107 117.636 373.089)" fill="#492FAD" fill-opacity="0.8"/>
<rect width="10.0609" height="10.0609" transform="matrix(-0.707107 -0.707107 -0.707107 0.707107 646.05 341.194)" fill="#492FAD"/>
<rect x="698.04" y="338.123" width="10.0609" height="10.0609" transform="rotate(135 698.04 338.123)" fill="#492FAD"/>
<rect x="690.926" y="451.359" width="10.0609" height="10.0609" transform="rotate(135 690.926 451.359)" fill="#492FAD"/>
<rect x="618.154" y="433.359" width="10.0609" height="10.0609" transform="rotate(135 618.154 433.359)" fill="#492FAD"/>
<rect x="653.164" y="567.787" width="10.0609" height="10.0609" transform="rotate(135 653.164 567.787)" fill="#492FAD"/>
<rect width="18.801" height="18.801" transform="matrix(-0.707107 0.707107 0.707107 0.707107 953.851 547.185)" fill="#492FAD"/>
<g style="mix-blend-mode:soft-light">
<rect width="48.7725" height="48.7725" transform="matrix(-1 -1.74846e-07 -1.74846e-07 1 383.962 94.5825)" fill="url(#paint6_diamond)"/>
</g>
<g style="mix-blend-mode:soft-light">
<rect width="46.6299" height="46.6299" transform="matrix(-1 -1.74846e-07 -1.74846e-07 1 168.891 149.87)" fill="url(#paint7_diamond)"/>
</g>
<rect width="15.284" height="15.284" transform="matrix(-0.707107 0.707107 0.707107 0.707107 359.576 108.161)" fill="#8974DD"/>
<rect width="14.6126" height="14.6126" transform="matrix(-0.707107 0.707107 0.707107 0.707107 145.576 164.691)" fill="#8974DD"/>
<path d="M0 -0.0805664L1050 -0.0804746L1050 675.92L-5.90978e-05 675.92L0 -0.0805664Z" fill="#0C0134" fill-opacity="0.5"/>
<path d="M747.548 667C872.827 667 915.848 598.012 1069.63 655.956C1073.55 657.434 1076.47 660.938 1077.19 665.068L1102.68 811.379C1104.05 819.26 1097.47 826.252 1089.52 825.364L-120.962 690.018C-127.219 689.318 -131.869 683.881 -131.644 677.589C-130.169 636.272 -130.354 619.476 -123.451 625C-39.9367 691.842 33.5613 645 155.549 645C201.97 645 257.549 667 342.549 669.25C416.799 671 456.549 630 526.549 630C596.549 630 645.548 667 747.548 667Z" fill="white"/>
</g>
<defs>
<linearGradient id="paint0_linear" x1="253.539" y1="-322.346" x2="110.021" y2="504.821" gradientUnits="userSpaceOnUse">
<stop stop-color="#261768"/>
<stop offset="1" stop-color="#261768"/>
<stop offset="1" stop-color="#261768" stop-opacity="0"/>
</linearGradient>
<linearGradient id="paint1_linear" x1="672.416" y1="-221.922" x2="672.416" y2="757.762" gradientUnits="userSpaceOnUse">
<stop stop-color="#261768"/>
<stop offset="1" stop-color="#261768" stop-opacity="0"/>
</linearGradient>
<linearGradient id="paint2_linear" x1="159.85" y1="-60" x2="159.85" y2="365.974" gradientUnits="userSpaceOnUse">
<stop stop-color="#432E9F"/>
<stop offset="1" stop-color="#432E9F" stop-opacity="0"/>
</linearGradient>
<linearGradient id="paint3_linear" x1="428.317" y1="538.982" x2="1247.12" y2="463.313" gradientUnits="userSpaceOnUse">
<stop stop-color="#261768"/>
<stop offset="1" stop-color="#261768" stop-opacity="0"/>
</linearGradient>
<radialGradient id="paint4_diamond" cx="0" cy="0" r="1" gradientUnits="userSpaceOnUse" gradientTransform="translate(34.6254 34.6254) rotate(90) scale(34.6254)">
<stop stop-color="#EB75FF"/>
<stop offset="1" stop-color="#EB75FF" stop-opacity="0"/>
</radialGradient>
<radialGradient id="paint5_diamond" cx="0" cy="0" r="1" gradientUnits="userSpaceOnUse" gradientTransform="translate(24.3252 24.3252) rotate(90) scale(24.3252)">
<stop stop-color="#BF8FFF"/>
<stop offset="1" stop-color="#B287EB" stop-opacity="0"/>
</radialGradient>
<radialGradient id="paint6_diamond" cx="0" cy="0" r="1" gradientUnits="userSpaceOnUse" gradientTransform="translate(24.3862 24.3862) rotate(90) scale(24.3862)">
<stop stop-color="#EB75FF"/>
<stop offset="1" stop-color="#EB75FF" stop-opacity="0"/>
</radialGradient>
<radialGradient id="paint7_diamond" cx="0" cy="0" r="1" gradientUnits="userSpaceOnUse" gradientTransform="translate(23.315 23.315) rotate(90) scale(23.315)">
<stop stop-color="#EB75FF"/>
<stop offset="1" stop-color="#EB75FF" stop-opacity="0"/>
</radialGradient>
<clipPath id="clip0">
<rect width="1050" height="676" fill="white" transform="matrix(-1 -8.74228e-08 -8.74228e-08 1 1050 0)"/>
</clipPath>
</defs>
</svg>
