<svg width="286" height="71" viewBox="0 0 286 71" fill="none" xmlns="http://www.w3.org/2000/svg">
<g clip-path="url(#clip0)">
<path d="M96.983 38.5168C96.983 37.5505 96.7025 36.8491 96.1414 36.4127C95.6115 35.9452 94.879 35.7114 93.9439 35.7114C93.3205 35.7114 92.697 35.7893 92.0736 35.9452C91.4814 36.101 90.967 36.3348 90.5306 36.6465V52.871C90.2189 52.9645 89.7202 53.0581 89.0344 53.1516C88.3798 53.2451 87.6941 53.2918 86.9771 53.2918C86.2914 53.2918 85.668 53.2451 85.1069 53.1516C84.577 53.0581 84.125 52.871 83.7509 52.5905C83.3769 52.31 83.0808 51.9359 82.8626 51.4683C82.6755 50.9696 82.582 50.3306 82.582 49.5513V35.5244C82.582 34.6827 82.7535 33.997 83.0964 33.4671C83.4704 32.9372 83.9691 32.454 84.5926 32.0176C85.6524 31.2695 86.9771 30.6617 88.5669 30.1941C90.1878 29.7265 91.9801 29.4928 93.9439 29.4928C97.4662 29.4928 100.178 30.272 102.08 31.8306C103.981 33.358 104.932 35.4932 104.932 38.2362V52.871C104.62 52.9645 104.121 53.0581 103.435 53.1516C102.781 53.2451 102.095 53.2918 101.378 53.2918C100.692 53.2918 100.069 53.2451 99.5079 53.1516C98.978 53.0581 98.526 52.871 98.152 52.5905C97.7779 52.31 97.4818 51.9359 97.2636 51.4683C97.0766 50.9696 96.983 50.3306 96.983 49.5513V38.5168Z" fill="white"/>
<path d="M117.977 52.871C117.634 52.9334 117.12 53.0113 116.434 53.1048C115.78 53.2295 115.109 53.2918 114.424 53.2918C113.738 53.2918 113.114 53.2451 112.553 53.1516C112.023 53.0581 111.571 52.871 111.197 52.5905C110.823 52.31 110.527 51.9359 110.309 51.4683C110.122 50.9696 110.028 50.3306 110.028 49.5513V30.5214C110.371 30.4591 110.87 30.3811 111.525 30.2876C112.21 30.1629 112.896 30.1006 113.582 30.1006C114.268 30.1006 114.876 30.1474 115.405 30.2409C115.967 30.3344 116.434 30.5214 116.808 30.802C117.182 31.0825 117.463 31.4721 117.65 31.9709C117.868 32.4384 117.977 33.0618 117.977 33.8411V52.871Z" fill="white"/>
<path d="M130.986 45.1094C130.986 45.9199 131.235 46.4966 131.734 46.8394C132.264 47.1823 132.997 47.3538 133.932 47.3538C134.399 47.3538 134.882 47.3226 135.381 47.2603C135.88 47.1667 136.316 47.0576 136.69 46.933C136.971 47.2758 137.205 47.6655 137.392 48.1019C137.61 48.5071 137.719 49.0058 137.719 49.5981C137.719 50.7826 137.267 51.7489 136.363 52.497C135.49 53.2451 133.932 53.6191 131.687 53.6191C128.944 53.6191 126.825 52.9957 125.328 51.7489C123.863 50.502 123.131 48.4759 123.131 45.6705V25.6587C123.474 25.5652 123.957 25.4717 124.58 25.3782C125.235 25.2535 125.921 25.1912 126.638 25.1912C128.009 25.1912 129.069 25.4405 129.817 25.9393C130.596 26.4068 130.986 27.4199 130.986 28.9784V31.9709H137.111C137.298 32.3137 137.47 32.7501 137.625 33.28C137.812 33.7788 137.906 34.3399 137.906 34.9633C137.906 36.0543 137.657 36.8491 137.158 37.3479C136.69 37.8154 136.051 38.0492 135.241 38.0492H130.986V45.1094Z" fill="white"/>
<path d="M153.501 53.6659C151.662 53.6659 149.947 53.4165 148.358 52.9178C146.799 52.3879 145.427 51.6086 144.243 50.58C143.09 49.5513 142.17 48.2577 141.484 46.6992C140.83 45.1406 140.502 43.3171 140.502 41.2287C140.502 39.1714 140.83 37.4102 141.484 35.9452C142.17 34.449 143.058 33.2333 144.149 32.2982C145.24 31.3319 146.487 30.6305 147.89 30.1941C149.293 29.7265 150.727 29.4928 152.192 29.4928C153.844 29.4928 155.34 29.7421 156.68 30.2409C158.052 30.7396 159.221 31.4254 160.187 32.2982C161.184 33.1709 161.948 34.2152 162.478 35.4308C163.039 36.6465 163.32 37.9713 163.32 39.4052C163.32 40.465 163.023 41.2754 162.431 41.8365C161.839 42.3976 161.013 42.756 159.953 42.9119L148.404 44.6419C148.747 45.6705 149.449 46.4498 150.508 46.9797C151.568 47.4784 152.784 47.7278 154.155 47.7278C155.433 47.7278 156.633 47.572 157.756 47.2603C158.909 46.9174 159.844 46.5277 160.561 46.0913C161.06 46.403 161.481 46.8394 161.823 47.4005C162.166 47.9616 162.338 48.5538 162.338 49.1773C162.338 50.58 161.683 51.6242 160.374 52.31C159.376 52.8399 158.254 53.1983 157.007 53.3854C155.761 53.5724 154.592 53.6659 153.501 53.6659ZM152.192 35.2906C151.443 35.2906 150.789 35.4153 150.228 35.6646C149.698 35.914 149.261 36.2413 148.919 36.6465C148.576 37.0206 148.311 37.457 148.124 37.9557C147.968 38.4233 147.874 38.9064 147.843 39.4052L155.839 38.096C155.745 37.4726 155.402 36.8491 154.81 36.2257C154.218 35.6023 153.345 35.2906 152.192 35.2906Z" fill="white"/>
<path d="M167.239 22.4793C167.551 22.3858 168.05 22.2923 168.735 22.1987C169.421 22.0741 170.122 22.0117 170.839 22.0117C171.525 22.0117 172.133 22.0585 172.663 22.152C173.224 22.2455 173.692 22.4325 174.066 22.7131C174.44 22.9936 174.72 23.3832 174.907 23.882C175.094 24.3495 175.188 24.973 175.188 25.7522V30.3344C175.967 30.0227 176.7 29.8045 177.385 29.6798C178.102 29.5551 178.882 29.4928 179.723 29.4928C181.219 29.4928 182.638 29.7577 183.978 30.2876C185.318 30.8175 186.503 31.5968 187.531 32.6255C188.56 33.6229 189.371 34.8698 189.963 36.366C190.555 37.8622 190.851 39.5922 190.851 41.556C190.851 43.5821 190.539 45.3588 189.916 46.8862C189.324 48.3824 188.482 49.6292 187.391 50.6267C186.3 51.6242 184.96 52.3879 183.37 52.9178C181.812 53.4165 180.082 53.6659 178.18 53.6659C176.123 53.6659 174.377 53.4165 172.943 52.9178C171.51 52.4502 170.294 51.858 169.296 51.141C167.925 50.1747 167.239 48.9279 167.239 47.4005V22.4793ZM178.18 47.4005C179.614 47.4005 180.721 46.9174 181.5 45.9511C182.31 44.9536 182.716 43.4886 182.716 41.556C182.716 39.5922 182.31 38.1271 181.5 37.1608C180.689 36.1945 179.598 35.7114 178.227 35.7114C177.604 35.7114 177.058 35.7737 176.59 35.8984C176.154 36.0231 175.671 36.2101 175.141 36.4595V46.6524C175.484 46.8706 175.889 47.0576 176.357 47.2135C176.855 47.3382 177.463 47.4005 178.18 47.4005Z" fill="white"/>
<path d="M202.673 52.871C202.362 52.9645 201.863 53.0581 201.177 53.1516C200.522 53.2451 199.837 53.2918 199.12 53.2918C198.434 53.2918 197.811 53.2451 197.25 53.1516C196.72 53.0581 196.268 52.871 195.894 52.5905C195.52 52.31 195.223 51.9359 195.005 51.4683C194.818 50.9696 194.725 50.3306 194.725 49.5513V35.5244C194.725 34.8074 194.849 34.1996 195.099 33.7009C195.379 33.1709 195.769 32.7034 196.268 32.2982C196.766 31.8929 197.374 31.5345 198.091 31.2228C198.839 30.8799 199.634 30.5838 200.476 30.3344C201.317 30.085 202.19 29.898 203.094 29.7733C203.998 29.6175 204.902 29.5395 205.806 29.5395C207.302 29.5395 208.487 29.8356 209.359 30.4279C210.232 30.989 210.669 31.9241 210.669 33.2333C210.669 33.6697 210.606 34.1061 210.482 34.5425C210.357 34.9477 210.201 35.3217 210.014 35.6646C209.359 35.6646 208.689 35.6958 208.004 35.7581C207.318 35.8205 206.648 35.914 205.993 36.0387C205.338 36.1634 204.715 36.3036 204.123 36.4595C203.562 36.5842 203.079 36.74 202.673 36.9271V52.871Z" fill="white"/>
<path d="M225.097 53.6659C223.258 53.6659 221.543 53.4165 219.953 52.9178C218.395 52.3879 217.023 51.6086 215.839 50.58C214.686 49.5513 213.766 48.2577 213.08 46.6992C212.426 45.1406 212.098 43.3171 212.098 41.2287C212.098 39.1714 212.426 37.4102 213.08 35.9452C213.766 34.449 214.654 33.2333 215.745 32.2982C216.836 31.3319 218.083 30.6305 219.486 30.1941C220.889 29.7265 222.322 29.4928 223.788 29.4928C225.44 29.4928 226.936 29.7421 228.276 30.2409C229.648 30.7396 230.817 31.4254 231.783 32.2982C232.78 33.1709 233.544 34.2152 234.074 35.4308C234.635 36.6465 234.916 37.9713 234.916 39.4052C234.916 40.465 234.619 41.2754 234.027 41.8365C233.435 42.3976 232.609 42.756 231.549 42.9119L220 44.6419C220.343 45.6705 221.044 46.4498 222.104 46.9797C223.164 47.4784 224.38 47.7278 225.751 47.7278C227.029 47.7278 228.229 47.572 229.352 47.2603C230.505 46.9174 231.44 46.5277 232.157 46.0913C232.656 46.403 233.076 46.8394 233.419 47.4005C233.762 47.9616 233.934 48.5538 233.934 49.1773C233.934 50.58 233.279 51.6242 231.97 52.31C230.972 52.8399 229.85 53.1983 228.603 53.3854C227.357 53.5724 226.188 53.6659 225.097 53.6659ZM223.788 35.2906C223.039 35.2906 222.385 35.4153 221.824 35.6646C221.294 35.914 220.857 36.2413 220.515 36.6465C220.172 37.0206 219.907 37.457 219.72 37.9557C219.564 38.4233 219.47 38.9064 219.439 39.4052L227.435 38.096C227.341 37.4726 226.998 36.8491 226.406 36.2257C225.814 35.6023 224.941 35.2906 223.788 35.2906Z" fill="white"/>
<path d="M248.467 47.8681C248.997 47.8681 249.574 47.8213 250.197 47.7278C250.852 47.6031 251.335 47.4473 251.646 47.2603V43.5197L248.28 43.8003C247.407 43.8626 246.69 44.0496 246.129 44.3613C245.568 44.6731 245.287 45.1406 245.287 45.764C245.287 46.3875 245.521 46.9018 245.989 47.307C246.488 47.6811 247.314 47.8681 248.467 47.8681ZM248.093 29.4928C249.776 29.4928 251.304 29.6642 252.675 30.0071C254.078 30.35 255.262 30.8799 256.229 31.5968C257.226 32.2826 257.99 33.1709 258.52 34.2619C259.05 35.3217 259.314 36.5842 259.314 38.0492V48.5227C259.314 49.3331 259.081 50.0033 258.613 50.5332C258.177 51.0319 257.647 51.4683 257.023 51.8424C254.997 53.0581 252.145 53.6659 248.467 53.6659C246.815 53.6659 245.319 53.51 243.978 53.1983C242.669 52.8866 241.531 52.4191 240.565 51.7956C239.63 51.1722 238.897 50.3774 238.368 49.4111C237.869 48.4447 237.619 47.3226 237.619 46.0446C237.619 43.8938 238.258 42.2417 239.536 41.0884C240.814 39.9351 242.794 39.2181 245.475 38.9376L251.6 38.283V37.9557C251.6 37.0517 251.194 36.4127 250.384 36.0387C249.605 35.6335 248.467 35.4308 246.971 35.4308C245.786 35.4308 244.633 35.5555 243.511 35.8049C242.389 36.0543 241.376 36.366 240.472 36.74C240.066 36.4595 239.723 36.0387 239.443 35.4776C239.162 34.8854 239.022 34.2775 239.022 33.6541C239.022 32.8437 239.209 32.2046 239.583 31.7371C239.988 31.2383 240.596 30.8175 241.407 30.4747C242.311 30.1318 243.37 29.8824 244.586 29.7266C245.833 29.5707 247.002 29.4928 248.093 29.4928Z" fill="white"/>
<path d="M286.384 48.8032C286.228 50.2683 285.792 51.3904 285.075 52.1697C284.389 52.949 283.376 53.3386 282.036 53.3386C281.038 53.3386 280.15 53.1048 279.37 52.6373C278.591 52.1385 277.75 51.3125 276.846 50.1592L272.217 44.3613V52.871C271.874 52.9334 271.36 53.0113 270.674 53.1048C270.019 53.2295 269.349 53.2918 268.663 53.2918C267.977 53.2918 267.354 53.2451 266.793 53.1516C266.263 53.0581 265.811 52.871 265.437 52.5905C265.063 52.31 264.767 51.9359 264.549 51.4683C264.362 50.9696 264.268 50.3306 264.268 49.5513V22.4793C264.611 22.3858 265.11 22.2923 265.764 22.1987C266.45 22.0741 267.136 22.0117 267.822 22.0117C268.507 22.0117 269.115 22.0585 269.645 22.152C270.206 22.2455 270.674 22.4325 271.048 22.7131C271.422 22.9936 271.702 23.3832 271.889 23.882C272.108 24.3495 272.217 24.973 272.217 25.7522V38.096L280.259 29.8668C281.88 29.8668 283.173 30.2253 284.14 30.9422C285.137 31.6592 285.636 32.5631 285.636 33.6541C285.636 34.1217 285.558 34.5581 285.402 34.9633C285.246 35.3373 284.997 35.727 284.654 36.1322C284.342 36.5374 283.921 36.9738 283.392 37.4414C282.893 37.8778 282.301 38.3921 281.615 38.9843L278.903 41.3222L286.384 48.8032Z" fill="white"/>
<circle cx="35.4716" cy="35.6577" r="33.6513" stroke="#DD54FF" stroke-width="4"/>
<path d="M62.0004 35.6578C62.0004 50.3091 50.1232 62.1863 35.4719 62.1863C20.8206 62.1863 8.94336 50.3091 8.94336 35.6578C8.94336 21.0065 20.8206 9.12927 35.4719 9.12927C50.1232 9.12927 62.0004 21.0065 62.0004 35.6578Z" fill="#8BF0FF"/>
<path d="M58.0373 40.2822C58.2005 39.9417 58.658 39.9245 58.7477 40.2913C59.8475 44.7881 51.508 54.5069 44.6486 57.5249C37.3394 60.7407 28.3534 59.9982 21.7004 55.6285C15.0473 51.2588 10.9504 43.4083 11.2389 35.5799C11.3886 31.5304 12.6436 27.5334 14.7805 24.0609C17.0945 20.2982 20.444 17.1566 24.3701 15.0305C25.0684 14.6524 25.7341 15.4071 25.3075 16.0768C22.492 20.4967 19.4227 24.886 18.7822 30.0012C18.3248 33.6421 19.1823 37.3714 20.8048 40.6811C22.6286 44.4048 25.5169 47.7338 29.3089 49.5557C33.3351 51.4907 38.0581 51.5928 42.4817 50.8586C45.9825 50.2761 49.4397 49.1747 52.3851 47.2369C55.0413 45.4829 56.8335 42.7925 58.0373 40.2822Z" fill="#25B8CD"/>
<path fill-rule="evenodd" clip-rule="evenodd" d="M55.2399 27.2086C56.6887 28.4374 56.8671 30.6081 55.6383 32.057C50.9079 37.6346 43.3617 40.6514 36.0741 40.8423C28.7229 41.035 21.1779 38.2105 16.1696 32.9343C14.8617 31.5564 14.9184 29.3792 16.2963 28.0712C17.6742 26.7633 19.8514 26.8201 21.1593 28.1979C24.7084 31.9368 30.3141 34.1112 35.8938 33.965C41.5416 33.817 47.1176 31.4674 50.3915 27.6071C51.6203 26.1582 53.791 25.9798 55.2399 27.2086ZM52.5743 31.5417C52.9508 31.1669 53.311 30.7775 53.6535 30.3736C53.9527 30.0209 53.9092 29.4925 53.5565 29.1934C53.2038 28.8943 52.6754 28.9377 52.3763 29.2904C52.0498 29.6754 51.7053 30.0463 51.3444 30.4029C47.4583 34.2421 41.6701 36.417 35.962 36.5666C30.2534 36.7162 24.4552 34.7088 20.3628 31.0481C19.9841 30.7093 19.6199 30.3564 19.2718 29.9896C18.9534 29.6542 18.4234 29.6404 18.088 29.9588C17.7526 30.2772 17.7388 30.8072 18.0572 31.1426C18.421 31.526 18.8007 31.8953 19.1948 32.2501C23.6198 36.235 29.8623 38.4017 36.0059 38.2407C42.1454 38.0798 48.3711 35.7256 52.5743 31.5417Z" fill="#8BF0FF"/>
<path fill-rule="evenodd" clip-rule="evenodd" d="M53.5536 29.1933C53.9063 29.4925 53.9498 30.0209 53.6506 30.3736C49.4842 35.2862 42.6924 38.0654 36.003 38.2407C29.3123 38.416 22.5043 35.8306 18.0543 31.1425C17.7359 30.8071 17.7497 30.2771 18.0851 29.9587C18.4205 29.6403 18.9505 29.6541 19.2689 29.9896C23.3782 34.3187 29.7222 36.73 35.9591 36.5665C42.1974 36.403 48.5313 33.8206 52.3734 29.2903C52.6725 28.9376 53.2009 28.8942 53.5536 29.1933Z" fill="#6032E2"/>
<path fill-rule="evenodd" clip-rule="evenodd" d="M52.0822 29.0409C52.5191 28.5257 53.2909 28.4623 53.806 28.8992C54.3212 29.3361 54.3846 30.1079 53.9477 30.6231C49.6977 35.6343 42.7941 38.4487 36.016 38.6263C29.2274 38.8042 22.3102 36.1834 17.7774 31.4081C17.3124 30.9182 17.3325 30.1441 17.8225 29.679C18.3124 29.214 19.0865 29.2341 19.5516 29.7241C23.5778 33.9657 29.8124 36.3419 35.9519 36.181C42.1027 36.0198 48.3242 33.4718 52.0822 29.0409ZM53.3071 29.4875C53.1168 29.3262 52.8318 29.3496 52.6705 29.5399C48.7441 34.1694 42.2979 36.7864 35.9721 36.9521C29.6378 37.1182 23.1844 34.6718 18.9921 30.2552C18.8203 30.0742 18.5345 30.0668 18.3536 30.2385C18.1726 30.4102 18.1652 30.6961 18.3369 30.877C22.7042 35.4779 29.403 38.0279 35.9958 37.8551C42.5965 37.6821 49.2765 34.9382 53.3594 30.1241C53.5207 29.9339 53.4973 29.6489 53.3071 29.4875Z" fill="#6032E2"/>
<path fill-rule="evenodd" clip-rule="evenodd" d="M39.3004 27.6358C40.0894 28.881 41.7954 29.6895 43.4481 29.6013C45.1006 29.5131 46.66 28.5297 47.2375 27.2107C47.4062 26.8254 47.9112 26.6314 48.3654 26.7775C48.8196 26.9235 49.0511 27.3543 48.8824 27.7397C48.0652 29.6062 45.9102 30.9659 43.5696 31.0908C41.2291 31.2157 38.8728 30.098 37.757 28.337C37.5265 27.9732 37.6851 27.5214 38.1113 27.3277C38.5375 27.1341 39.0699 27.272 39.3004 27.6358Z" fill="#6032E2"/>
<path fill-rule="evenodd" clip-rule="evenodd" d="M43.591 31.4759C41.1319 31.6071 38.633 30.4386 37.432 28.5434C37.0566 27.9508 37.348 27.2511 37.9526 26.9764C38.5311 26.7136 39.2806 26.8824 39.6271 27.4292C40.331 28.5401 41.8943 29.2979 43.4284 29.216C44.9622 29.1342 46.3761 28.2184 46.885 27.0559C47.1484 26.4544 47.8803 26.2159 48.4844 26.4101C49.1038 26.6093 49.5176 27.2523 49.2366 27.8943C48.3509 29.9173 46.0504 31.3446 43.591 31.4759ZM38.0837 28.1305C39.1144 29.7571 41.3281 30.8241 43.5499 30.7055C45.7718 30.5869 47.7812 29.2949 48.5299 27.5849C48.5863 27.4561 48.5372 27.2375 48.2482 27.1445C47.9438 27.0466 47.6658 27.1961 47.5917 27.3653C46.9457 28.8407 45.2408 29.8918 43.4695 29.9864C41.6982 30.0809 39.8496 29.2216 38.9755 27.8421C38.8609 27.6613 38.5457 27.5543 38.2717 27.6787C38.0239 27.7913 37.9981 27.9955 38.0837 28.1305Z" fill="#6032E2"/>
<path fill-rule="evenodd" clip-rule="evenodd" d="M25.2647 26.8993C26.028 28.3292 27.5812 29.3243 29.2014 29.4286C30.8196 29.5327 32.4859 28.741 33.4276 27.4213C33.6963 27.0448 34.2192 26.9574 34.5956 27.226C34.9721 27.4947 35.0595 28.0176 34.7909 28.394C33.5128 30.1851 31.2903 31.2412 29.0938 31.0998C26.8992 30.9586 24.8257 29.6331 23.7873 27.688C23.5695 27.28 23.7237 26.7728 24.1317 26.555C24.5396 26.3372 25.0469 26.4914 25.2647 26.8993Z" fill="#6032E2"/>
<path fill-rule="evenodd" clip-rule="evenodd" d="M29.0673 31.4848C26.7405 31.3351 24.5471 29.9335 23.4453 27.8697C23.1272 27.2738 23.3524 26.5329 23.9483 26.2147C24.5442 25.8966 25.2851 26.1218 25.6033 26.7177C26.3032 28.029 27.7365 28.9479 29.2244 29.0437C30.7095 29.1392 32.2477 28.4084 33.1119 27.1972C33.5043 26.6474 34.2681 26.5197 34.818 26.9121C35.3678 27.3045 35.4955 28.0683 35.1031 28.6181C33.7476 30.5178 31.397 31.6347 29.0673 31.4848ZM24.1259 27.5064C25.1009 29.3328 27.0546 30.5823 29.1169 30.715C31.1802 30.8477 33.2745 29.8525 34.4752 28.17C34.6201 27.967 34.5729 27.6849 34.3699 27.54C34.1668 27.3952 33.8848 27.4423 33.7399 27.6453C32.7207 29.0736 30.9263 29.9262 29.1749 29.8135C27.4224 29.7008 25.7494 28.6295 24.9227 27.081C24.8053 26.861 24.5316 26.7778 24.3116 26.8953C24.0915 27.0127 24.0084 27.2864 24.1259 27.5064Z" fill="#6032E2"/>
<path fill-rule="evenodd" clip-rule="evenodd" d="M119.814 25.1547C120.299 24.616 119.944 23.625 119.219 23.625C114.852 23.625 111.127 20.303 111.127 15.9366C111.127 15.6561 111.142 15.379 111.17 15.1061C111.294 13.9237 110.256 12.7663 109.294 13.4655C107.318 14.9027 106.033 17.2332 106.033 19.8637C106.033 24.2301 109.573 27.7698 113.939 27.7698C116.271 27.7698 118.367 26.7603 119.814 25.1547Z" fill="white"/>
</g>
<defs>
<clipPath id="clip0">
<rect width="286" height="71" fill="white"/>
</clipPath>
</defs>
</svg>
