<svg width="286" height="72" viewBox="0 0 286 72" fill="none" xmlns="http://www.w3.org/2000/svg">
<g clip-path="url(#clip0)">
<circle cx="35.4716" cy="36" r="33.6513" fill="#261768" stroke="#261768" stroke-width="4"/>
<path d="M62.0004 36.0001C62.0004 50.6514 50.1232 62.5286 35.4719 62.5286C20.8206 62.5286 8.94336 50.6514 8.94336 36.0001C8.94336 21.3488 20.8206 9.47156 35.4719 9.47156C50.1232 9.47156 62.0004 21.3488 62.0004 36.0001Z" fill="#8BF0FF"/>
<path d="M58.0373 40.6245C58.2005 40.284 58.658 40.2668 58.7477 40.6336C59.8475 45.1304 51.508 54.8492 44.6486 57.8672C37.3394 61.083 28.3534 60.3404 21.7004 55.9708C15.0473 51.6011 10.9504 43.7506 11.2389 35.9222C11.3886 31.8727 12.6436 27.8757 14.7805 24.4031C17.0945 20.6405 20.444 17.4989 24.3701 15.3728C25.0684 14.9947 25.7341 15.7494 25.3075 16.4191C22.492 20.8389 19.4227 25.2282 18.7822 30.3435C18.3248 33.9844 19.1823 37.7137 20.8048 41.0233C22.6286 44.7471 25.5169 48.0761 29.3089 49.8979C33.3351 51.833 38.0581 51.9351 42.4817 51.2008C45.9825 50.6184 49.4397 49.517 52.3851 47.5792C55.0413 45.8251 56.8335 43.1348 58.0373 40.6245Z" fill="#25B8CD"/>
<path fill-rule="evenodd" clip-rule="evenodd" d="M55.2399 27.5509C56.6887 28.7797 56.8671 30.9504 55.6383 32.3992C50.9079 37.9769 43.3617 40.9936 36.0741 41.1846C28.7229 41.3773 21.1779 38.5528 16.1696 33.2766C14.8617 31.8987 14.9184 29.7214 16.2963 28.4135C17.6742 27.1056 19.8514 27.1623 21.1593 28.5402C24.7084 32.2791 30.3141 34.4535 35.8938 34.3073C41.5416 34.1593 47.1176 31.8096 50.3915 27.9494C51.6203 26.5005 53.791 26.3221 55.2399 27.5509ZM52.5743 31.884C52.9508 31.5092 53.311 31.1198 53.6535 30.7159C53.9527 30.3632 53.9092 29.8348 53.5565 29.5357C53.2038 29.2366 52.6754 29.28 52.3763 29.6327C52.0498 30.0177 51.7053 30.3886 51.3444 30.7452C47.4583 34.5844 41.6701 36.7593 35.962 36.9089C30.2534 37.0585 24.4552 35.0511 20.3628 31.3904C19.9841 31.0516 19.6199 30.6986 19.2718 30.3319C18.9534 29.9965 18.4234 29.9827 18.088 30.3011C17.7526 30.6195 17.7388 31.1495 18.0572 31.4849C18.421 31.8682 18.8007 32.2375 19.1948 32.5924C23.6198 36.5773 29.8623 38.744 36.0059 38.583C42.1454 38.4221 48.3711 36.0679 52.5743 31.884Z" fill="#8BF0FF"/>
<path fill-rule="evenodd" clip-rule="evenodd" d="M53.5536 29.5356C53.9063 29.8347 53.9498 30.3632 53.6506 30.7159C49.4842 35.6285 42.6924 38.4076 36.003 38.583C29.3123 38.7583 22.5043 36.1729 18.0543 31.4848C17.7359 31.1494 17.7497 30.6194 18.0851 30.301C18.4205 29.9826 18.9505 29.9964 19.2689 30.3318C23.3782 34.661 29.7222 37.0723 35.9591 36.9088C42.1974 36.7453 48.5313 34.1629 52.3734 29.6326C52.6725 29.2799 53.2009 29.2365 53.5536 29.5356Z" fill="#261768"/>
<path fill-rule="evenodd" clip-rule="evenodd" d="M52.0822 29.3832C52.5191 28.868 53.2909 28.8046 53.806 29.2415C54.3212 29.6784 54.3846 30.4502 53.9477 30.9654C49.6977 35.9766 42.7941 38.7909 36.016 38.9686C29.2274 39.1465 22.3102 36.5256 17.7774 31.7504C17.3124 31.2605 17.3325 30.4863 17.8225 30.0213C18.3124 29.5563 19.0865 29.5764 19.5516 30.0663C23.5778 34.308 29.8124 36.6842 35.9519 36.5233C42.1027 36.3621 48.3242 33.8141 52.0822 29.3832ZM53.3071 29.8298C53.1168 29.6685 52.8318 29.6919 52.6705 29.8821C48.7441 34.5117 42.2979 37.1286 35.9721 37.2944C29.6378 37.4604 23.1844 35.0141 18.9921 30.5974C18.8203 30.4165 18.5345 30.4091 18.3536 30.5808C18.1726 30.7525 18.1652 31.0384 18.3369 31.2193C22.7042 35.8202 29.403 38.3702 35.9958 38.1974C42.5965 38.0244 49.2765 35.2805 53.3594 30.4664C53.5207 30.2762 53.4973 29.9912 53.3071 29.8298Z" fill="#261768"/>
<path fill-rule="evenodd" clip-rule="evenodd" d="M39.3004 27.9781C40.0894 29.2233 41.7954 30.0318 43.4481 29.9436C45.1006 29.8554 46.66 28.872 47.2375 27.553C47.4062 27.1677 47.9112 26.9737 48.3654 27.1197C48.8196 27.2658 49.0511 27.6966 48.8824 28.082C48.0652 29.9485 45.9102 31.3082 43.5696 31.4331C41.2291 31.558 38.8728 30.4403 37.757 28.6793C37.5265 28.3155 37.6851 27.8636 38.1113 27.67C38.5375 27.4764 39.0699 27.6143 39.3004 27.9781Z" fill="#261768"/>
<path fill-rule="evenodd" clip-rule="evenodd" d="M43.591 31.8182C41.1319 31.9494 38.633 30.7809 37.432 28.8856C37.0566 28.2931 37.348 27.5934 37.9526 27.3187C38.5311 27.0559 39.2806 27.2247 39.6271 27.7715C40.331 28.8823 41.8943 29.6402 43.4284 29.5583C44.9622 29.4765 46.3761 28.5607 46.885 27.3982C47.1484 26.7967 47.8803 26.5582 48.4844 26.7524C49.1038 26.9516 49.5176 27.5946 49.2366 28.2365C48.3509 30.2595 46.0504 31.6869 43.591 31.8182ZM38.0837 28.4727C39.1144 30.0994 41.3281 31.1664 43.5499 31.0478C45.7718 30.9292 47.7812 29.6372 48.5299 27.9271C48.5863 27.7984 48.5372 27.5797 48.2482 27.4868C47.9438 27.3889 47.6658 27.5384 47.5917 27.7076C46.9457 29.183 45.2408 30.2341 43.4695 30.3287C41.6982 30.4232 39.8496 29.5639 38.9755 28.1844C38.8609 28.0036 38.5457 27.8966 38.2717 28.021C38.0239 28.1336 37.9981 28.3377 38.0837 28.4727Z" fill="#261768"/>
<path fill-rule="evenodd" clip-rule="evenodd" d="M25.2647 27.2416C26.028 28.6715 27.5812 29.6666 29.2014 29.7709C30.8196 29.875 32.4859 29.0833 33.4276 27.7635C33.6963 27.3871 34.2192 27.2997 34.5956 27.5683C34.9721 27.8369 35.0595 28.3599 34.7909 28.7363C33.5128 30.5274 31.2903 31.5835 29.0938 31.4421C26.8992 31.3009 24.8257 29.9754 23.7873 28.0303C23.5695 27.6223 23.7237 27.115 24.1317 26.8973C24.5396 26.6795 25.0469 26.8336 25.2647 27.2416Z" fill="#261768"/>
<path fill-rule="evenodd" clip-rule="evenodd" d="M29.0673 31.8271C26.7405 31.6774 24.5471 30.2758 23.4453 28.212C23.1272 27.6161 23.3524 26.8751 23.9483 26.557C24.5442 26.2389 25.2851 26.4641 25.6033 27.06C26.3032 28.3712 27.7365 29.2902 29.2244 29.386C30.7095 29.4815 32.2477 28.7507 33.1119 27.5395C33.5043 26.9897 34.2681 26.862 34.818 27.2544C35.3678 27.6467 35.4955 28.4106 35.1031 28.9604C33.7476 30.86 31.397 31.977 29.0673 31.8271ZM24.1259 27.8487C25.1009 29.6751 27.0546 30.9245 29.1169 31.0572C31.1802 31.19 33.2745 30.1948 34.4752 28.5123C34.6201 28.3093 34.5729 28.0272 34.3699 27.8823C34.1668 27.7374 33.8848 27.7846 33.7399 27.9876C32.7207 29.4159 30.9263 30.2685 29.1749 30.1558C27.4224 30.0431 25.7494 28.9718 24.9227 27.4233C24.8053 27.2032 24.5316 27.1201 24.3116 27.2376C24.0915 27.355 24.0084 27.6286 24.1259 27.8487Z" fill="#261768"/>
<path d="M96.983 38.8591C96.983 37.8928 96.7025 37.1914 96.1414 36.755C95.6115 36.2875 94.879 36.0537 93.9439 36.0537C93.3205 36.0537 92.697 36.1316 92.0736 36.2875C91.4814 36.4433 90.967 36.6771 90.5306 36.9888V53.2133C90.2189 53.3068 89.7202 53.4003 89.0344 53.4939C88.3798 53.5874 87.6941 53.6341 86.9771 53.6341C86.2914 53.6341 85.668 53.5874 85.1069 53.4939C84.577 53.4003 84.125 53.2133 83.7509 52.9328C83.3769 52.6522 83.0808 52.2782 82.8626 51.8106C82.6755 51.3119 82.582 50.6729 82.582 49.8936V35.8666C82.582 35.025 82.7535 34.3393 83.0964 33.8094C83.4704 33.2794 83.9691 32.7963 84.5926 32.3599C85.6524 31.6118 86.9771 31.004 88.5669 30.5364C90.1878 30.0688 91.9801 29.835 93.9439 29.835C97.4662 29.835 100.178 30.6143 102.08 32.1729C103.981 33.7003 104.932 35.8355 104.932 38.5785V53.2133C104.62 53.3068 104.121 53.4003 103.435 53.4939C102.781 53.5874 102.095 53.6341 101.378 53.6341C100.692 53.6341 100.069 53.5874 99.5079 53.4939C98.978 53.4003 98.526 53.2133 98.152 52.9328C97.7779 52.6522 97.4818 52.2782 97.2636 51.8106C97.0766 51.3119 96.983 50.6729 96.983 49.8936V38.8591Z" fill="#261768"/>
<path d="M117.977 53.2133C117.634 53.2757 117.12 53.3536 116.434 53.4471C115.78 53.5718 115.109 53.6341 114.424 53.6341C113.738 53.6341 113.114 53.5874 112.553 53.4939C112.023 53.4003 111.571 53.2133 111.197 52.9328C110.823 52.6522 110.527 52.2782 110.309 51.8106C110.122 51.3119 110.028 50.6729 110.028 49.8936V30.8637C110.371 30.8014 110.87 30.7234 111.525 30.6299C112.21 30.5052 112.896 30.4429 113.582 30.4429C114.268 30.4429 114.876 30.4896 115.405 30.5832C115.967 30.6767 116.434 30.8637 116.808 31.1442C117.182 31.4248 117.463 31.8144 117.65 32.3131C117.868 32.7807 117.977 33.4041 117.977 34.1834V53.2133Z" fill="#261768"/>
<path d="M130.986 45.4517C130.986 46.2622 131.235 46.8388 131.734 47.1817C132.264 47.5246 132.997 47.696 133.932 47.696C134.399 47.696 134.882 47.6649 135.381 47.6025C135.88 47.509 136.316 47.3999 136.69 47.2752C136.971 47.6181 137.205 48.0078 137.392 48.4442C137.61 48.8494 137.719 49.3481 137.719 49.9404C137.719 51.1249 137.267 52.0912 136.363 52.8393C135.49 53.5874 133.932 53.9614 131.687 53.9614C128.944 53.9614 126.825 53.338 125.328 52.0912C123.863 50.8443 123.131 48.8182 123.131 46.0128V26.001C123.474 25.9075 123.957 25.814 124.58 25.7205C125.235 25.5958 125.921 25.5334 126.638 25.5334C128.009 25.5334 129.069 25.7828 129.817 26.2816C130.596 26.7491 130.986 27.7622 130.986 29.3207V32.3131H137.111C137.298 32.656 137.47 33.0924 137.625 33.6223C137.812 34.1211 137.906 34.6821 137.906 35.3056C137.906 36.3966 137.657 37.1914 137.158 37.6902C136.69 38.1577 136.051 38.3915 135.241 38.3915H130.986V45.4517Z" fill="#261768"/>
<path d="M153.501 54.0082C151.662 54.0082 149.947 53.7588 148.358 53.2601C146.799 52.7302 145.427 51.9509 144.243 50.9223C143.09 49.8936 142.17 48.6 141.484 47.0415C140.83 45.4829 140.502 43.6594 140.502 41.5709C140.502 39.5137 140.83 37.7525 141.484 36.2875C142.17 34.7912 143.058 33.5756 144.149 32.6404C145.24 31.6741 146.487 30.9728 147.89 30.5364C149.293 30.0688 150.727 29.835 152.192 29.835C153.844 29.835 155.34 30.0844 156.68 30.5832C158.052 31.0819 159.221 31.7677 160.187 32.6404C161.184 33.5132 161.948 34.5575 162.478 35.7731C163.039 36.9888 163.32 38.3136 163.32 39.7474C163.32 40.8073 163.023 41.6177 162.431 42.1788C161.839 42.7399 161.013 43.0983 159.953 43.2542L148.404 44.9842C148.747 46.0128 149.449 46.7921 150.508 47.322C151.568 47.8207 152.784 48.0701 154.155 48.0701C155.433 48.0701 156.633 47.9142 157.756 47.6025C158.909 47.2597 159.844 46.87 160.561 46.4336C161.06 46.7453 161.481 47.1817 161.823 47.7428C162.166 48.3039 162.338 48.8961 162.338 49.5196C162.338 50.9222 161.683 51.9665 160.374 52.6522C159.376 53.1822 158.254 53.5406 157.007 53.7276C155.761 53.9147 154.592 54.0082 153.501 54.0082ZM152.192 35.6329C151.443 35.6329 150.789 35.7575 150.228 36.0069C149.698 36.2563 149.261 36.5836 148.919 36.9888C148.576 37.3629 148.311 37.7992 148.124 38.298C147.968 38.7656 147.874 39.2487 147.843 39.7474L155.839 38.4383C155.745 37.8148 155.402 37.1914 154.81 36.568C154.218 35.9446 153.345 35.6329 152.192 35.6329Z" fill="#261768"/>
<path d="M167.239 22.8216C167.551 22.7281 168.05 22.6345 168.735 22.541C169.421 22.4163 170.122 22.354 170.839 22.354C171.525 22.354 172.133 22.4008 172.663 22.4943C173.224 22.5878 173.692 22.7748 174.066 23.0554C174.44 23.3359 174.72 23.7255 174.907 24.2243C175.094 24.6918 175.188 25.3153 175.188 26.0945V30.6767C175.967 30.365 176.7 30.1468 177.385 30.0221C178.102 29.8974 178.882 29.835 179.723 29.835C181.219 29.835 182.638 30.1 183.978 30.6299C185.318 31.1598 186.503 31.9391 187.531 32.9677C188.56 33.9652 189.371 35.2121 189.963 36.7083C190.555 38.2045 190.851 39.9345 190.851 41.8982C190.851 43.9244 190.539 45.7011 189.916 47.2285C189.324 48.7247 188.482 49.9715 187.391 50.969C186.3 51.9665 184.96 52.7302 183.37 53.2601C181.812 53.7588 180.082 54.0082 178.18 54.0082C176.123 54.0082 174.377 53.7588 172.943 53.2601C171.51 52.7925 170.294 52.2003 169.296 51.4833C167.925 50.517 167.239 49.2702 167.239 47.7428V22.8216ZM178.18 47.7428C179.614 47.7428 180.721 47.2597 181.5 46.2934C182.31 45.2959 182.716 43.8308 182.716 41.8982C182.716 39.9345 182.31 38.4694 181.5 37.5031C180.689 36.5368 179.598 36.0537 178.227 36.0537C177.604 36.0537 177.058 36.116 176.59 36.2407C176.154 36.3654 175.671 36.5524 175.141 36.8018V46.9947C175.484 47.2129 175.889 47.3999 176.357 47.5558C176.855 47.6805 177.463 47.7428 178.18 47.7428Z" fill="#261768"/>
<path d="M202.673 53.2133C202.362 53.3068 201.863 53.4003 201.177 53.4939C200.522 53.5874 199.837 53.6341 199.12 53.6341C198.434 53.6341 197.811 53.5874 197.25 53.4939C196.72 53.4003 196.268 53.2133 195.894 52.9328C195.52 52.6522 195.223 52.2782 195.005 51.8106C194.818 51.3119 194.725 50.6729 194.725 49.8936V35.8666C194.725 35.1497 194.849 34.5419 195.099 34.0431C195.379 33.5132 195.769 33.0457 196.268 32.6404C196.766 32.2352 197.374 31.8768 198.091 31.565C198.839 31.2222 199.634 30.926 200.476 30.6767C201.317 30.4273 202.19 30.2403 203.094 30.1156C203.998 29.9597 204.902 29.8818 205.806 29.8818C207.302 29.8818 208.487 30.1779 209.359 30.7702C210.232 31.3313 210.669 32.2664 210.669 33.5756C210.669 34.012 210.606 34.4484 210.482 34.8848C210.357 35.29 210.201 35.664 210.014 36.0069C209.359 36.0069 208.689 36.0381 208.004 36.1004C207.318 36.1628 206.648 36.2563 205.993 36.381C205.338 36.5056 204.715 36.6459 204.123 36.8018C203.562 36.9265 203.079 37.0823 202.673 37.2693V53.2133Z" fill="#261768"/>
<path d="M225.097 54.0082C223.258 54.0082 221.543 53.7588 219.953 53.2601C218.395 52.7302 217.023 51.9509 215.839 50.9223C214.686 49.8936 213.766 48.6 213.08 47.0415C212.426 45.4829 212.098 43.6594 212.098 41.5709C212.098 39.5137 212.426 37.7525 213.08 36.2875C213.766 34.7912 214.654 33.5756 215.745 32.6404C216.836 31.6741 218.083 30.9728 219.486 30.5364C220.889 30.0688 222.322 29.835 223.788 29.835C225.44 29.835 226.936 30.0844 228.276 30.5832C229.648 31.0819 230.817 31.7677 231.783 32.6404C232.78 33.5132 233.544 34.5575 234.074 35.7731C234.635 36.9888 234.916 38.3136 234.916 39.7474C234.916 40.8073 234.619 41.6177 234.027 42.1788C233.435 42.7399 232.609 43.0983 231.549 43.2542L220 44.9842C220.343 46.0128 221.044 46.7921 222.104 47.322C223.164 47.8207 224.38 48.0701 225.751 48.0701C227.029 48.0701 228.229 47.9142 229.352 47.6025C230.505 47.2597 231.44 46.87 232.157 46.4336C232.656 46.7453 233.076 47.1817 233.419 47.7428C233.762 48.3039 233.934 48.8961 233.934 49.5196C233.934 50.9222 233.279 51.9665 231.97 52.6522C230.972 53.1822 229.85 53.5406 228.603 53.7276C227.357 53.9147 226.188 54.0082 225.097 54.0082ZM223.788 35.6329C223.039 35.6329 222.385 35.7575 221.824 36.0069C221.294 36.2563 220.857 36.5836 220.515 36.9888C220.172 37.3629 219.907 37.7992 219.72 38.298C219.564 38.7656 219.47 39.2487 219.439 39.7474L227.435 38.4383C227.341 37.8148 226.998 37.1914 226.406 36.568C225.814 35.9446 224.941 35.6329 223.788 35.6329Z" fill="#261768"/>
<path d="M248.467 48.2104C248.997 48.2104 249.574 48.1636 250.197 48.0701C250.852 47.9454 251.335 47.7896 251.646 47.6025V43.862L248.28 44.1426C247.407 44.2049 246.69 44.3919 246.129 44.7036C245.568 45.0153 245.287 45.4829 245.287 46.1063C245.287 46.7297 245.521 47.2441 245.989 47.6493C246.488 48.0233 247.314 48.2104 248.467 48.2104ZM248.093 29.835C249.776 29.835 251.304 30.0065 252.675 30.3494C254.078 30.6923 255.262 31.2222 256.229 31.9391C257.226 32.6249 257.99 33.5132 258.52 34.6042C259.05 35.664 259.314 36.9265 259.314 38.3915V48.865C259.314 49.6754 259.081 50.3456 258.613 50.8755C258.177 51.3742 257.647 51.8106 257.023 52.1847C254.997 53.4003 252.145 54.0082 248.467 54.0082C246.815 54.0082 245.319 53.8523 243.978 53.5406C242.669 53.2289 241.531 52.7613 240.565 52.1379C239.63 51.5145 238.897 50.7196 238.368 49.7533C237.869 48.787 237.619 47.6649 237.619 46.3869C237.619 44.2361 238.258 42.584 239.536 41.4307C240.814 40.2773 242.794 39.5604 245.475 39.2799L251.6 38.6253V38.298C251.6 37.394 251.194 36.755 250.384 36.381C249.605 35.9757 248.467 35.7731 246.971 35.7731C245.786 35.7731 244.633 35.8978 243.511 36.1472C242.389 36.3965 241.376 36.7083 240.472 37.0823C240.066 36.8018 239.723 36.381 239.443 35.8199C239.162 35.2276 239.022 34.6198 239.022 33.9964C239.022 33.1859 239.209 32.5469 239.583 32.0794C239.988 31.5806 240.596 31.1598 241.407 30.8169C242.311 30.4741 243.37 30.2247 244.586 30.0688C245.833 29.913 247.002 29.835 248.093 29.835Z" fill="#261768"/>
<path d="M286.384 49.1455C286.228 50.6105 285.792 51.7327 285.075 52.512C284.389 53.2912 283.376 53.6809 282.036 53.6809C281.038 53.6809 280.15 53.4471 279.37 52.9795C278.591 52.4808 277.75 51.6548 276.846 50.5014L272.217 44.7036V53.2133C271.874 53.2757 271.36 53.3536 270.674 53.4471C270.019 53.5718 269.349 53.6341 268.663 53.6341C267.977 53.6341 267.354 53.5874 266.793 53.4939C266.263 53.4003 265.811 53.2133 265.437 52.9328C265.063 52.6522 264.767 52.2782 264.549 51.8106C264.362 51.3119 264.268 50.6729 264.268 49.8936V22.8216C264.611 22.7281 265.11 22.6345 265.764 22.541C266.45 22.4163 267.136 22.354 267.822 22.354C268.507 22.354 269.115 22.4008 269.645 22.4943C270.206 22.5878 270.674 22.7748 271.048 23.0554C271.422 23.3359 271.702 23.7255 271.889 24.2243C272.108 24.6918 272.217 25.3153 272.217 26.0945V38.4383L280.259 30.2091C281.88 30.2091 283.173 30.5676 284.14 31.2845C285.137 32.0014 285.636 32.9054 285.636 33.9964C285.636 34.4639 285.558 34.9003 285.402 35.3056C285.246 35.6796 284.997 36.0693 284.654 36.4745C284.342 36.8797 283.921 37.3161 283.392 37.7837C282.893 38.2201 282.301 38.7344 281.615 39.3266L278.903 41.6645L286.384 49.1455Z" fill="#261768"/>
<path fill-rule="evenodd" clip-rule="evenodd" d="M119.814 25.4969C120.299 24.9583 119.944 23.9673 119.219 23.9673C114.852 23.9673 111.127 20.6452 111.127 16.2789C111.127 15.9984 111.142 15.7213 111.17 15.4483C111.294 14.266 110.256 13.1086 109.294 13.8078C107.318 15.245 106.033 17.5755 106.033 20.206C106.033 24.5724 109.573 28.112 113.939 28.112C116.271 28.112 118.367 27.1026 119.814 25.4969Z" fill="#261768"/>
</g>
<defs>
<clipPath id="clip0">
<rect width="286" height="72" fill="white"/>
</clipPath>
</defs>
</svg>
