<svg width="288" height="69" viewBox="0 0 288 69" fill="none" xmlns="http://www.w3.org/2000/svg">
<path d="M59.8485 33.9492C59.8485 47.5762 48.8017 58.623 35.1747 58.623C21.5478 58.623 10.501 47.5762 10.501 33.9492C10.501 20.3223 21.5478 9.27545 35.1747 9.27545C48.8017 9.27545 59.8485 20.3223 59.8485 33.9492Z" fill="#8BF0FF"/>
<path d="M56.1628 38.2502C56.3146 37.9335 56.7401 37.9176 56.8236 38.2587C57.8464 42.4411 50.09 51.4804 43.7102 54.2874C36.912 57.2784 28.5543 56.5877 22.3664 52.5236C16.1785 48.4594 12.368 41.1578 12.6364 33.8767C12.7756 30.1103 13.9428 26.3928 15.9303 23.163C18.0825 19.6634 21.1979 16.7415 24.8495 14.764C25.4989 14.4124 26.1181 15.1143 25.7213 15.7372C23.1026 19.848 20.248 23.9304 19.6522 28.688C19.2268 32.0744 20.0244 35.5429 21.5334 38.6212C23.2298 42.0846 25.9161 45.1809 29.443 46.8753C33.1876 48.6751 37.5805 48.7701 41.6948 48.0871C44.9508 47.5454 48.1663 46.521 50.9058 44.7187C53.3763 43.0873 55.0431 40.585 56.1628 38.2502Z" fill="#25B8CD"/>
<path fill-rule="evenodd" clip-rule="evenodd" d="M53.5594 26.0908C54.9069 27.2337 55.0729 29.2526 53.93 30.6002C49.5303 35.7878 42.5117 38.5937 35.7336 38.7713C28.8963 38.9505 21.8788 36.3235 17.2207 31.4162C16.0043 30.1346 16.057 28.1096 17.3386 26.8931C18.6201 25.6767 20.6451 25.7294 21.8616 27.011C25.1625 30.4884 30.3763 32.5108 35.5659 32.3748C40.8188 32.2371 46.0049 30.0518 49.05 26.4614C50.1929 25.1138 52.2118 24.9479 53.5594 26.0908ZM51.0801 30.1209C51.4303 29.7724 51.7654 29.4102 52.0839 29.0345C52.3622 28.7065 52.3218 28.215 51.9937 27.9368C51.6657 27.6586 51.1742 27.699 50.896 28.027C50.5923 28.3851 50.2719 28.7301 49.9362 29.0617C46.3219 32.6325 40.9384 34.6554 35.6293 34.7945C30.3198 34.9336 24.927 33.0666 21.1208 29.6619C20.7685 29.3468 20.4298 29.0185 20.106 28.6774C19.8099 28.3654 19.317 28.3526 19.005 28.6487C18.693 28.9448 18.6802 29.4378 18.9763 29.7497C19.3147 30.1063 19.6679 30.4498 20.0344 30.7798C24.15 34.4861 29.9561 36.5014 35.6701 36.3516C41.3804 36.202 47.1708 34.0123 51.0801 30.1209Z" fill="#8BF0FF"/>
<path fill-rule="evenodd" clip-rule="evenodd" d="M51.9921 27.9368C52.3202 28.215 52.3606 28.7064 52.0823 29.0345C48.2072 33.6037 41.8902 36.1885 35.6685 36.3515C29.4456 36.5146 23.1136 34.11 18.9747 29.7497C18.6786 29.4377 18.6914 28.9448 19.0034 28.6486C19.3154 28.3525 19.8083 28.3654 20.1044 28.6773C23.9264 32.7038 29.8268 34.9465 35.6277 34.7944C41.4298 34.6424 47.3209 32.2405 50.8944 28.027C51.1726 27.6989 51.6641 27.6585 51.9921 27.9368Z" fill="#6032E2"/>
<path fill-rule="evenodd" clip-rule="evenodd" d="M50.6221 27.7949C51.0285 27.3158 51.7464 27.2568 52.2255 27.6632C52.7046 28.0695 52.7636 28.7874 52.3573 29.2665C48.4044 33.9274 41.9834 36.5449 35.6793 36.7102C29.3653 36.8756 22.9317 34.438 18.7158 29.9967C18.2833 29.541 18.3021 28.821 18.7577 28.3884L19.0047 28.6486L18.7577 28.3884C19.2134 27.9559 19.9334 27.9747 20.366 28.4303C24.1107 32.3754 29.9094 34.5855 35.6197 34.4358C41.3404 34.2859 47.127 31.9161 50.6221 27.7949ZM51.7614 28.2104C51.5845 28.0603 51.3194 28.0821 51.1693 28.259L50.8966 28.0277L51.1693 28.259C47.5175 32.5649 41.522 34.9989 35.6385 35.1531C29.747 35.3075 23.7448 33.0321 19.8456 28.9243C19.6858 28.756 19.42 28.7491 19.2517 28.9088C19.0834 29.0685 19.0765 29.3344 19.2362 29.5027C23.2981 33.7819 29.5286 36.1536 35.6605 35.9929C41.7997 35.832 48.0126 33.28 51.8101 28.8024C51.9601 28.6255 51.9383 28.3604 51.7614 28.2104Z" fill="#6032E2"/>
<path fill-rule="evenodd" clip-rule="evenodd" d="M38.7374 26.488C39.4713 27.6462 41.0579 28.3982 42.5951 28.3162C44.1321 28.2341 45.5825 27.3194 46.1195 26.0927C46.2765 25.7343 46.7462 25.5539 47.1686 25.6897C47.5911 25.8256 47.8064 26.2263 47.6494 26.5847C46.8894 28.3207 44.8851 29.5853 42.7081 29.7015C40.5313 29.8177 38.3397 28.7781 37.3019 27.1403C37.0875 26.8019 37.235 26.3816 37.6314 26.2015C38.0279 26.0214 38.523 26.1497 38.7374 26.488Z" fill="#6032E2"/>
<path fill-rule="evenodd" clip-rule="evenodd" d="M42.7254 30.0597C40.4382 30.1818 38.114 29.095 36.997 27.3323C36.6478 26.7811 36.9189 26.1303 37.4812 25.8749C38.0192 25.6304 38.7163 25.7874 39.0386 26.296C39.6933 27.3292 41.1473 28.0341 42.5741 27.9579C44.0007 27.8818 45.3157 27.03 45.7891 25.9488C46.034 25.3894 46.7148 25.1675 47.2766 25.3482C47.8527 25.5334 48.2376 26.1315 47.9762 26.7285C47.1525 28.6101 45.0128 29.9377 42.7254 30.0597ZM37.6031 26.9482C38.5617 28.4611 40.6206 29.4536 42.6871 29.3433C44.7537 29.233 46.6226 28.0313 47.319 26.4408C47.3714 26.321 47.3258 26.1177 47.057 26.0312C46.7738 25.9402 46.5152 26.0792 46.4463 26.2366C45.8455 27.6088 44.2598 28.5865 42.6124 28.6744C40.9649 28.7623 39.2455 27.9631 38.4325 26.68C38.326 26.5119 38.0328 26.4123 37.778 26.5281C37.5475 26.6328 37.5235 26.8227 37.6031 26.9482Z" fill="#6032E2"/>
<path fill-rule="evenodd" clip-rule="evenodd" d="M25.6821 25.8032C26.3921 27.1331 27.8366 28.0586 29.3435 28.1556C30.8487 28.2524 32.3984 27.5161 33.2743 26.2886C33.5242 25.9385 34.0106 25.8572 34.3607 26.107C34.7108 26.3569 34.7921 26.8432 34.5423 27.1934C33.3535 28.8592 31.2865 29.8415 29.2435 29.71C27.2024 29.5787 25.2738 28.3458 24.308 26.5367C24.1055 26.1573 24.2489 25.6854 24.6283 25.4829C25.0078 25.2803 25.4796 25.4237 25.6821 25.8032Z" fill="#6032E2"/>
<path fill-rule="evenodd" clip-rule="evenodd" d="M29.2198 30.068C27.0556 29.9287 25.0155 28.6251 23.9908 26.7056C23.6949 26.1514 23.9044 25.4622 24.4586 25.1664C25.0129 24.8705 25.702 25.0799 25.9979 25.6342C26.6489 26.8537 27.982 27.7085 29.3658 27.7975C30.7471 27.8864 32.1777 27.2067 32.9816 26.0802C33.3465 25.5688 34.0569 25.45 34.5683 25.815C35.0797 26.1799 35.1985 26.8903 34.8335 27.4017C33.5728 29.1685 31.3866 30.2074 29.2198 30.068ZM24.6238 26.3677C25.5306 28.0665 27.3477 29.2285 29.2658 29.352C31.1849 29.4754 33.1328 28.5498 34.2495 26.985C34.3843 26.7961 34.3404 26.5338 34.1516 26.399C33.9627 26.2643 33.7004 26.3081 33.5656 26.497C32.6177 27.8254 30.9488 28.6184 29.3198 28.5136C27.6898 28.4087 26.1338 27.4124 25.3649 25.9721C25.2557 25.7674 25.0012 25.6901 24.7965 25.7993C24.5919 25.9086 24.5145 26.1631 24.6238 26.3677Z" fill="#6032E2"/>
<path d="M287.335 45.486C287.335 48.1115 285.207 50.24 282.581 50.24C279.956 50.24 277.827 48.1115 277.827 45.486C277.827 42.8604 279.956 40.7319 282.581 40.7319C285.207 40.7319 287.335 42.8604 287.335 45.486Z" fill="#D661F3"/>
<path fill-rule="evenodd" clip-rule="evenodd" d="M34.8349 64.9676C51.7769 64.9676 65.511 51.2334 65.511 34.2915C65.511 17.3495 51.7769 3.61533 34.8349 3.61533C17.893 3.61533 4.15879 17.3495 4.15879 34.2915C4.15879 51.2334 17.893 64.9676 34.8349 64.9676ZM34.8349 68.5551C53.7582 68.5551 69.0985 53.2147 69.0985 34.2915C69.0985 15.3682 53.7582 0.027832 34.8349 0.027832C15.9116 0.027832 0.571289 15.3682 0.571289 34.2915C0.571289 53.2147 15.9116 68.5551 34.8349 68.5551Z" fill="#D661F3"/>
<path d="M120.63 21.885C120.63 24.5106 118.502 26.639 115.876 26.639C113.251 26.639 111.122 24.5106 111.122 21.885C111.122 19.2594 113.251 17.131 115.876 17.131C118.502 17.131 120.63 19.2594 120.63 21.885Z" fill="#8BF0FF"/>
<path fill-rule="evenodd" clip-rule="evenodd" d="M165.111 21.5168C165.398 21.4307 165.857 21.3446 166.489 21.2585C167.12 21.1437 167.766 21.0863 168.426 21.0863C169.057 21.0863 169.617 21.1294 170.105 21.2155C170.621 21.3016 171.052 21.4738 171.396 21.7321C171.741 21.9904 171.999 22.3491 172.171 22.8083C172.343 23.2388 172.43 23.8128 172.43 24.5303V28.7492C173.147 28.4622 173.822 28.2613 174.453 28.1465C175.113 28.0317 175.831 27.9743 176.605 27.9743C177.983 27.9743 179.289 28.2183 180.523 28.7062C181.757 29.1941 182.848 29.9116 183.795 30.8587C184.742 31.7771 185.488 32.9251 186.033 34.3027C186.579 35.6803 186.851 37.2731 186.851 39.0812C186.851 40.9467 186.564 42.5826 185.99 43.9889C185.445 45.3665 184.67 46.5145 183.666 47.4329C182.661 48.3513 181.427 49.0544 179.963 49.5423C178.528 50.0015 176.935 50.2311 175.185 50.2311C173.291 50.2311 171.683 50.0015 170.363 49.5423C169.043 49.1118 167.924 48.5665 167.005 47.9064C165.742 47.0167 165.111 45.8687 165.111 44.4624V21.5168ZM175.185 44.4624C176.505 44.4624 177.524 44.0176 178.241 43.1279C178.988 42.2095 179.361 40.8606 179.361 39.0812C179.361 37.2731 178.988 35.9242 178.241 35.0345C177.495 34.1448 176.491 33.7 175.228 33.7C174.654 33.7 174.152 33.7574 173.721 33.8722C173.319 33.9869 172.874 34.1591 172.387 34.3887V43.7736C172.702 43.9745 173.075 44.1467 173.506 44.2902C173.965 44.405 174.525 44.4624 175.185 44.4624ZM131.732 42.353C131.732 43.0992 131.961 43.6301 132.421 43.9458C132.909 44.2615 133.583 44.4194 134.444 44.4194C134.875 44.4194 135.319 44.3907 135.779 44.3333C136.238 44.2472 136.64 44.1467 136.984 44.0319C137.242 44.3476 137.458 44.7064 137.63 45.1082C137.831 45.4813 137.931 45.9405 137.931 46.4858C137.931 47.5764 137.515 48.4661 136.683 49.1549C135.879 49.8437 134.444 50.1881 132.378 50.1881C129.852 50.1881 127.9 49.6141 126.523 48.4661C125.174 47.3181 124.499 45.4526 124.499 42.8696V24.4442C124.815 24.3581 125.26 24.272 125.834 24.1859C126.437 24.0711 127.068 24.0137 127.728 24.0137C128.991 24.0137 129.967 24.2433 130.656 24.7025C131.373 25.133 131.732 26.0658 131.732 27.5008V30.256H137.371C137.544 30.5716 137.701 30.9735 137.845 31.4614C138.017 31.9206 138.103 32.4371 138.103 33.0112C138.103 34.0157 137.874 34.7475 137.414 35.2067C136.984 35.6372 136.396 35.8524 135.649 35.8524H131.732V42.353ZM99.6495 34.3457C100.166 34.7475 100.424 35.3932 100.424 36.283V46.4427C100.424 47.1602 100.511 47.7486 100.683 48.2078C100.884 48.6383 101.156 48.9827 101.501 49.241C101.845 49.4993 102.261 49.6715 102.749 49.7576C103.266 49.8437 103.84 49.8867 104.471 49.8867C105.131 49.8867 105.763 49.8437 106.365 49.7576C106.997 49.6715 107.456 49.5854 107.743 49.4993V36.0247C107.743 33.4991 106.868 31.5331 105.117 30.1268C103.366 28.6918 100.869 27.9743 97.6262 27.9743C95.8181 27.9743 94.1678 28.1896 92.6754 28.6201C91.2117 29.0506 89.992 29.6102 89.0162 30.299C88.4422 30.7008 87.983 31.1457 87.6386 31.6336C87.3229 32.1214 87.165 32.7528 87.165 33.5277V46.4427C87.165 47.1602 87.2511 47.7486 87.4233 48.2078C87.6242 48.6383 87.8969 48.9827 88.2413 49.241C88.5857 49.4993 89.0018 49.6715 89.4897 49.7576C90.0063 49.8437 90.5803 49.8867 91.2117 49.8867C91.8718 49.8867 92.5032 49.8437 93.1059 49.7576C93.7373 49.6715 94.1965 49.5854 94.4835 49.4993V34.561C94.8853 34.274 95.3589 34.0587 95.9042 33.9152C96.4782 33.7717 97.0522 33.7 97.6262 33.7C98.4872 33.7 99.1616 33.9152 99.6495 34.3457ZM118.334 49.7145C118.965 49.6284 119.439 49.5567 119.754 49.4993V31.978C119.754 31.2605 119.654 30.6864 119.453 30.256C119.281 29.7967 119.022 29.438 118.678 29.1797C118.334 28.9214 117.903 28.7492 117.386 28.6631C116.899 28.577 116.339 28.534 115.708 28.534C115.076 28.534 114.445 28.5914 113.813 28.7062C113.211 28.7923 112.751 28.864 112.436 28.9214V46.4427C112.436 47.1602 112.522 47.7486 112.694 48.2078C112.895 48.6383 113.168 48.9827 113.512 49.241C113.856 49.4993 114.273 49.6715 114.76 49.7576C115.277 49.8437 115.851 49.8867 116.482 49.8867C117.114 49.8867 117.731 49.8293 118.334 49.7145ZM147.726 49.5423C149.19 50.0015 150.768 50.2311 152.462 50.2311C153.466 50.2311 154.543 50.145 155.691 49.9728C156.839 49.8006 157.872 49.4706 158.79 48.9827C159.996 48.3513 160.598 47.3898 160.598 46.0983C160.598 45.5243 160.44 44.979 160.125 44.4624C159.809 43.9458 159.422 43.544 158.962 43.257C158.302 43.6588 157.441 44.0176 156.379 44.3333C155.346 44.6203 154.241 44.7638 153.064 44.7638C151.802 44.7638 150.682 44.5342 149.707 44.075C148.731 43.5871 148.085 42.8696 147.769 41.9225L158.403 40.3296C159.378 40.1861 160.139 39.8561 160.684 39.3395C161.23 38.8229 161.502 38.0767 161.502 37.1009C161.502 35.7807 161.244 34.561 160.727 33.4417C160.239 32.3224 159.536 31.3609 158.618 30.5573C157.728 29.7537 156.652 29.1223 155.389 28.6631C154.155 28.2039 152.777 27.9743 151.256 27.9743C149.907 27.9743 148.587 28.1896 147.296 28.6201C146.004 29.0219 144.856 29.6676 143.852 30.5573C142.847 31.4183 142.029 32.5376 141.398 33.9152C140.795 35.2641 140.494 36.8857 140.494 38.7799C140.494 40.7027 140.795 42.3817 141.398 43.8167C142.029 45.2517 142.876 46.4427 143.938 47.3898C145.028 48.3369 146.291 49.0544 147.726 49.5423ZM149.448 33.6569C149.965 33.4273 150.568 33.3125 151.256 33.3125C152.318 33.3125 153.122 33.5995 153.667 34.1735C154.129 34.6592 154.426 35.145 154.558 35.6307C153.468 35.5825 152.206 35.6686 150.879 35.9074C149.521 36.1518 148.282 36.5231 147.263 36.9618C147.299 36.5517 147.382 36.1532 147.511 35.7663C147.683 35.3071 147.927 34.9053 148.243 34.561C148.559 34.1879 148.96 33.8865 149.448 33.6569ZM196.359 49.7576C196.99 49.6715 197.449 49.5854 197.736 49.4993V34.8193C198.109 34.647 198.554 34.5036 199.071 34.3887C199.616 34.2453 200.19 34.1161 200.793 34.0013C201.395 33.8865 202.013 33.8004 202.644 33.743C203.275 33.6856 203.892 33.6569 204.495 33.6569C204.667 33.3412 204.811 32.9968 204.926 32.6237C205.04 32.2219 205.098 31.8201 205.098 31.4183C205.098 30.2129 204.696 29.3519 203.892 28.8353C203.089 28.29 201.998 28.0174 200.621 28.0174C199.788 28.0174 198.956 28.0891 198.124 28.2326C197.291 28.3474 196.488 28.5196 195.713 28.7492C194.938 28.9788 194.206 29.2514 193.517 29.5672C192.857 29.8541 192.298 30.1842 191.838 30.5573C191.379 30.9304 191.02 31.3609 190.762 31.8488C190.533 32.308 190.418 32.8676 190.418 33.5277V46.4427C190.418 47.1602 190.504 47.7486 190.676 48.2078C190.877 48.6383 191.15 48.9827 191.494 49.241C191.838 49.4993 192.255 49.6715 192.742 49.7576C193.259 49.8437 193.833 49.8867 194.464 49.8867C195.125 49.8867 195.756 49.8437 196.359 49.7576ZM218.382 50.2311C216.689 50.2311 215.11 50.0015 213.647 49.5423C212.212 49.0544 210.949 48.3369 209.858 47.3898C208.796 46.4427 207.95 45.2517 207.318 43.8167C206.716 42.3817 206.414 40.7027 206.414 38.7799C206.414 36.8857 206.716 35.2641 207.318 33.9152C207.95 32.5376 208.768 31.4183 209.772 30.5573C210.777 29.6676 211.925 29.0219 213.216 28.6201C214.508 28.1896 215.828 27.9743 217.177 27.9743C218.698 27.9743 220.075 28.2039 221.309 28.6631C222.572 29.1223 223.649 29.7537 224.538 30.5573C225.457 31.3609 226.16 32.3224 226.648 33.4417C227.164 34.561 227.423 35.7807 227.423 37.1009C227.423 38.0767 227.15 38.8229 226.605 39.3395C226.059 39.8561 225.299 40.1861 224.323 40.3296L213.69 41.9225C214.005 42.8696 214.651 43.5871 215.627 44.075C216.603 44.5342 217.722 44.7638 218.985 44.7638C220.161 44.7638 221.266 44.6203 222.3 44.3333C223.362 44.0176 224.223 43.6588 224.883 43.257C225.342 43.544 225.729 43.9458 226.045 44.4624C226.361 44.979 226.519 45.5243 226.519 46.0983C226.519 47.3898 225.916 48.3513 224.71 48.9827C223.792 49.4706 222.759 49.8006 221.611 49.9728C220.463 50.145 219.387 50.2311 218.382 50.2311ZM217.177 33.3125C216.488 33.3125 215.885 33.4273 215.369 33.6569C214.881 33.8865 214.479 34.1879 214.163 34.561C213.847 34.9053 213.604 35.3071 213.431 35.7663C213.299 36.1643 213.215 36.5745 213.181 36.9969C214.214 36.5429 215.483 36.1583 216.877 35.9074C218.172 35.6743 219.406 35.5867 220.478 35.6275C220.345 35.1428 220.048 34.6582 219.587 34.1735C219.042 33.5995 218.239 33.3125 217.177 33.3125ZM241.493 44.7638C240.919 44.8499 240.388 44.8929 239.9 44.8929C238.838 44.8929 238.077 44.7207 237.618 44.3764C237.188 44.0033 236.972 43.5297 236.972 42.9557C236.972 42.3817 237.231 41.9512 237.747 41.6642C238.264 41.3772 238.924 41.205 239.727 41.1476L242.827 40.8893V44.3333C242.54 44.5055 242.095 44.649 241.493 44.7638ZM243.774 28.4479C242.511 28.1322 241.105 27.9743 239.555 27.9743C238.551 27.9743 237.475 28.0461 236.327 28.1896C235.207 28.3331 234.231 28.5627 233.399 28.8784C232.653 29.1941 232.093 29.5815 231.72 30.0407C231.376 30.4712 231.204 31.0596 231.204 31.8058C231.204 32.3798 231.333 32.9394 231.591 33.4847C231.849 34.0013 232.165 34.3887 232.538 34.647C233.37 34.3027 234.303 34.0156 235.336 33.786C236.37 33.5564 237.431 33.4417 238.522 33.4417C239.9 33.4417 240.947 33.6282 241.665 34.0013C242.411 34.3457 242.784 34.9341 242.784 35.7663V36.0677L237.144 36.6704C234.676 36.9287 232.854 37.5888 231.677 38.6507C230.5 39.7126 229.912 41.2337 229.912 43.214C229.912 44.3907 230.142 45.4239 230.601 46.3136C231.089 47.2033 231.763 47.9352 232.624 48.5091C233.514 49.0831 234.561 49.5136 235.767 49.8006C237.001 50.0876 238.379 50.2311 239.9 50.2311C243.286 50.2311 245.912 49.6715 247.778 48.5522C248.352 48.2078 248.84 47.806 249.242 47.3468C249.672 46.8589 249.887 46.2418 249.887 45.4957V35.8524C249.887 34.5036 249.643 33.3412 249.155 32.3654C248.668 31.3609 247.964 30.543 247.046 29.9116C246.156 29.2515 245.066 28.7636 243.774 28.4479ZM274.811 45.7539C274.667 47.1028 274.266 48.136 273.605 48.8535C272.974 49.571 272.041 49.9298 270.807 49.9298C269.889 49.9298 269.071 49.7145 268.353 49.284C267.636 48.8248 266.861 48.0643 266.029 47.0024L261.767 41.6642V49.4993C261.451 49.5567 260.977 49.6284 260.346 49.7145C259.743 49.8293 259.126 49.8867 258.495 49.8867C257.864 49.8867 257.29 49.8437 256.773 49.7576C256.285 49.6715 255.869 49.4993 255.524 49.241C255.18 48.9827 254.907 48.6383 254.707 48.2078C254.534 47.7486 254.448 47.1602 254.448 46.4427V21.5168C254.764 21.4307 255.223 21.3446 255.826 21.2585C256.457 21.1437 257.089 21.0863 257.72 21.0863C258.351 21.0863 258.911 21.1294 259.399 21.2155C259.916 21.3016 260.346 21.4738 260.69 21.7321C261.035 21.9904 261.293 22.3491 261.465 22.8083C261.666 23.2388 261.767 23.8128 261.767 24.5303V35.8955L269.171 28.3187C270.664 28.3187 271.855 28.6488 272.744 29.3088C273.663 29.969 274.122 30.8013 274.122 31.8058C274.122 32.2363 274.05 32.6381 273.907 33.0112C273.763 33.3555 273.534 33.7143 273.218 34.0874C272.931 34.4605 272.544 34.8623 272.056 35.2928C271.596 35.6946 271.051 36.1681 270.42 36.7134L267.923 38.8659L274.811 45.7539Z" fill="white"/>
</svg>
