<svg width="610" height="398" viewBox="0 0 610 398" fill="none" xmlns="http://www.w3.org/2000/svg">
<mask id="mask0" mask-type="alpha" maskUnits="userSpaceOnUse" x="0" y="0" width="610" height="398">
<rect x="0.854248" y="0.824219" width="609" height="396.931" fill="#C4C4C4"/>
</mask>
<g mask="url(#mask0)">
<path d="M667.75 349.573C667.75 526.661 524.191 670.22 347.103 670.22C170.015 670.22 26.4569 526.661 26.4569 349.573C26.4569 172.485 170.015 28.9268 347.103 28.9268C524.191 28.9268 667.75 172.485 667.75 349.573Z" fill="#9FF1FD"/>
<path d="M628.286 406.823C630.32 402.581 636.019 402.367 637.137 406.937C650.837 462.957 546.946 584.03 461.494 621.627C370.439 661.689 258.494 652.439 175.612 598.003C92.7299 543.567 41.6918 445.767 45.2865 348.243C47.1517 297.796 62.7853 248.003 89.4065 204.743C118.233 157.869 159.961 118.732 208.871 92.2457C217.57 87.5354 225.863 96.9374 220.548 105.28C185.473 160.341 147.237 215.022 139.258 278.746C133.561 324.103 144.243 370.561 164.455 411.792C187.176 458.181 223.157 499.653 270.397 522.349C320.554 546.455 379.392 547.727 434.499 538.58C478.111 531.324 521.179 517.604 557.873 493.463C590.963 471.611 613.289 438.096 628.286 406.823Z" fill="#4CBCCC"/>
<path fill-rule="evenodd" clip-rule="evenodd" d="M380.988 248.983C390.49 265.845 410.586 276.46 429.847 274.787C449.106 273.114 467.065 259.184 473.488 240.928C475.365 235.593 481.21 232.79 486.545 234.667C491.879 236.544 494.682 242.389 492.805 247.724C483.715 273.56 458.898 292.818 431.619 295.188C404.343 297.557 376.585 282.882 363.147 259.036C360.371 254.109 362.114 247.865 367.041 245.089C371.967 242.313 378.211 244.056 380.988 248.983Z" fill="#6032E2"/>
<path fill-rule="evenodd" clip-rule="evenodd" d="M219.627 248.487C230.501 265.057 250.512 275.46 270.357 274.941C290.179 274.423 309.596 262.942 319.607 245.832C322.463 240.951 328.734 239.309 333.615 242.165C338.496 245.02 340.138 251.292 337.282 256.173C323.695 279.395 297.797 294.708 270.893 295.412C244.012 296.115 217.298 282.263 202.506 259.722C199.404 254.995 200.721 248.647 205.449 245.544C210.177 242.442 216.524 243.759 219.627 248.487Z" fill="#6032E2"/>
<path fill-rule="evenodd" clip-rule="evenodd" d="M561.671 260.291C565.984 263.948 566.515 270.409 562.857 274.722C511.912 334.791 431.845 372.003 350.051 374.146C268.24 376.29 186.138 343.147 131.726 285.824C127.833 281.722 128.002 275.242 132.103 271.349C136.205 267.455 142.685 267.624 146.578 271.726C196.825 324.66 273.252 355.674 349.514 353.676C425.793 351.677 500.26 316.87 547.24 261.477C550.898 257.164 557.359 256.633 561.671 260.291Z" fill="#6032E2"/>
<path fill-rule="evenodd" clip-rule="evenodd" d="M576.877 242.362C591.092 254.418 592.842 275.714 580.787 289.929C525.288 355.367 438.792 395.339 350.666 397.649C262.488 399.959 173.87 364.371 114.675 302.009C101.843 288.491 102.4 267.13 115.918 254.299C129.436 241.467 150.797 242.023 163.629 255.542C209.093 303.438 279.006 332.007 348.898 330.176C418.843 328.342 486.883 296.297 529.311 246.272C541.366 232.057 562.662 230.307 576.877 242.362ZM557.171 281.2C559.104 279.072 561 276.913 562.857 274.723C566.515 270.41 565.984 263.949 561.671 260.292C557.358 256.634 550.897 257.165 547.24 261.478C545.46 263.576 543.641 265.645 541.784 267.683C494.616 319.461 422.903 351.753 349.514 353.677C276.128 355.6 202.588 326.953 152.372 277.621C150.405 275.688 148.473 273.723 146.578 271.727C142.685 267.625 136.204 267.456 132.103 271.349C128.002 275.242 127.833 281.723 131.726 285.824C133.702 287.906 135.714 289.956 137.762 291.973C192.101 345.508 271.211 376.214 350.051 374.147C428.863 372.082 506.072 337.459 557.171 281.2Z" fill="#9FF1FD"/>
</g>
</svg>
