<svg width="2619" height="530" viewBox="0 0 2619 530" fill="none" xmlns="http://www.w3.org/2000/svg">
<path d="M490.33 182.263H431.307V135.045C431.307 109.001 452.481 87.8268 478.525 87.8268H484.427C494.24 87.8268 502.134 79.9326 502.134 70.1201V34.7067C502.134 24.8942 494.24 17 484.427 17H478.525C413.305 17 360.48 69.825 360.48 135.045V312.112C360.48 331.663 376.343 347.525 395.894 347.525H490.33C509.881 347.525 525.743 331.663 525.743 312.112V217.676C525.743 198.125 509.881 182.263 490.33 182.263ZM277.849 182.263H218.827V135.045C218.827 109.001 240.001 87.8268 266.045 87.8268H271.947C281.759 87.8268 289.654 79.9326 289.654 70.1201V34.7067C289.654 24.8942 281.759 17 271.947 17H266.045C200.825 17 148 69.825 148 135.045V312.112C148 331.663 163.862 347.525 183.413 347.525H277.849C297.4 347.525 313.263 331.663 313.263 312.112V217.676C313.263 198.125 297.4 182.263 277.849 182.263Z" fill="#CCD2E8"/>
<path d="M2434.79 182.263H2340.35C2320.8 182.263 2304.94 198.125 2304.94 217.676V312.112C2304.94 331.663 2320.8 347.525 2340.35 347.525H2399.37V394.743C2399.37 420.787 2378.2 441.961 2352.15 441.961H2346.25C2336.44 441.961 2328.55 449.855 2328.55 459.667V495.081C2328.55 504.893 2336.44 512.788 2346.25 512.788H2352.15C2417.37 512.788 2470.2 459.963 2470.2 394.743V217.676C2470.2 198.125 2454.34 182.263 2434.79 182.263ZM2222.31 182.263H2127.87C2108.32 182.263 2092.46 198.125 2092.46 217.676V312.112C2092.46 331.663 2108.32 347.525 2127.87 347.525H2186.89V394.743C2186.89 420.787 2165.72 441.961 2139.67 441.961H2133.77C2123.96 441.961 2116.06 449.855 2116.06 459.667V495.081C2116.06 504.893 2123.96 512.788 2133.77 512.788H2139.67C2204.89 512.788 2257.72 459.963 2257.72 394.743V217.676C2257.72 198.125 2241.86 182.263 2222.31 182.263Z" fill="#CCD2E8"/>
</svg>
