<svg width="1060" height="640" viewBox="0 0 1060 640" fill="none" xmlns="http://www.w3.org/2000/svg">
<g filter="url(#filter0_d)">
<g clip-path="url(#clip0)">
<rect width="1050" height="630" rx="12" transform="matrix(-1 0 0 1 1055 1)" fill="#3814A2"/>
<rect x="514.158" y="314.819" width="10.0609" height="10.0609" transform="rotate(135 514.158 314.819)" fill="#5229C7"/>
<path d="M1002.05 -139.038C1010.12 -163.231 1021.25 -188.786 1034.13 -210.928C1036.23 -215.138 1054.08 -217.027 1059.44 -219.284C1068.87 -223.256 1081.75 -219.306 1089.43 -214.86C1102.18 -207.478 1107.22 -188.089 1113.27 -175.536C1126.2 -148.674 1139.96 -121.027 1145.71 -91.4807C1158.95 -23.3862 1159.13 54.4059 1140.3 121.361C1128.36 163.825 1110.16 204.981 1093.85 245.969C1079.29 282.555 1060.61 311.993 1035.23 342.067C1012.28 369.265 985.813 393.015 963.342 420.592C954.757 431.129 944.481 440.179 935.816 450.577C929.975 457.585 920.875 473.271 912.467 476.875C905.258 479.964 891.516 492.138 887.029 499.118C881.76 507.315 872.913 512.511 866.015 519.025C806.591 575.149 748.21 631.22 673.573 668.948C591.759 710.305 507.102 743.284 415.755 755.707C386.67 759.663 352.175 760.062 323.098 755.216C297.738 750.989 269.905 739.339 251.208 721.421C233.95 704.882 220.481 689.341 205.863 670.546C197.254 659.478 200.21 643.292 200.21 630.116C200.21 610.651 209.144 596.036 217.906 578.749C226.51 561.773 239.859 548.848 251.577 534.018C267.718 513.59 285.319 493.708 303.19 474.786C442.988 326.764 677.554 313.321 829.72 182C862.679 153.556 894.06 123.314 922.623 90.3258C946.873 62.319 967.878 27.7408 987.876 -3.56039C1006.49 -32.6909 991.162 -106.366 1002.05 -139.038Z" fill="url(#paint0_linear)"/>
<path d="M458.831 27.4083C477.77 -6.30332 499.057 -38.3761 519.72 -71.0361C516.802 -76.8722 498.414 -83.203 492.609 -85.0361C473.229 -91.156 453.688 -94.4418 433.72 -98.0361C410.022 -102.302 386.101 -105.013 362.164 -107.481C338.421 -109.928 315.147 -116.534 291.275 -118.592C264.778 -120.876 239.706 -127.036 212.942 -127.036C177.199 -127.036 142.773 -126.065 108.053 -116.703C47.9091 -100.484 -19.1182 -74.8344 -69.3914 -37.4806C-105.894 -10.3586 -132.834 29.7465 -153.169 69.8528C-189.169 140.853 -205.402 224.653 -171.169 299.964C-161.896 320.365 -150.253 342.318 -129.836 353.408C-108.192 365.166 -83.9326 367.146 -59.8358 366.964C32.1446 366.267 129.017 339.983 209.942 296.631C285.206 256.31 354.336 195.038 401.72 124.075C422.451 93.0275 440.555 59.9395 458.831 27.4083Z" fill="url(#paint1_linear)"/>
<path opacity="0.6" d="M609.784 -90.7218C622.525 -124.669 633.427 -159.189 645.693 -193.292C643.659 -206.755 636.666 -209.006 626.437 -216.731C620.973 -220.857 615.788 -225.026 613.111 -231.449C610.596 -237.483 607.949 -247.055 602.506 -250.41C570.339 -270.233 530.035 -274.076 493.021 -280.075C449.912 -287.062 406.052 -275.255 368.301 -254.82C325.627 -231.721 290.018 -199.249 256.172 -164.854C238.685 -147.083 225.262 -126.373 209.669 -107.047C195.207 -89.1221 178.588 -72.3922 162.367 -56.077C96.4106 10.2595 23.7279 75.66 -59.0539 120.377C-81.4347 132.467 -102.274 147.379 -124.545 159.631C-146.955 171.959 -169.569 181.552 -189.827 197.68C-218.601 220.587 -237.971 252.97 -252.592 286.286C-268.013 321.426 -269.243 373.195 -241.592 403.075C-224.617 421.418 -205.014 438.034 -182.434 448.944C-145.362 466.856 -98.0174 464.972 -57.8594 466.713C35.3289 470.752 129.097 462.551 214.569 422.424C279.431 391.974 335.77 341.285 383.417 288.705C449.321 215.979 496.41 127.705 544.45 42.7207C568.601 -0.00151581 592.527 -44.7417 609.784 -90.7218Z" fill="url(#paint2_linear)"/>
<path d="M1004.85 217.576C1044.76 143.5 1089.79 70.787 1120.63 -7.58803C1125.32 -6.49105 1118.29 1.34387 1122.13 3.87758C1125.12 5.84589 1133.14 2.8005 1136.57 3.10157C1144.24 3.77646 1152.59 10.6504 1160.23 12.8542C1176.82 17.6391 1179.04 21.7544 1185.15 39.7866C1194.33 66.8901 1204.89 93.8883 1212.88 121.358C1231.03 183.717 1231.32 252.34 1234.96 316.822C1238.3 375.886 1240.47 436.275 1237.4 495.355C1233.42 572.153 1205.96 644 1169.15 710.661C1150.7 744.072 1130.87 769.559 1101.86 793.984C1073.72 817.691 1043.84 839.493 1013.22 859.865C979.336 882.405 942.725 900.432 908.147 921.908C862.862 950.036 818.017 970.046 765.633 982.056C724.606 991.462 682.402 1001.02 640.426 1004.9C604.381 1008.23 565.146 1009.41 530.785 996.952C484.149 980.051 464.175 938.067 467.531 889.651C469.267 864.616 476.027 832.418 491.357 811.795C500.686 799.246 505.514 783.689 515.741 771.38C524.562 760.763 533.956 750.568 541.788 739.291C551.18 725.767 566.512 714.112 578.733 703.182C591.305 691.939 602.017 677.864 614.007 665.889C636.052 643.871 657.282 620.179 682.355 601.326C690.114 595.492 695.714 586.896 702.956 580.341C710.543 573.474 718.321 566.799 725.096 559.103C740.814 541.247 757.405 525.282 773.718 508.079C812.936 466.72 850.925 425.476 887.443 381.521C907.133 357.822 928.481 335.196 947.061 310.623C969.313 281.194 987.389 249.995 1004.85 217.576Z" fill="url(#paint3_linear)"/>
<rect width="20.1878" height="20.1878" transform="matrix(-0.707107 0.707107 0.707107 0.707107 856.995 451.45)" fill="#B287EB"/>
<g style="mix-blend-mode:soft-light">
<rect width="122.776" height="122.776" transform="matrix(-1 -8.74228e-08 -8.74228e-08 1 1002.02 183.207)" fill="url(#paint4_diamond)"/>
</g>
<g style="mix-blend-mode:soft-light">
<rect width="122.776" height="122.776" transform="matrix(-1 -8.74228e-08 -8.74228e-08 1 1002.02 183.207)" fill="url(#paint5_diamond)" fill-opacity="0.6"/>
</g>
<rect width="29.7343" height="29.7343" transform="matrix(-0.707107 0.707107 0.707107 0.707107 937.825 223.569)" fill="#C499FE"/>
<rect width="18.801" height="18.801" transform="matrix(-0.707107 0.707107 0.707107 0.707107 602.745 141.975)" fill="#6136DB"/>
<rect width="18.801" height="18.801" transform="matrix(-0.707107 0.707107 0.707107 0.707107 850.714 276.034)" fill="#6136DB"/>
<rect width="18.801" height="18.801" transform="matrix(-0.707107 0.707107 0.707107 0.707107 651.653 177.706)" fill="#6136DB"/>
<rect width="18.801" height="18.801" transform="matrix(-0.707107 0.707107 0.707107 0.707107 379.784 475.559)" fill="#6136DB"/>
<rect width="18.801" height="18.801" transform="matrix(-0.707107 0.707107 0.707107 0.707107 777.191 396.706)" fill="#6136DB"/>
<rect width="18.801" height="18.801" transform="matrix(-0.707107 0.707107 0.707107 0.707107 270.191 316)" fill="#6136DB"/>
<rect width="10.0609" height="10.0609" transform="matrix(-0.707107 -0.707107 -0.707107 0.707107 710.154 152.18)" fill="#5229C7"/>
<rect width="10.0609" height="10.0609" transform="matrix(-0.707107 -0.707107 -0.707107 0.707107 740.974 78.0088)" fill="#5229C7"/>
<rect width="10.0609" height="10.0609" transform="matrix(-0.707107 -0.707107 -0.707107 0.707107 241.771 444.383)" fill="#5229C7"/>
<rect width="10.0609" height="10.0609" transform="matrix(-0.707107 -0.707107 -0.707107 0.707107 733.859 131.771)" fill="#5229C7"/>
<rect width="10.0609" height="10.0609" transform="matrix(-0.707107 -0.707107 -0.707107 0.707107 672.062 92.2373)" fill="#5229C7"/>
<rect width="10.0609" height="10.0609" transform="matrix(-0.707107 -0.707107 -0.707107 0.707107 393.079 346.237)" fill="#5229C7"/>
<rect width="10.0609" height="10.0609" transform="matrix(-0.707107 -0.707107 -0.707107 0.707107 172.859 458.611)" fill="#5229C7"/>
<rect x="850.714" y="347.101" width="10.0609" height="10.0609" transform="rotate(135 850.714 347.101)" fill="#5229C7"/>
<rect x="804.714" y="261.806" width="10.0609" height="10.0609" transform="rotate(135 804.714 261.806)" fill="#5229C7"/>
<rect x="464.714" y="276.034" width="10.0609" height="10.0609" transform="rotate(135 464.714 276.034)" fill="#5229C7"/>
<rect x="1002.02" y="445.245" width="10.0609" height="10.0609" transform="rotate(135 1002.02 445.245)" fill="#5229C7"/>
<rect x="781.802" y="332.872" width="10.0609" height="10.0609" transform="rotate(135 781.802 332.872)" fill="#5229C7"/>
<rect x="579.401" y="522.887" width="10.0609" height="10.0609" transform="rotate(135 579.401 522.887)" fill="#5229C7"/>
<rect x="111.018" y="230.684" width="10.0609" height="10.0609" transform="rotate(135 111.018 230.684)" fill="#5229C7"/>
<rect width="10.0609" height="10.0609" transform="matrix(-0.707107 -0.707107 -0.707107 0.707107 333.961 399.032)" fill="#5229C7"/>
<rect width="10.0609" height="10.0609" transform="matrix(-0.707107 -0.707107 -0.707107 0.707107 871.27 229.821)" fill="#5229C7"/>
<rect width="10.0609" height="10.0609" transform="matrix(-0.707107 -0.707107 -0.707107 0.707107 196.747 132.36)" fill="#5229C7"/>
<rect x="337.307" y="327.281" width="10.0609" height="10.0609" transform="rotate(135 337.307 327.281)" fill="#5229C7"/>
<rect x="291.307" y="241.986" width="10.0609" height="10.0609" transform="rotate(135 291.307 241.986)" fill="#5229C7"/>
<rect width="10.0609" height="10.0609" transform="matrix(-0.707107 -0.707107 -0.707107 0.707107 357.863 210.002)" fill="#5229C7"/>
<rect width="10.0609" height="10.0609" transform="matrix(-0.707107 -0.707107 -0.707107 0.707107 651.05 342.194)" fill="#5229C7"/>
<rect x="703.04" y="339.123" width="10.0609" height="10.0609" transform="rotate(135 703.04 339.123)" fill="#5229C7"/>
<rect width="18.801" height="18.801" transform="matrix(-0.707107 0.707107 0.707107 0.707107 958.851 548.186)" fill="#5E34D5"/>
<g style="mix-blend-mode:soft-light">
<rect width="64.4209" height="64.4209" transform="matrix(-1 -8.74228e-08 -8.74228e-08 1 396.786 87.7588)" fill="url(#paint6_diamond)"/>
</g>
<g style="mix-blend-mode:soft-light">
<rect width="64.4209" height="64.4209" transform="matrix(-1 -8.74228e-08 -8.74228e-08 1 182.786 141.975)" fill="url(#paint7_diamond)"/>
</g>
<rect width="20.1878" height="20.1878" transform="matrix(-0.707107 0.707107 0.707107 0.707107 364.576 105.694)" fill="#B287EB"/>
<rect width="20.1878" height="20.1878" transform="matrix(-0.707107 0.707107 0.707107 0.707107 150.576 162.45)" fill="#B287EB"/>
</g>
<rect x="0.5" y="-0.5" width="1051" height="631" rx="12.5" transform="matrix(-1 0 0 1 1056 1)" stroke="#9073E7"/>
</g>
<defs>
<filter id="filter0_d" x="0" y="0" width="1060" height="640" filterUnits="userSpaceOnUse" color-interpolation-filters="sRGB">
<feFlood flood-opacity="0" result="BackgroundImageFix"/>
<feColorMatrix in="SourceAlpha" type="matrix" values="0 0 0 0 0 0 0 0 0 0 0 0 0 0 0 0 0 0 127 0"/>
<feOffset dy="4"/>
<feGaussianBlur stdDeviation="2"/>
<feColorMatrix type="matrix" values="0 0 0 0 0 0 0 0 0 0 0 0 0 0 0 0 0 0 0.25 0"/>
<feBlend mode="normal" in2="BackgroundImageFix" result="effect1_dropShadow"/>
<feBlend mode="normal" in="SourceGraphic" in2="effect1_dropShadow" result="shape"/>
</filter>
<linearGradient id="paint0_linear" x1="677.416" y1="-220.922" x2="677.416" y2="758.762" gradientUnits="userSpaceOnUse">
<stop stop-color="#5223D7"/>
<stop offset="1" stop-color="#5223D7" stop-opacity="0"/>
</linearGradient>
<linearGradient id="paint1_linear" x1="164.85" y1="-127.036" x2="164.85" y2="366.975" gradientUnits="userSpaceOnUse">
<stop stop-color="#5223D7"/>
<stop offset="1" stop-color="#5223D7" stop-opacity="0"/>
</linearGradient>
<linearGradient id="paint2_linear" x1="258.539" y1="-321.346" x2="115.02" y2="505.821" gradientUnits="userSpaceOnUse">
<stop stop-color="#8D66FB"/>
<stop offset="1" stop-color="#5223D7" stop-opacity="0"/>
</linearGradient>
<linearGradient id="paint3_linear" x1="433.317" y1="539.983" x2="1252.12" y2="464.314" gradientUnits="userSpaceOnUse">
<stop stop-color="#7D59E4"/>
<stop offset="1" stop-color="#441ABC" stop-opacity="0"/>
</linearGradient>
<radialGradient id="paint4_diamond" cx="0" cy="0" r="1" gradientUnits="userSpaceOnUse" gradientTransform="translate(61.3881 61.3881) rotate(90) scale(61.3881)">
<stop stop-color="#BF8FFF"/>
<stop offset="1" stop-color="#B287EB" stop-opacity="0"/>
</radialGradient>
<radialGradient id="paint5_diamond" cx="0" cy="0" r="1" gradientUnits="userSpaceOnUse" gradientTransform="translate(61.3881 61.3881) rotate(90) scale(61.3881)">
<stop stop-color="#BF8FFF"/>
<stop offset="1" stop-color="#B287EB" stop-opacity="0"/>
</radialGradient>
<radialGradient id="paint6_diamond" cx="0" cy="0" r="1" gradientUnits="userSpaceOnUse" gradientTransform="translate(32.2104 32.2104) rotate(90) scale(32.2104)">
<stop stop-color="#BF8FFF"/>
<stop offset="1" stop-color="#B287EB" stop-opacity="0"/>
</radialGradient>
<radialGradient id="paint7_diamond" cx="0" cy="0" r="1" gradientUnits="userSpaceOnUse" gradientTransform="translate(32.2104 32.2104) rotate(90) scale(32.2104)">
<stop stop-color="#BF8FFF"/>
<stop offset="1" stop-color="#B287EB" stop-opacity="0"/>
</radialGradient>
<clipPath id="clip0">
<rect width="1050" height="630" rx="12" transform="matrix(-1 0 0 1 1055 1)" fill="white"/>
</clipPath>
</defs>
</svg>
